<?xml version="1.0" encoding="UTF-8"?>
<svg id="Warstwa_2" data-name="Warstwa 2" xmlns="http://www.w3.org/2000/svg" viewBox="0 0 188.53747959 189.23971879">
  <defs>
    <style>
      .cls-1 {
        fill: #f7adc5;
      }
    </style>
  </defs>
  <g id="Warstwa_7_kopia" data-name="Warstwa 7 kopia">
    <path class="cls-1" d="M151.83459367,170.84880169l-34.7223444-37.07105184c-1.84115081-1.96569093-5.11481098-.36010118-4.68765418,2.2990931l8.05576892,50.14986214-22.32351971-55.39239467-12.46856817,58.40540837-.80602125-59.7160552-32.72506059,49.95725501,20.82033485-55.97473158-48.56185225,34.76209754,39.63478936-44.6737103-57.84009666,14.87212617,53.09634594-27.33925689L0,94.1010353l59.38694678-6.31248535L6.62331296,59.81256266l57.65701139,15.56682232L25.18579334,30.23213074l48.14017712,35.34374437L53.18047533,9.35474079l32.12174517,50.3472979,1.52430148-59.70203869,13.66540267,43.25837066L121.57984826,3.43131795l-10.18049915,58.8473819,41.34747577-43.0934237-30.75115902,51.19592892,54.12251309-25.24698983-47.16870448,36.63018205,59.58800512-3.99081009-57.21585502,17.11732612,57.00580686,17.80435067-59.53568729-4.70731955,46.72465851,37.19493522-53.8148951-25.89621563,30.13308612,51.56213766Z"/>
  </g>
</svg>