<svg width="202" height="511" viewBox="0 0 202 511" fill="none" xmlns="http://www.w3.org/2000/svg">
<g clip-path="url(#clip0_379_605)">
<path d="M197.17 161.916C198.893 165.299 195.095 165.456 199.828 169.202C200.095 169.419 200.483 168.61 200.762 167.921C201.102 169.069 201.199 170.93 201.053 172.44L198.323 170.507C198.117 172.573 199.622 173.685 201.126 174.953L199.779 176.573C199.476 176.935 200.18 178.192 200.495 178.602C203.59 182.602 201.017 184.487 200.762 188.172C200.871 189.357 200.653 190.686 200.338 191.834L200.799 194.54L198.736 193.417C198.275 193.163 197.85 195.108 198.02 195.604C200.216 202.068 191.309 210.357 188.154 215.819L186.953 213.934C183.628 217.498 182.014 224.265 175.703 222.682C172.5 224.905 167.816 228.277 162.634 226.935C159.442 228.228 150.402 228.772 146.846 228.53L140.208 228.071L142.708 229.497L135.852 228.192L137.854 227.503C134.129 227.866 131.034 228.035 127.333 228.095C124.518 228.144 120.914 229.715 118.135 228.857C116.327 228.301 115.028 228.228 113.123 228.373L109.458 228.639C106.036 228.893 102.832 228.808 98.84 228.675L98.209 223.02C97.7721 219.178 98.2939 215.916 99.0706 212.206C98.9977 210.128 98.0755 207.312 98.5851 204.884L99.4953 208.557C99.8472 206.503 99.3982 204.461 98.84 201.669C100.527 200.811 103.633 201.343 105.551 202.068L109.313 201.428C112.71 200.848 116.509 201.017 119.749 201.512C120.173 201.573 126.751 200.256 129.906 203.047C134.663 197.404 144.868 200.328 141.652 196.715L144.346 193.96C147.186 193.815 147.283 191.266 148.048 189.308C149.953 184.463 150.39 180.33 147.526 175.872C145.414 172.585 142.987 170.144 139.772 167.981C135.221 164.924 133.279 163.788 127.467 163.571L112.82 163.003C103.84 162.653 108.985 161.468 101.68 161.009L101.655 139.779L153.423 139.489C161.044 139.441 167.573 140.311 174.866 142.703C177.827 143.67 180.448 145.507 183.009 147.899C185.957 150.654 188.093 148.757 191.418 153.941C191.564 154.17 190.545 154.4 189.998 154.617L192.79 158.544L194.586 156.829L197.195 161.928L197.17 161.916Z" fill="black"/>
<path d="M187.717 475.487C187.851 476.804 188.275 479.016 188.227 480.164C187.814 489.734 182.705 497.829 175.618 504.004C170.595 508.378 164.563 510.082 157.744 511C155.195 506.372 153.982 497.032 152.841 494.615C152.623 494.156 151.094 494.7 150.608 494.893C147.113 496.331 143.922 496.222 140.293 496.126C137.405 496.053 133.935 497.044 131.107 497.177C129.699 496.669 127.636 495.884 126.071 495.449C115.186 492.476 108.002 483.873 104.446 473.469C103.815 471.621 102.456 469.881 102.396 467.633C102.153 459.658 104.034 451.889 108.803 445.303C114.458 437.51 123.705 434.719 132.393 432.519L135.16 442.295L137.126 449.231C139.456 451.103 141.604 448.808 143.497 448.058C150.462 445.279 158.447 444.881 165.401 447.176C170.267 448.783 174.211 451.466 178.021 454.426C180.606 456.432 181.844 458.631 183.081 461.592C184.962 466.087 187.22 470.497 187.729 475.487L187.717 475.487Z" fill="black"/>
<path d="M193.396 392.657C193.554 394.07 192.972 396.185 192.377 397.26C190.957 399.834 192.79 402.069 192.935 404.438C193.093 406.939 192.838 410.02 192.729 412.558C189.064 404.377 194.124 404.957 190.144 400.861C190.059 405.441 189.598 410.02 190.265 414.189L191.37 421.052L192.037 419.119L192.389 421.318C192.462 421.801 190.739 421.427 190.35 421.294L189.586 425.366L147.793 391.92L147.392 394.433C147.332 394.807 148.145 394.566 149.2 394.542L149.431 401.514C149.492 403.157 149.637 404.921 149.528 406.77C149.164 413.355 149.273 419.651 149.346 426.405L139.65 426.514L135.245 426.719C132.284 426.852 129.372 426.804 126.265 426.719L119.336 426.502L112.856 426.55C112.007 426.55 110.356 426.127 109.762 425.668C109.07 425.136 108.366 423.288 108.354 422.309L108.111 405.743C108.087 404.329 107.662 402.42 107.771 400.861C107.978 397.78 107.893 394.892 107.771 391.799C107.504 384.694 107.99 377.782 108.245 370.508C108.293 368.961 109.215 366.992 109.907 365.626C108.111 363.717 106.91 361.361 107.177 358.763C107.529 355.489 107.468 352.456 107.674 349.133L108.184 340.759L107.966 330.476L107.941 326.078L114.47 331.926C115.865 333.171 117.103 334.464 118.584 335.636L123.013 339.128L131.714 346.064C133.498 347.489 136.386 348.674 137.963 350.184L140.852 352.951L142.563 356.395C148.035 362.134 146.652 358.811 151.47 364.152C149.929 359.512 151.979 351.284 149.783 348.686C149.467 346.583 150.098 343.031 150.208 340.53L150.693 329.969L161.141 330.223C163.52 330.283 176.359 330.367 177.973 330.198C180.46 329.92 182.523 329.498 185.011 329.703C186.589 329.836 187.838 329.51 189.234 328.579L192.547 329.522C192.523 333.799 192.608 337.593 192.838 341.992C192.959 344.372 192.049 347.381 192.316 349.725C192.838 354.377 194.331 358.956 193.833 363.608C192.777 373.432 192.292 382.772 193.372 392.669L193.396 392.657ZM190.083 379.244L190.023 386.011C189.998 388.754 190.265 391.521 190.557 394.409C192.826 393.539 192.134 391.787 191.673 390.143C189.78 383.292 193.069 385.817 190.083 379.244Z" fill="black"/>
<path d="M190.083 379.244C193.069 385.817 189.78 383.292 191.673 390.143C192.122 391.786 192.814 393.526 190.557 394.408C190.265 391.532 189.998 388.753 190.023 386.01L190.083 379.244Z" fill="#F3F3F3"/>
<path d="M163.362 9.81186C163.872 11.5398 164.042 12.2043 163.872 14.1739L162.585 28.5167C155.571 27.8159 153.727 29.6405 145.475 29.3384C143.934 29.278 142.575 28.9034 141.216 29.4713C134.493 32.2504 132.418 27.7071 122.528 30.0875L119.021 28.4925C117.334 29.7613 115.732 29.8338 114.203 29.0725L115.319 27.9005L117.2 28.3354C117.649 28.4442 118.414 27.5379 118.887 26.825L113.39 26.4988C112.261 26.4384 110.587 28.2871 110.271 29.1692L108.669 26.6075C99.7258 26.5834 90.6124 26.8492 82.0815 26.3417C79.521 26.1967 79.1691 22.7409 79.2297 21.2547C79.4846 14.2464 79.3753 7.86647 78.987 0.870275L86.9355 1.06361C87.8335 1.08778 89.86 1.69194 90.843 1.63152L98.5245 1.14817C100.782 1.00316 102.76 0.9911 105.017 0.979017L112.455 0.954864C114.616 0.954864 117.018 1.74027 118.681 2.53777C119.19 1.72819 120.586 0.338615 121.375 0.423198C126.653 1.00319 131.483 1.26901 136.519 1.19651L145.184 1.06361C150.353 0.991108 146.968 0.169417 152.768 0.0123347C155.438 4.48313 158.726 0.0969273 162.428 2.47732C163.447 4.44689 162.828 7.87855 163.411 9.82395L163.362 9.81186Z" fill="black"/>
<path d="M163.92 43.1735L175.546 34.9085C178.07 33.1202 180.278 31.7669 183.045 29.1207L182.329 58.205L182.074 62.3496C182.026 63.1954 182.475 64.9233 182.511 66.035L183.033 83.459L182.863 92.0502L183.494 104.085L182.863 126.753C178.616 127.092 174.247 126.632 169.866 126.548C167.221 126.499 164.988 126.874 162.221 126.524L169.976 125.617L165.595 125.352C161.615 125.11 157.367 125.448 153.703 126.101C152.95 125.823 151.36 125.267 150.547 125.267L102.08 125.339C100.806 122.621 100.551 119.878 100.563 116.893L100.648 90.2498C100.648 88.401 100.163 85.8031 101.849 84.6915L112.892 77.4294C112.055 76.2453 111.108 75.1457 110.077 74.4207L100.757 67.9441L100.636 62.0596L100.502 50.2784L100.806 31.6098L105.429 35.3073C108.33 36.6848 110.672 37.9656 113.171 39.8989L123.741 48.0793L133.146 54.9546L139.42 59.5342L147.295 53.7946C150.244 51.6559 152.95 49.1547 156.348 47.7047C159.115 46.5326 161.493 44.9014 163.908 43.1735L163.92 43.1735ZM181.577 119.346L181.31 125.122L175.558 125.533C177.269 127.104 180.193 126.56 181.65 125.291C182.815 124.288 182.317 120.917 181.577 119.334L181.577 119.346Z" fill="black"/>
<path d="M181.577 119.346C182.317 120.929 182.827 124.3 181.65 125.303C180.181 126.572 177.269 127.116 175.558 125.545L181.31 125.134L181.577 119.358L181.577 119.346Z" fill="#F3F3F3"/>
<path d="M191.807 261.529C192.207 269.541 193.056 257.904 192.28 269.867L191.612 280.113C191.321 284.548 193.493 296.232 192.717 301.525C187.147 300.86 183.761 303.76 180.46 303.023C175.206 301.839 170.412 301.73 165.267 302.625L162.051 300.909C160.328 302.576 159.042 302.383 156.154 301.803L158.241 300.546C159.637 300.945 161.008 300.824 161.772 299.567C158.666 298.963 154.819 298.468 152.61 300.8C152.489 301.017 152.004 301.718 151.967 301.525L151.579 299.241L128.826 299.132L129.457 305.766C129.602 307.325 130.61 310.382 129.809 311.639C125.78 317.922 129.966 314.829 127.916 322.526L121.508 322.888C120.101 322.961 118.693 323.299 117.686 323.879L105.818 322.864C104.082 322.719 102.274 322.707 100.612 322.731L93.0516 322.828L92.6268 319.058C92.4448 317.426 92.3841 316.085 92.4205 314.418L92.6026 306.455C92.6511 304.34 90.758 301.513 91.292 299.265C92.5419 294.057 92.6875 289.248 91.741 283.944L93.3913 280.476C91.9715 278.712 91.9351 276.803 92.4812 274.422L93.9617 276.295C93.6462 277.516 92.8331 279.376 95.0053 280.053C95.2237 277.697 95.4179 275.135 94.799 273.021C94.35 271.498 94.9204 270.544 94.9446 269.154L95.3815 239.731C95.4179 237.327 98.573 236.783 99.8836 236.807L104.459 236.88C108.487 236.952 112.468 237.049 116.412 236.807C120.756 236.541 124.615 236.686 129.081 237.061C129.457 239.236 128.522 241.35 128.583 243.187L128.947 253.869L137.672 253.941C139.759 253.953 142.308 254.799 143.861 255.427C145.002 253.796 146.422 253.24 148.375 253.422L155.195 254.086C155.717 254.134 170.607 254.11 172.33 254.026C179.113 253.699 174.49 253.035 180.557 253.047C184.671 257.409 185.484 253.264 191.479 255.234L191.794 261.529L191.807 261.529ZM94.8961 290.855C95.1752 288.306 95.0417 285.962 94.7262 283.291C91.8016 284.04 93.7554 285.418 93.8525 286.663C93.9738 288.258 93.9738 289.671 94.8961 290.855ZM172.706 299.302C169.223 299.314 167.172 299.435 164.927 299.712C165.558 302.588 167.185 300.558 168.313 300.534C170.146 300.498 171.65 300.305 172.706 299.302Z" fill="black"/>
<path d="M94.8961 290.855C93.9738 289.671 93.9617 288.258 93.8525 286.663C93.7554 285.43 91.8138 284.041 94.7262 283.291C95.0417 285.962 95.1752 288.294 94.8961 290.855Z" fill="#F3F3F3"/>
<path d="M172.706 299.301C171.65 300.304 170.146 300.498 168.313 300.534C167.185 300.558 165.558 302.588 164.927 299.712C167.172 299.434 169.223 299.326 172.706 299.301Z" fill="#F3F3F3"/>
<path d="M80.8194 384.247C87.6757 391.038 84.4357 390.313 88.6951 394.59C89.2897 401.695 87.9427 406.263 88.7679 413.73L89.9207 424.303L90.394 429.426L85.5035 429.257C74.4728 433.631 75.4921 427.759 63.3935 431.251L60.2748 429.571C58.2482 430.574 56.161 430.961 54.3893 430.417L55.9304 429.088C56.1489 428.895 56.8284 429.209 57.4473 429.33C58.0662 429.451 59.3525 428.653 59.571 428.001C56.3066 427.469 53.1879 427.602 50.9672 429.124C50.6517 429.946 50.4697 430.381 50.3847 430.127L49.6445 428.013L21.8431 428.617L18.9064 426.961C17.9356 420.291 18.8093 417.355 18.1176 409.042C17.8385 405.574 17.7536 402.517 18.0812 398.94C18.2268 397.37 19.2341 395.581 19.7195 394.131C20.7509 391.05 21.7217 388.452 23.9182 385.987L24.5856 384.175L29.9978 379.402C31.9637 377.674 38.8322 374.097 41.6354 375.584C41.9387 373.421 43.492 372.273 45.6763 372.297L54.098 372.369C55.7241 372.381 58.3574 372.188 59.7772 372.587L69.7765 375.378L73.8175 376.719C75.0067 377.118 76.8634 378.181 77.191 379.269C77.907 381.661 79.169 382.604 80.8073 384.223L80.8194 384.247Z" fill="black"/>
<path d="M73.1986 336.966L73.2472 340.857C73.32 347.841 74.4728 354.245 73.9389 361.954L55.081 345.436C54.0981 344.578 51.4162 343.805 50.3362 343.056L46.453 340.349C46.1496 343.309 46.0647 345.291 46.3195 347.961L47.3389 358.655L47.8728 363.331C44.0867 362.256 33.3229 363.948 32.971 363.935L22.5955 363.803L21.9766 358.861L20.5811 347.478C20.1928 344.336 19.9136 341.485 19.9622 338.234C20.0107 334.984 18.9307 331.287 20.2292 328.785C21.297 326.719 21.0058 324.508 19.7559 322.538C19.9622 321.741 20.3384 320.025 20.2777 319.07L19.0885 300.752C20.2534 300.486 21.4791 301.018 22.3892 301.852L32.8132 311.41C40.0457 318.043 36.5629 316.75 47.3995 321.693C47.2903 313.621 46.5865 306.214 45.6035 298.336C49.1227 298.916 53.8554 298.601 57.1804 298.275C57.5202 298.239 58.491 298.626 58.7943 298.626C59.0977 298.626 59.5103 298.034 59.8501 297.647L70.9415 298.034L72.4948 311.18C72.7496 313.307 73.1622 315.832 73.2593 317.85L73.9025 330.405L74.1209 334.658C74.0117 335.044 73.2108 336.47 73.2108 336.929L73.1986 336.966Z" fill="black"/>
<path d="M74.5335 270.677L74.6912 287.629L64.1702 288.306C62.1072 288.439 60.0078 288.802 57.9206 288.693C54.7534 288.524 51.9016 288.584 48.7951 288.693L42.9945 288.874L42.048 287.654C41.6839 287.194 39.7302 288.173 39.1477 288.089C38.1283 287.932 36.1989 287.569 34.9247 287.593L16.7464 288.028C15.7392 288.004 15.1082 285.225 15.0718 284.198L14.6956 270.532C14.6349 268.26 14.647 265.698 14.6834 263.717C24.1366 263.91 28.2747 262.508 37.7158 263.246C38.9899 263.342 40.1792 262.919 41.332 262.835C49.1955 262.279 56.8163 263.016 65.2259 261.868L68.6601 262.484L73.8297 262.593C74.0845 265.445 74.5214 268.091 74.5456 270.665L74.5335 270.677Z" fill="black"/>
<path d="M71.3055 97.318L68.9028 100C69.3154 101.97 69.1212 103.408 67.9563 105.377L66.7428 103.637C67.4951 102.369 68.0169 101.172 67.4102 99.8192C66.3666 101.511 65.2137 103.65 65.0317 105.329C64.7769 107.552 63.8789 107.589 62.7018 109.039C56.9862 116.083 49.1833 121.472 39.7908 121.472C38.0798 126.68 25.7506 119.672 22.9231 117.92C17.3046 114.44 15.7027 111.274 13.0088 105.776C12.0986 103.915 11.0914 102.115 10.3148 100.121L8.87072 96.448L7.86351 90.1163C7.46305 87.603 7.65721 80.4497 10.242 78.9514C9.75657 78.3231 8.66442 77.2114 8.53093 76.4985C8.39745 75.7856 9.06488 74.3236 9.4532 73.5623L12.402 67.8832C14.465 63.9078 16.9405 60.7057 20.4475 57.7333L24.6584 54.1687C30.8837 48.9125 27.2432 53.3108 35.8712 51.5467C44.4021 49.7946 43.6134 52.2596 47.5208 50.8217C53.7947 53.4679 58.6851 58.3253 63.1872 63.2432C67.4345 67.8711 68.4417 69.6957 70.0071 75.846C70.5046 77.7793 72.9074 80.2081 72.6404 82.3589C72.0094 87.3976 71.5725 91.7355 71.2934 97.3059L71.3055 97.318Z" fill="black"/>
<path d="M57.9449 133.012L58.7822 135.465C60.2141 130.245 56.5008 131.345 59.6438 126.801L74.9218 126.463C75.9897 126.439 76.9848 128.372 77.009 129.375L77.3003 143.379L78.0162 160.961C78.1012 163.063 77.4459 166.41 77.7371 168.186L78.3075 171.618L78.3682 181.937L67.6165 182.469L57.8478 182.626L49.0135 182.662C41.6839 182.698 34.4514 183.822 26.952 183.109C25.5443 182.976 24.0153 183.532 22.826 183.568L8.4096 183.991L7.70577 169.938L8.17904 163.244C8.21544 162.797 8.27612 161.77 8.42174 161.444C8.54309 161.166 16.2731 160.501 16.6736 160.501L28.6873 160.538L26.236 155.112L24.1852 150.412C22.9353 147.548 25.702 146.183 27.7771 145.337L36.1503 141.893C36.8663 141.603 38.4317 142.413 38.7108 143.089L41.3805 149.469C42.7154 152.647 44.2201 156.357 45.919 159.1L55.3237 159.136C56.1853 159.136 57.7507 159.341 58.0541 158.737C58.3575 158.133 58.3696 156.49 58.2968 155.644L57.7264 149.179L57.6294 138.437C57.6172 136.927 57.7628 135.695 57.957 133.012L57.9449 133.012Z" fill="black"/>
<path d="M78.1254 204.17C80.4311 210.864 76.2809 208.617 76.4994 215.819L76.7421 223.902C76.7785 225.183 77.3003 227.334 77.4823 228.542C76.8391 236.771 75.3587 242.269 75.8077 250.969C75.929 253.349 76.1353 255.27 75.5892 257.542L69.0484 255.464C66.9127 254.787 65.0924 254.038 62.9081 253.132C61.015 252.346 57.4352 253.132 55.5421 251.947C50.6396 248.878 45.7491 247.102 40.2156 245.978L38.3953 243.815C37.9706 243.308 36.0775 244.118 35.4344 243.9L31.7574 242.655L34.3907 241.495C35.1431 242.063 35.8591 242.619 36.3445 242.788C36.8299 242.958 37.7643 242.402 38.3468 241.967C35.1188 240.541 30.2042 238.015 28.2747 241.085L28.3718 238.281L2.1052e-05 228.156C0.327667 227.418 0.364072 226.621 0.218452 225.57C1.63825 224.639 3.93178 223.226 5.71563 222.489C16.3338 218.066 21.5761 213.595 31.4177 210.707L39.9243 206.225L40.9679 205.028C45.9918 203.723 53.6127 197.537 59.4375 198.105C59.7045 195.688 61.1242 194.721 63.2236 193.96L68.5873 192.015C70.4197 191.35 72.0943 190.492 73.8054 189.586L78.7686 186.94L78.2589 192.438C78.089 194.238 78.0526 196.401 78.0648 198.237L78.1012 204.182L78.1254 204.17ZM42.7761 245.217L48.8921 245.894C40.8345 241.411 39.4875 244.855 42.7761 245.217Z" fill="black"/>
<path d="M42.7761 245.217C39.4753 244.854 40.8223 241.411 48.8921 245.894L42.7761 245.217Z" fill="#F3F3F3"/>
</g>
<defs>
<clipPath id="clip0_379_605">
<rect width="511" height="202" fill="white" transform="translate(2.23365e-05 511) rotate(-90)"/>
</clipPath>
</defs>
</svg>
