<svg width="120" height="120" viewBox="0 0 120 120" fill="none" xmlns="http://www.w3.org/2000/svg">
<g clip-path="url(#clip0_379_506)">
<path d="M94.37 119.65L49.77 96.67L0 94.37L34.34 53L25.29 0L60.3 29.06C64.34 32.41 69.64 33.83 74.81 32.95L119.66 25.29L99.32 60.78C95.61 67.26 93.71 74.61 93.82 82.07L94.37 119.66V119.65Z" fill="black"/>
<path d="M94.37 119.7L53 85.3598L0 94.4198L34.34 53.0498L25.29 0.0498047L60.3 29.1098C64.34 32.4598 69.64 33.8798 74.81 32.9998L119.66 25.3398L92.42 52.9698C84.28 61.2198 81.21 73.2098 84.36 84.3698L94.37 119.71V119.7Z" fill="#00938A"/>
</g>
<defs>
<clipPath id="clip0_379_506">
<rect width="119.65" height="119.7" fill="white"/>
</clipPath>
</defs>
</svg>
