<svg width="100%" viewBox="0 0 1186 1103" fill="none" xmlns="http://www.w3.org/2000/svg" style="display:block">
<g clip-path="url(#clip0_2003_394)">
<g id="pupil1" clip-path="url(#clip1_2003_394)">
<path d="M496.82 683.981C509.589 679.274 516.835 673.413 525.811 663.298C531.777 655.578 532.505 647.522 533.943 638.196C534.434 625.193 531.987 622.037 525.634 611.326C512.466 598.301 513.588 598.035 498.057 591.527C489.111 590.451 480.353 591.225 471.452 592.057C463.717 594.077 454.69 599.096 448.56 603.901C438.759 613.946 438.478 616.563 435.478 629.534C434.345 636.895 435.44 643.848 436.539 651.1C438.93 661.309 442.43 665.239 449.444 672.314C456.524 678.172 463.005 681.865 473.132 684.688C481.138 686.025 488.86 684.911 496.82 683.981Z" fill="black"/>
</g>
<path d="M383 729L240 977L202 1023L205 1053L315 982L424 914L459 876L460 787L562 762L651 780L782 894L881 975L855 861L814 749L825 707L969 677L970 620L872 588L845 570L836 562L762 542L618.75 639.5L685.218 590.888L776.763 594.011L819.161 650.22L795.563 673.504L756.958 690.4L708.247 697.249L681.762 694.968C668.118 688.501 754.658 774.173 655.436 683.743L638.703 672.8L634.438 654.062L531.554 511.967L525.393 576.004L573.345 655.405L538.866 684.885L496.022 695.879L448.719 682.253L392.107 636.007C379.679 623.738 452.732 571.715 440.688 560.214C423.161 543.477 377.579 590.841 360 574L124 655L238 693L330 713L383 729Z" fill="#F5F5F5"/>
<path d="M613.091 0C609.741 0.362091 607.563 3.41098 606.083 6.433C605.291 8.89722 605.256 9.17076 604.231 12.4317L603.479 5.47222C601.598 6.68137 601.598 6.68137 600.924 9.10369C596.101 27.5252 593.462 46.4423 589.161 64.9583C585.886 86.4408 579.843 106.568 574.974 127.602C572.696 138.555 571.429 144.112 567.433 158.635C566.528 161.755 555.418 201.66 553.317 213.128C552.935 212.097 547.974 243.526 542.855 263.482C542.855 263.482 541.49 270.228 540.493 274.225C538.645 274.351 537.521 277.031 536.081 276.021C535.803 287.731 532.798 306.286 528.947 314.522C528.947 314.522 520.545 362.025 520.524 362.013C519.912 364.104 514.108 396.877 511.209 409.038C509.91 412.671 508.262 418.966 507.257 424.392C502.919 423.484 495.278 415.464 483.594 404.982C474.297 398.26 466.313 390.055 457.543 382.652C456.305 381.677 455.068 380.7 453.832 379.722C452.029 378.204 450.201 376.713 448.323 375.288L445.233 374.616L445.018 372.628L439.553 371.617C432.47 363.009 423.324 356.424 415.273 348.686L412.183 348.014C412.159 345.593 410.34 344.248 408.72 342.731C406.907 341.001 382.228 326.627 378.835 323.896C376.049 321.68 374.385 319.114 370.749 318.295C368.86 312.881 351.975 299.262 343.314 289.412C333.445 279.349 315.179 256.933 305.489 246.696L303.715 244.823C299.585 240.471 295.411 236.159 291.548 231.566C289.378 228.913 287.189 226.286 284.92 223.717C280.307 218.953 273.451 214.037 266.844 213.804C264.916 213.802 257.95 215.272 257.95 215.272C254.078 217.76 252.884 219.805 249.097 230.214C250.107 233.239 251.221 237.577 253.245 241.101C249.65 255.31 252.554 267.327 257.873 280.662C259.664 285.147 260.531 289.777 261.969 294.221C266.154 310.631 292.191 349.417 298.362 365.576C300.895 371.299 302.57 376.531 307.818 387.458L310.908 388.13L312.117 390.011L310.128 390.226C310.363 391.564 310.616 392.898 310.876 394.232C312.126 399.848 318.955 407.518 319.13 408.364C318.487 414.478 320.096 420.415 322.058 426.152C328.134 430.005 331.352 439.522 335.251 445.848C337.332 450.435 337.382 450.869 340.003 454.566C344.143 468.59 348.145 472.514 352.12 484.14C362.009 506.863 356.819 501.454 365.545 518.363C369.878 527.662 371.046 529.127 374.117 534.463L374.928 537.588C372.135 538.82 369.805 540.229 368.65 540.809C366.693 542.67 364.717 543.437 362.938 544.853C357.758 545.637 313.312 565.086 310.737 565.677C308.057 566.469 308.057 566.469 305.056 568.365L302.414 570.097L300.426 570.312L297.55 571.628L295.53 571.035L291.856 572.099L296.664 572.73C292.068 572.929 292.068 572.929 282.96 576.223L284.276 579.098C282.18 578.319 280.307 578.025 278.096 577.755L277.317 579.85L276.215 578.964C271.524 580.817 266.936 582.835 262.356 584.949C251.802 589.833 241.31 594.775 230.307 598.573C227.407 599.519 227.407 599.519 225.242 600.567L224.57 603.657L222.474 602.878L221.802 605.968C219.706 605.189 219.706 605.189 217.8 605.332C215.789 605.608 213.771 605.83 211.752 606.048L210.651 605.161C213.526 603.845 213.526 603.845 215.299 601.642C212.07 601.836 209.597 602.166 206.639 603.521C203.957 604.749 201.835 605.352 198.977 605.92C195.608 606.522 194.749 606.876 191.976 609.192L192.406 613.169L189.423 613.491L189.101 610.508L187.012 610.884L184.294 611.405C181.591 611.91 181.591 611.91 179.266 612.577L177.493 614.781L174.402 614.109C173.424 615.891 173.424 615.891 171.742 617.414C171.742 617.414 133.656 627.335 127.755 629.209L127.97 631.198L122.999 631.735L123.214 633.724C121.118 632.944 121.118 632.944 118.262 633.489L114.861 634.375C111.472 635.229 111.472 635.229 108.408 636.33C107.212 637.491 105.997 638.632 104.754 639.742L102.427 639.593C99.6753 639.285 99.6753 639.285 96.2984 640.177C86.6404 643.467 77.284 645.695 67.2257 647.319C63.5984 647.883 55.5854 653.15 52.1412 655.488C48.1644 655.917 48.1644 655.917 46.2585 656.968C41.4941 660.131 37.2885 661.66 31.6636 662.652L29.8118 662.93L31.9076 663.71L32.3375 667.686C30.0134 667.894 27.6932 668.148 25.3781 668.439C23.3723 669.788 23.3723 669.788 20.5044 671.04L17.7468 672.281L18.0692 675.264C14.7137 675.626 11.4578 679.018 11.4321 678.999C11.4321 678.999 13.7322 681.667 15.167 685.636L16.4836 688.511L19.5244 689.904C22.004 689.811 24.7832 689.688 24.7832 689.688C26.6346 688.272 26.6346 688.272 29.4084 687.114L30.4602 689.718C30.4736 692.169 29.1349 694.891 29.1349 694.891C39.8162 696.154 37.5455 697.924 44.7505 697.722C44.7505 697.722 96.1705 697.851 99.4226 698.122C109.553 699.144 133.827 703.99 133.827 703.99C149.606 708.256 148.588 707.01 155.407 708.988C160.015 711.389 168.704 712.596 181.172 713.96C185.988 714.21 190.808 713.555 195.651 713.817C198.527 706.31 204.646 719.633 213.202 712.509C208.883 712.788 207.722 712.193 206.394 711.592C204.743 710.845 202.068 709.709 202.068 709.709L208.684 710.782C218.285 709.078 228.828 709.459 239.504 713.779L221.125 711.839C217.723 712.239 213.385 715.087 211.175 716.508C213.585 717.382 233.968 720.736 243.109 719.335C248.558 719.175 251.281 719.249 256.248 719.926C261.505 720.915 278.969 723.289 279.76 723.419C286.863 726.508 304.058 727.285 308.35 727.37C310.441 728.787 327.028 731.511 334.065 732.637C334.065 732.637 373.359 738.781 371.254 741.693C371.596 741.682 361.714 755.799 361.714 755.799C359.425 758.911 357.865 761.376 357.711 765.285L360.478 762.974C360.478 762.974 358.942 767.105 358.092 769.393L357.361 771.357C355.547 772.798 355.547 772.798 353.32 772.36L351.396 772.002C344.1 785.374 343.428 781.971 330.698 803.298C328.77 807.151 327.069 810.295 325.675 814.255C324.291 816.997 324.05 818.382 322.429 820.396L323.88 815.21C321.891 815.424 321.891 815.424 320.452 816.649C319.231 818.73 319.231 818.729 319.041 822.208C318.996 825.364 304.118 846.358 306.149 848.763C305.915 848.21 310.494 844.26 312.767 845.72C309.577 845.989 308.13 848.254 306.513 850.671C303.315 857.883 303.373 858.063 301.163 862.533C299.06 865.685 287.901 882.418 285.976 885.639C276.04 902.458 223.217 978.633 220.31 983.705C217.498 986.807 216.808 987.616 216.421 991.921L216.521 995.179L213.646 996.495C211.643 997.152 211.643 997.152 209.777 997.919C207.809 1000.36 205.774 1002.51 203.462 1004.64C201.334 1005.31 201.339 1005.35 199.597 1006.1C194.544 1018.15 198.238 1014.77 196.714 1017.74L193.923 1018.74L194.245 1021.73L187.259 1031.53L188.576 1034.41L186.587 1034.62C182.163 1044.29 178.639 1059.99 178.087 1062.46L177.73 1075.6C177.73 1075.6 187.093 1068.52 206.323 1059.02C209.961 1056.47 213.443 1053.81 216.9 1051.02C224.221 1044.97 222.582 1052.43 227.753 1043.25L228.075 1046.23C231.996 1038.48 279.498 1020.14 284.413 1010.28L286.169 1006.76C290.202 1007.17 297.741 1000.3 297.945 999.39C312.314 988.186 328.887 980.164 346.153 974.74C349.866 970.013 349.866 970.013 355.719 967.423C362.4 964.279 368.985 961.022 375.469 957.489L375.254 955.501C377.243 955.286 377.242 955.286 379.051 954.536L381.21 953.537L383.55 952.459L385.992 951.323C388.827 950.014 391.662 948.703 394.494 947.386L394.279 945.398C397.795 945.457 399.451 944.737 402.493 942.876C404.932 941.205 407.364 939.693 409.948 938.247C412.91 936.629 476.674 893.685 476.877 893.596C478.999 892.762 478.999 892.762 481.017 891.766C483.23 889.691 485.177 888.028 487.754 886.37L491.22 884.377C494.464 882.429 516.415 866.892 520.195 863.391C520.195 863.391 522.962 861.08 524.368 859.545C527.386 854.781 532.758 852.733 537.18 849.548C538.887 848.277 540.565 847.106 542.408 846.04C554.848 836.164 569.551 830.433 582.595 821.882C584.813 820.22 586.726 819.008 589.304 817.974C593.786 817.731 593.786 817.731 597.958 819.781C600.211 821.595 624.158 835.093 624.158 835.093L635.55 841.87C643.178 846.47 647.43 848.113 655.523 853.063C657.401 854.233 659.279 855.404 661.154 856.578C664.087 858.461 666.74 860.303 670.194 861.047C678.823 865.682 686.651 877.925 696.278 880.304L698.05 880.376L698.265 882.364C702.067 885.635 706.497 887.928 710.983 890.105C728.397 899.665 742.954 914.105 758.861 925.351C769.702 932.436 773.655 937.547 779.16 938.818L780.81 938.82L781.025 940.808L783.014 940.593L783.229 942.582C786.428 944.54 789.449 946.631 791.898 949.503C791.898 949.503 794.23 949.775 795.911 948.252C798.575 948.195 798.575 948.195 800.99 948.708C801.623 952.913 801.727 956.564 805.155 959.322C809.006 960.361 811.17 964.279 813.081 967.518L816.064 967.196C826.748 971.991 833.865 982.609 844.017 987.937C852.665 991.654 852.354 996.261 856.762 998.252L858.707 998.796C858.922 1000.78 858.922 1000.78 860.794 1002.4C866.183 1007.46 877.504 1015.17 881.17 1020.51L884.153 1020.19C884.772 1024.08 887.345 1029.23 891.413 1030.21L893.289 1030.26C894.677 1034.9 897.169 1037.92 900.918 1040.94C903.79 1043.11 903.79 1043.11 905.97 1045.8C907.321 1047.47 908.687 1049.12 910.098 1050.73L911.94 1052.76C913.663 1054.67 913.663 1054.67 915.188 1056.06L917.176 1055.84C917.499 1058.83 925.64 1069.01 925.64 1069.01L923.759 1070.22L924.189 1074.2C925.831 1077.61 925.831 1077.61 932.116 1082.39L931.578 1077.42C932.969 1078.65 932.969 1078.65 934.883 1080.08C938.646 1080.8 940.775 1083.48 942.857 1086.39C943.952 1087.9 945.041 1089.41 946.115 1090.94C944.685 1089.71 943.212 1088.53 941.708 1087.39L939.72 1087.6L939.505 1085.62L937.839 1088.81C938.708 1091.71 940.746 1092.47 943.347 1093.25C943.313 1096.53 943.606 1096.46 945.747 1098.58C945.747 1098.58 949.625 1098.12 949.644 1098.14C955.073 1099.66 961.038 1101.45 966.51 1102.81C968.176 1099.62 968.176 1099.62 967.663 1097.86C967.156 1096.48 966.762 1094.04 964.32 1092.41C955.774 1083.33 958.684 1074.61 955.693 1065.81L954.761 1063.91C953.69 1061.66 952.611 1059.41 951.517 1057.16L948.534 1057.48L947.217 1054.61L944.127 1053.94L943.805 1050.95L941.709 1050.17C941.654 1047.92 941.654 1047.92 941.172 1045.2C936.687 1040.88 934.287 1035.05 933.379 1028.95L934.159 1026.85L933.338 1025.19C929.614 1019.32 926.751 1013.18 923.948 1006.83L924.835 1005.73L922.739 1004.95L922.309 1000.97L920.213 1000.19C915.178 982.74 913.5 987.053 905.946 970.556C900.371 955.805 900.25 963.708 899.206 955.317C898.921 951.263 897.789 948.186 896.084 944.465C895.399 942.989 894.717 941.512 894.034 940.034C892.612 937.121 891.505 934.083 890.603 930.976C889.016 927.51 888.05 924.007 887.433 920.254C888.166 914.943 886.66 912.093 884.047 907.545C884.047 907.545 881.874 904.888 881.414 901.794C878.942 900.212 878.942 900.212 878.804 897.424L878.673 895.05L875.69 895.372C875.328 892.017 875.328 892.017 873.514 884.543L870.532 884.866C870.317 882.877 870.316 882.877 869.117 880.18L867.493 876.782C866.288 874.246 865.081 871.711 863.87 869.178C845.557 833.226 842.271 799.539 835.011 760.965C835.011 760.965 832.001 740.087 832.168 739.899C832.178 740.205 831.2 730.147 831.328 725.268C831.402 722.464 830.88 720.377 830.729 718.987C830.169 718.374 831.257 718.172 832.675 718.06C842.277 717.304 879.21 715.33 879.21 715.33C879.21 715.33 900.043 714.269 910.465 713.838C910.628 713.77 941.229 714.717 955.797 712.436L957.902 712.038C959.319 711.782 960.735 711.525 962.152 711.268L965.36 710.666L975.564 710.279C978.547 709.957 1019.03 707.523 1021.36 707.63C1025.38 708.87 1028.04 709.915 1032.25 709.533C1035.48 708.907 1035.48 708.907 1038.05 709.779C1053.85 714.288 1087.3 710.05 1106.71 713.653C1112.71 712.839 1139.25 713.62 1145.49 714.232C1148.19 714.583 1179.16 715.778 1185.96 712.109L1182.98 709.649C1182.42 709.396 1177.04 706.41 1169.87 700.002L1167.72 696.891C1167.72 696.891 1161.24 689.563 1146.98 682.152L1144.75 681.596L1144.53 679.607C1141.25 678.893 1138.87 677.885 1135.93 676.2C1132.14 673.988 1105.9 659.944 1105.9 659.944C1107.51 661.73 1109.1 663.252 1109.57 665.306L1103.66 659.506C1100.95 657.398 1100.95 657.398 1092.88 654.574C1090.83 653.858 1088.8 653.103 1086.79 652.278C1086.79 652.278 1079.32 649.02 1076.19 647.656C1067.79 643.47 1037.33 632.183 1035.28 631.695C1027.41 627.673 1024.7 621.252 1018.52 619.111L1015.66 617.722C1015.66 617.722 992.953 610.222 990.678 609.472C985.737 608.327 981.15 606.8 976.493 604.819C970.307 602.181 964.901 600.198 958.081 599.963L956.414 599.986L956.199 597.998C951.45 596.232 946.68 594.638 941.727 593.551C920.377 587.562 920.697 588.644 900.609 578.843C897.475 576.476 873.866 570.704 869.848 570.305L858.479 564.441C847.644 560.995 836.271 557.672 826.469 551.671C826.674 546.475 826.92 550.573 826.996 539.104C827.034 525.725 831.963 520.022 832.085 519.884C834.125 516.448 835.8 513.446 835.982 509.404L833.993 509.619L832.149 512.333L830.554 515.02C831.574 512.964 832.598 510.909 833.624 508.856L834.893 506.316C837.418 501.229 839.762 497.888 839.762 497.888C838.991 500.027 836.62 504.28 837.936 507.155C842.516 498.683 851.373 489.684 850.952 479.427C851.146 474.538 851.146 474.538 853.878 470.254L856.03 468.356C856.076 466.331 857.556 465.842 857.21 463.859C860.494 462.355 861.647 461.119 863.632 458.136C863.8 454.93 864.081 453.073 865.564 450.163C872.226 437.963 879.35 426.665 886.449 414.493C887.966 411.898 889.366 409.429 890.479 406.636L891.067 404.879L893.056 404.664L893.974 402.655L895.133 400.039C896.302 397.437 900.607 390.772 900.607 390.772C903.504 388.853 905.095 387.541 906.802 384.476L908.02 381.421C909.284 378.361 909.284 378.361 910.038 375.671C910.038 375.671 913.108 366.825 914.894 363.493L916.273 358.904L918.261 358.689L918.046 356.701L920.035 356.486C921.578 352.025 922.423 349.159 926.737 346.96L929.896 345.361L930.568 342.271L930.138 338.295C933.854 338.095 934.899 337.933 937.877 335.446L935.781 334.667L936.453 331.577C939.808 331.214 941.558 322.979 941.558 322.979C943.838 318.018 949.252 312.182 951.877 306.776L953.328 301.59C953.665 300.245 953.777 298.881 953.892 297.506L957.869 297.076C959.419 295.714 959.419 295.714 960.529 293.771C960.707 290.145 960.796 288.941 963.079 285.951C965.471 283.731 966.451 280.742 967.865 277.89C969.464 277.075 971.051 276.235 972.621 275.365C973.027 273.69 973.03 271.996 973.078 270.286C974.903 264.105 977.638 260.03 982.948 256.332L985.492 254.863L985.278 252.874C989.534 252.097 989.505 244.189 989.505 244.189C990.803 241.66 988.637 237.424 988.637 237.424L989.308 234.334L994.951 230.706C991.971 230.359 989.727 229.888 987.04 231.373C982.911 233.832 982.911 233.832 978.372 235.516C974.053 236.485 971.224 238.549 967.798 241.23L965.775 242.85C963.35 244.729 960.837 246.527 958.676 248.709L958.891 250.697C956.559 250.949 956.559 250.949 952.254 254.432C951.306 255.467 950.347 256.492 949.38 257.509C946.52 260.128 942.978 261.699 938.582 264.095C933.995 267.646 927.694 269.157 926.031 271.222C924.246 273.817 924.246 273.817 920.961 274.914C916.084 276.82 916.084 276.82 903.401 286.933C896.636 292.344 903.342 286.793 870.809 310.51C869.181 310.998 867.558 311.506 865.945 312.041L864.279 315.239C861.38 318.063 858.47 320.855 854.384 321.4C851.408 321.647 851.408 321.647 846.721 324.838C844.313 326.481 841.871 328.061 839.416 329.633C837.732 330.71 836.05 331.791 834.368 332.872L831.201 334.907C827.447 337.298 737.879 406.727 735.568 408.612C733.082 411.784 730.86 414.477 727.592 416.829L724.605 418.849L724.82 420.838L722.831 421.053C719.305 423.357 716.731 425.248 714.085 428.536C709.491 434.243 704.389 436.654 697.6 438.867C696.205 431.419 694.23 424.625 689.378 418.634C689.009 415.947 673.119 363.75 673.119 363.75L667.971 345.636C667.012 337.726 666.535 332.911 662.673 324.632C658.485 315.604 656.971 305.622 654.776 295.966C654.001 292.465 653.117 289.91 651.008 286.995C651.851 307.001 660.323 326.418 665.41 345.788C666.229 351.093 668.656 361.648 668.656 361.648C663.606 359.637 664.481 355.679 663.959 350.973C659.71 344.364 657.938 334.442 657.191 326.748C657.077 325.022 655.943 323.346 655.762 321.626C654.899 319.416 642.522 279.962 645.849 276.488C644.154 273.196 646.134 273.746 642.679 265.767L640.476 263.993C640.654 260.901 641.262 256.121 640.194 253.174C639.379 249.318 638.739 241.391 638.739 241.391L636.956 222.129L635.398 226.321L634.86 221.35L632.872 221.565C633.142 217.924 633.186 214.819 632.385 211.245C629.703 201.76 628.599 192.257 627.639 182.463C624.401 149.396 623.38 162.438 623.968 153.457C621.794 141.025 618.087 128.606 618.967 117.649C620.069 111.704 621.262 105.702 620.826 99.6534C619.758 92.2612 620.79 81.8719 618.552 61.1749L617.595 60.5766L617.236 58.2997L617.585 52.227C618.5 46.2829 613.283 20.5265 614.989 8.00148C613.728 6.64215 613.176 6.53535 612.884 3.86858L613.091 0ZM612.192 59.6543L614.124 62.3018C612.605 65.3291 612.692 65.3613 611.098 67.4262C611.455 64.9798 611.631 62.2754 611.361 59.8149L612.192 59.6543ZM610.142 67.1132L610.906 70.2081C611.544 74.019 611.963 72.8911 609.12 76.276L610.142 67.1132ZM292.241 241.034C294.392 242.765 295.453 244.24 296.863 246.57L293.666 244.904C292.725 242.934 292.725 242.934 292.241 241.034ZM591.518 239.111L593.614 239.89L590.739 241.207L591.518 239.111ZM591.948 243.088L593.936 242.873L594.151 244.861L591.948 243.088ZM284.573 247.431C287.702 249.553 293.339 256.218 294.283 259.924C294.283 259.924 290.215 257.724 289.255 256.445C288.319 255.209 284.573 247.431 284.573 247.431ZM302.479 251.998L303.473 251.89L303.796 254.873L302.479 251.998ZM256.907 267.681L260.346 271.639L266.15 288.111L262.54 284.171L256.907 267.681ZM538.395 278.045L540.383 277.83L539.604 279.926L538.395 278.045ZM265.693 293.19L267.681 292.975L268.004 295.957L265.693 293.19ZM292.287 336.834L294.49 338.608L293.711 340.704L292.287 336.834ZM358.738 346.75L361.72 346.428L362.043 349.411L360.833 347.53L358.738 346.75ZM296.425 356.503L298.413 356.289L299.73 359.164L297.741 359.379L296.425 356.503ZM372.092 349.33L373.086 349.223L375.505 352.985L371.635 354.409L372.092 349.33ZM302.82 359.836L304.244 363.705C302 363.109 302 363.109 300.939 361.045L302.82 359.836ZM305.668 367.574L306.662 367.467L307.862 370.091L309.391 373.521C311.081 377.269 312.246 378.997 311.364 383.052L309.484 384.261C308.067 381.548 308.067 381.548 306.85 378.511L307.522 375.42L305.858 373.4L304.11 371.766L305.668 367.574ZM387.731 363.733L389.719 363.518L390.928 365.399L390.149 367.495L387.731 363.733ZM600.611 341.664L602.035 345.534L600.047 345.748L600.611 341.664ZM606.334 348.086L607.758 351.956L605.77 352.171L606.334 348.086ZM378.756 373.756L383.055 376.308L379.186 377.732L378.756 373.756ZM397.968 374.696L398.962 374.589L399.285 377.571L397.968 374.696ZM594.807 362.408L596.795 362.193C596.709 365.378 596.709 365.378 595.451 368.373L594.807 362.408ZM408.206 385.66L410.301 386.439L408.421 387.648L408.206 385.66ZM590.979 383.002L591.973 382.895L593.612 388.752L591.516 387.973L590.979 383.002ZM595.95 382.465L597.374 386.334L595.278 385.555L595.95 382.465ZM601.565 387.893L603.661 388.672L602.103 392.864L601.565 387.893ZM592.832 390.848L594.928 391.628L593.047 392.837L592.832 390.848ZM603.527 396.733L604.521 396.626L604.172 402.698L602.183 402.913L603.527 396.733ZM328.238 427.496L331.329 428.168L330.657 431.258L328.238 427.496ZM511.818 413.687L513.134 416.562L511.146 416.777L511.818 413.687ZM510.582 420.861L511.398 422.596C512.341 424.981 512.341 424.981 510.34 427.928L510.582 420.861ZM621.127 419.976L623.115 419.761C624.483 423.004 622.64 419.381 639.048 483.418L634.185 484.949C630.201 481.721 630.688 477.717 631.901 473.126L629.912 473.341L630.692 471.245C628.204 469.64 628.204 469.64 627.991 466.689C627.73 463.639 627.444 460.592 627.199 457.541L625.21 457.756L621.127 419.976ZM604.367 422.242C604.612 422.158 605.525 425.446 603.876 427.876L602.344 423.012L604.333 422.797C604.294 422.44 604.315 422.268 604.365 422.244L604.367 422.242ZM892.089 395.716L894.077 395.501L893.298 397.597L892.089 395.716ZM602.425 433.062L603.419 432.954L603.956 437.925L602.962 438.033L602.425 433.062ZM637.601 427.357C639.428 433.11 640.258 436.934 640.715 443.004L637.5 442.269C635.945 439.434 637.171 440.384 637.503 437.128L638.315 432.213L637.601 427.357ZM637.732 443.327L640.822 443.999C642.282 447.186 643.057 450.326 643.885 453.726L641.897 453.941C641.113 453.412 640.412 452.779 639.694 452.167L639.719 445.79C639.399 444.647 638.587 444.087 637.732 443.327ZM612.313 450.098C614.463 451.829 615.524 453.303 616.934 455.633L612.85 455.069L612.313 450.098ZM609.867 455.391L610.862 455.284L612.151 467.214L610.055 466.435L609.867 455.391ZM641.118 456.037L643.106 455.822L645.524 459.584L641.655 461.008L641.118 456.037ZM614.382 459.932L615.376 459.825C617.802 472.298 620.9 491.998 623.106 504.513C623.106 504.513 617.152 488.121 616.665 484.816C616.466 483.459 616.266 482.103 616.066 480.747C615.865 479.415 615.664 478.082 615.463 476.75L614.897 472.882C614.237 468.438 613.989 464.412 614.382 459.932ZM644.638 460.685L646.734 461.465L646.062 464.555L648.05 464.34L647.271 466.436L646.062 464.555L645.39 467.645L643.402 467.86L642.757 461.894L644.638 460.685ZM608.174 467.644L609.169 467.537L609.921 474.496L607.825 473.717L608.174 467.644ZM862.692 440.133L864.68 439.918L863.901 442.013L862.692 440.133ZM861.912 442.228L863.229 445.104L861.241 445.319L861.912 442.228ZM647.378 467.43L648.588 469.311L645.605 469.633L647.378 467.43ZM626.822 472.669L628.811 472.454L628.139 475.544L626.822 472.669ZM644.826 471.729L646.814 471.514L648.238 475.383L646.357 476.593L644.826 471.729ZM608.362 478.688L609.357 478.581L609.894 483.552L608.9 483.659L608.362 478.688ZM606.132 485.97L607.126 485.862L607.986 493.816L606.105 495.025L606.132 485.97ZM628.043 479.661L629.037 479.553L629.789 486.513L628.795 486.62L628.043 479.661ZM608.389 506.848L609.705 509.723C611.842 508.272 611.842 508.272 614.461 507.198C616.816 507.714 616.816 507.714 618.653 508.756L615.778 510.073C614.819 512.251 614.819 512.251 614.22 514.265L617.202 513.942L617.417 515.931L615.429 516.146L615.644 518.134L612.876 520.445C611.369 523.592 611.369 523.592 609.436 525.846C607.597 519.137 607.421 513.725 608.389 506.848ZM759.723 492.502L763.7 492.072L766.011 494.839L761.577 500.348L758.272 497.688L759.723 492.502ZM593.576 618.087L595.779 619.86L595.988 622.014L595.903 624.499C595.863 625.972 595.816 627.444 595.752 628.916L594.758 629.023L591.023 622.386L593.576 618.087ZM692.815 524.88L695.019 526.653L690.048 527.19L692.815 524.88ZM740.833 531.759L742.821 531.544L743.036 533.533L740.833 531.759ZM743.816 531.437L746.906 532.108L745.132 534.312L743.816 531.437ZM533.796 561.179L535.891 561.958L533.016 563.275L533.796 561.179ZM186.333 612.819L188.429 613.599L186.548 614.808L186.333 612.819ZM671.507 560.375L675.591 560.939L670.727 562.471L671.507 560.375ZM180.475 614.458L182.464 614.243L182.678 616.232L180.475 614.458ZM705.955 562.686L705.283 565.777C695.554 566.828 695.776 569.128 680.643 570.452L680.32 567.469C686.932 565.413 688.35 564.955 690.047 564.406C696.076 562.072 699.708 561.038 705.955 562.686ZM500.691 589.903C504.585 591.652 508.436 593.441 512.567 594.548C516.851 596.381 519.784 598.28 523.761 600.36C528.477 602.817 529.908 603.488 533.11 606.933C534.21 607.784 537.288 612.099 537.288 612.099L540.854 615.57C542.324 617.608 543.334 619.248 544.22 620.402C546.339 623.53 546.518 624.49 548.889 627.515L551.368 630.693L568.645 650.954L571.171 655.71C566.938 659.125 562.69 662.518 558.408 665.871L555.999 667.723C552.491 670.421 548.909 672.464 544.928 674.385C543.02 675.297 541.144 676.22 539.302 677.26C535.483 679.723 532.762 681.499 528.796 682.419C525.002 684.185 521.501 685.549 517.397 686.448L515.199 686.906C506.906 688.087 498.606 688.659 490.237 688.598L486.469 688.589C481.667 687.414 478.313 686.206 473.973 684.775C471.559 684.07 471.305 683.264 469.259 682.943C467.745 682.763 466.411 681.863 464.904 681.632L462.278 681.185C458.603 680.581 455.708 679.303 453.368 678.144L450.83 676.996C449.726 676.56 448.262 675.541 444.342 673.443C442.277 671.78 440.537 670.517 438.165 669.254C432.636 666.423 425.101 660.575 420.554 659.781C420.311 659.739 419.903 660.241 419.903 660.241C419.905 660.241 419.629 659.073 419.026 658.265C418.585 657.673 415.925 655.576 415.096 654.98C413.349 653.591 411.866 652.471 409.053 649.974C407.452 648.837 404.256 644.711 404.256 644.711C401.896 643.334 398.171 637.228 398.171 637.228L398.509 633.601C398.98 630.711 401.937 628.71 402.517 626.387L405.428 623.677C422.969 606.659 445.275 586.794 492.76 590.709L497.32 588.943L500.691 589.903ZM662.962 574.374C660.991 576.822 659.215 577.722 656.432 579.104C658.071 576.314 659.693 574.385 662.962 574.374ZM430.317 599.522L432.413 600.301L430.639 602.505L430.317 599.522ZM653.449 579.426L654.659 581.307L650.789 582.731L653.449 579.426ZM350.269 631.308L353.252 630.986L353.467 632.974L350.699 635.285L348.603 634.506L350.269 631.308ZM731.758 593.781C731.59 592.227 734.866 593.44 736.425 593.339C739.515 594.011 739.515 594.011 741.947 593.245C745.831 592.621 745.831 592.621 749.679 593.785C753.287 594.842 756.795 595.913 760.528 596.415C775.005 604.885 782.454 609.738 782.454 609.738L784.443 609.523C785.774 610.852 785.774 610.852 787.098 612.568C788.467 614.294 788.467 614.294 790.166 615.945C793.335 617.285 795.137 617.964 797.242 620.743C799.587 624.854 801.908 628.755 805.032 632.325C810.099 637.63 813.86 642.565 816.901 649.265C815.655 650.013 814.423 650.784 813.188 651.552C807.707 655.724 801.814 659.285 796.003 662.965C792.885 664.853 790.178 666.293 788.507 669.661L788.123 671.486L786.027 670.707L783.909 672.052C778.206 676.347 772.81 679.474 766.116 681.911C762.249 683.344 758.291 684.536 754.508 686.184L753.728 688.28C752.067 688.414 750.41 688.599 748.757 688.817C743.442 690.655 743.442 690.655 737.851 691.442C714.026 694.88 715.792 694.842 715.69 694.879C700.119 696.878 685.818 694.689 671.197 689.144C666.07 687.165 661.01 685.157 655.678 683.791C651.213 685.476 647.997 685.835 647.128 685.532C643.621 684.049 641.919 682.821 640.12 679.438L655.873 683.914C649.697 679.506 643.338 674.949 639.195 671.792C638.868 666.909 637.484 664.387 637.219 659.635C636.297 652.723 637.701 646.367 640.9 640.126C653.386 618.616 668.482 593.204 726.229 594.424C728.076 594.244 731.958 595.626 731.758 593.781ZM210.301 648.45L213.283 648.127L213.498 650.116L216.481 649.793L214.708 651.997L211.617 651.325L210.301 648.45ZM355.563 633.754L356.879 636.629L354.998 637.838L355.563 633.754ZM808.143 586.844L810.131 586.63L810.346 588.618L808.143 586.844ZM611.397 609.117L613.493 609.896L611.612 611.106L611.397 609.117ZM364.376 640.848L365.8 644.717C361.823 645.147 361.823 645.147 359.197 646.437L357.067 647.673L352.661 644.126L358.841 645.469L357.524 642.594C359.768 641.958 362.051 641.099 364.376 640.848ZM665.515 577.323L667.503 577.108L667.718 579.096L665.73 579.311L665.515 577.323ZM341.939 647.296L345.029 647.968L343.148 649.177L341.939 647.296ZM550.723 624.728L551.717 624.621L553.141 628.49L550.723 624.728ZM346.024 647.861L349.114 648.532L345.244 649.956L346.024 647.861ZM392.807 643.711L396.999 645.269L396.327 648.359C394.403 649.305 394.403 649.305 392.458 649.783L391.141 646.908L394.231 647.58L392.807 643.711ZM397.107 646.263L400.304 647.93C401.245 649.899 401.245 649.899 401.728 651.799C398.619 649.848 398.619 649.848 397.107 646.263ZM343.981 666.186L347.958 665.756L350.161 667.53L345.19 668.067L343.981 666.186ZM599.708 640.555L601.696 640.341L602.018 643.323L599.708 640.555ZM364.295 668.014C369.778 670.052 375.873 670.671 381.672 671.165C385.043 671.383 386.637 672.071 389.123 674.382C386.285 675.998 386.285 675.998 383.082 675.232C379.377 674.497 375.683 674.04 371.929 673.628L369.463 673.364C367.81 673.184 366.157 673.004 364.505 672.824L360.748 672.42L360.533 670.432L364.51 670.002L364.295 668.014ZM599.251 645.634L601.239 645.419L601.454 647.407L603.443 647.193L603.765 650.175L601.992 652.379L602.477 656.286C602.804 658.377 602.804 658.377 602.851 660.332C601.741 662.473 601.741 662.473 600.191 663.637L597.101 662.965L598.337 655.791C596.451 656.372 596.451 656.372 594.468 657.215L593.688 659.311L594.145 654.232L598.28 650.579L599.251 645.634ZM147.83 702.177L152.717 701.948L152.932 703.936L146.859 703.587L147.83 702.177ZM571.386 657.698L572.595 659.579L570.607 659.794L571.386 657.698ZM843.857 630.15C844.195 630.102 844.609 630.066 845.161 630.019L847.611 629.789C849.063 629.649 850.515 629.511 851.968 629.381L851.296 632.471L854.064 630.161C856.237 630.236 856.237 630.236 858.148 630.725C857.99 632.977 858.259 635.097 856.804 636.905C854.072 638.474 854.072 638.474 851.465 637.848L848.715 637.088L845.961 636.368C843.233 635.178 842.451 634.178 841.139 631.557C842.501 630.547 842.841 630.294 843.857 630.15ZM813.301 634.566L815.397 635.346L813.516 636.555L813.301 634.566ZM172.489 706.435L176.228 705.442L176.551 708.424L164.771 706.984L172.489 706.435ZM395.277 684.781L397.265 684.566L397.48 686.555L395.277 684.781ZM398.259 684.459L402.236 684.029L401.564 687.119L399.576 687.334L398.259 684.459ZM171.687 709.956L174.67 709.633L172.896 711.837L171.687 709.956ZM402.344 685.023L404.439 685.803L402.558 687.012L402.344 685.023ZM632.113 661.193L634.102 660.978C634.453 664.231 634.432 666.822 634.075 670.033L632.865 668.152L630.877 668.367L631.092 670.355L630.227 668.751C629.951 664.755 629.951 664.755 632.113 661.193ZM817.036 641.204L819.024 640.989L821.443 644.75L819.669 646.954L817.036 641.204ZM846.862 637.979L848.851 637.765L849.066 639.753L846.862 637.979ZM603.389 665.303L606.586 666.969C607.403 670.408 607.263 672.792 606.489 676.244L605.431 679.541C604.814 681.498 604.191 683.453 603.55 685.402L599.465 684.838C600.137 681.748 600.137 681.748 599.427 679.247C598.343 676.128 598.458 674.034 598.955 670.812L603.819 669.28L603.389 665.303ZM253.75 706.114L262.805 706.141L263.235 710.118L255.299 711.099L256.06 708.882L253.75 706.114ZM849.71 645.718L856.885 646.954L857.1 648.943L851.027 648.593L849.71 645.718ZM867.606 643.784L872.685 644.241L868.815 645.665L867.606 643.784ZM265.223 709.903L268.206 709.581L269.737 714.445L265.223 709.903ZM276.159 708.721L278.148 708.506L281.691 712.025C285.957 712.64 289.914 713.202 293.921 714.848C287.092 715.461 287.068 715.467 286.075 716.702L289.057 716.379C289.057 716.379 285.238 718.627 283.199 718.018C281.108 715.836 278.684 716.352 276.025 716.782C276.025 716.782 274.743 710.846 276.159 708.721ZM258.371 711.65L263.342 711.112L262.563 713.208L258.371 711.65ZM241.305 714.917L253.723 715.17L236.578 718.119L241.305 714.917ZM251.044 717.298C253.046 717.431 257.055 717.129 259.138 717.56L265.938 720.051L255.039 718.045L251.044 717.298ZM466.591 693.166L469.484 694.149L474.649 695.082L462.208 695.656L466.591 693.166ZM367.481 733.673L368.476 733.565C369.595 734.429 370.698 735.315 371.781 736.225L367.696 735.661L367.481 733.673ZM635.929 677.879L637.917 677.664L637.245 680.754L635.929 677.879ZM379.354 684.199C380.965 684.071 382.71 684.382 384.882 685.291L383.001 686.5L383.216 688.489L381.443 690.692L384.425 690.37L384.64 692.358L386.132 694.035L389.103 696.101L381.98 695.663L382.748 697.529C384.398 699.425 384.398 699.425 388.083 699.781L391.465 699.667L391.895 703.644C388.929 704.03 383.512 700.527 383.512 700.527L381.308 698.753L369.163 698.054L377.745 694.122L377.53 692.134L379.411 690.925C377.943 688.119 371.242 690.842 371.071 687.79C374.358 685.851 376.669 684.414 379.354 684.199ZM604.544 685.295L606.532 685.08L606.747 687.068L604.759 687.283L604.544 685.295ZM1050.27 640.132L1054.36 640.696L1051.48 642.013L1050.27 640.132ZM385.205 688.274L387.193 688.059L386.521 691.149L385.205 688.274ZM629.936 687.579L634.235 690.132L631.36 691.449L629.936 687.579ZM825.795 666.408L827.985 668.057C830.202 669.955 830.202 669.955 832.52 670.459L834.286 670.519L834.501 672.508C830.785 672.708 829.741 672.87 826.763 675.356L835.925 676.377L836.248 679.36C832.981 680.138 829.76 681.089 826.413 681.429L824.21 679.655C822.141 681.39 822.141 681.39 819.454 682.181L818.03 678.312L823.887 676.673L821.901 671.186L826.022 668.36L821.926 667.832C823.604 666.782 823.604 666.782 825.795 666.408ZM1057.55 642.362L1059.65 643.142L1057.77 644.351L1057.55 642.362ZM375.329 691.664L376.539 693.545L373.556 693.867L375.329 691.664ZM648.369 690.616L649.793 694.485L647.805 694.7L648.369 690.616ZM652.669 693.169L653.878 695.05L655.759 693.84C659.028 694.89 660.993 697.079 664.115 698.5L665.047 700.544C668.232 700.2 670.603 700.024 673.627 700.961C673.805 702.654 672.725 704.118 677.255 706.604L675.589 709.802C667.268 705.146 666.144 702.312 660.118 701.577L657.309 700.108C655.291 699.44 653.306 698.696 651.218 698.355L652.669 693.169ZM1075.35 649.92L1079.03 651.022L1090.93 655.619C1086.72 654.77 1081.85 654.6 1076.61 652.629L1075.35 649.92ZM664.841 697.32L667.824 696.998L666.05 699.201L664.841 697.32ZM703.454 697.737L710.413 696.985L710.628 698.974L713.718 699.645L706.866 701.392L703.454 697.737ZM716.486 697.334L718.582 698.114L714.712 699.538L716.486 697.334ZM826.95 686.4L828.939 686.185L828.16 688.281L826.95 686.4ZM1094.5 658.485L1097.48 658.163L1099.69 659.936C1097.8 659.87 1096.21 659.194 1094.5 658.485ZM800.322 691.29L802.31 691.075L802.525 693.063L800.537 693.278L800.322 691.29ZM704.421 706.685L707.404 706.363L707.618 708.351L704.421 706.685ZM717.561 707.277L719.549 707.062L719.764 709.05L717.561 707.277ZM755.878 708.164L763.831 707.304L761.951 708.513L762.165 710.502C759.67 710.425 759.67 710.425 757.087 710.045L755.878 708.164ZM403.041 747.309L405.245 749.083L402.369 750.399L403.041 747.309ZM1012.71 683.42C1015.79 683.086 1017.09 683.488 1019.88 684.656L1019.21 687.746L1015.23 688.176L1017.11 686.967L1013.92 685.301L1012.71 683.42ZM1002.87 685.489L1004.86 685.274L1005.07 687.262L1002.87 685.489ZM1008.94 685.838L1012.03 686.51L1012.25 688.498L1007.17 688.042L1008.94 685.838ZM1020.87 684.549L1028.12 687.286L1030.36 688.552L1032.35 688.337L1032.56 690.326L1029.58 690.648L1029.37 688.66L1021.3 688.525L1020.87 684.549ZM383.34 747.351L385.329 747.136L382.906 750.916L376.93 755.898L383.34 747.351ZM902.878 708.367L902.967 710.369L900.378 710.626L897.334 710.601C895.53 710.597 902.878 708.367 902.878 708.367ZM905.734 708.059L921.749 707.333L921.857 708.327L905.949 710.047L905.734 708.059ZM1036.73 700.94L1040.7 700.51L1040.92 702.498L1037.94 702.821L1036.73 700.94ZM351.826 775.979L354.808 775.657C354.884 778.108 354.884 778.108 354.351 780.735C352.541 782.299 352.541 782.299 350.59 783.153C349.787 779.17 349.787 779.17 351.826 775.979ZM1045.89 701.961L1047.88 701.746L1047.1 703.842L1045.89 701.961ZM404.677 667.863L405.886 669.744L403.898 669.959L404.677 667.863ZM1165.13 700.362L1170.41 704.973L1174.15 707.881L1167.64 707.284C1165.85 705.33 1165.49 703.301 1165.13 700.362ZM789.397 698.295L790.391 698.187C791.511 699.052 792.614 699.938 793.696 700.848L788.618 700.391L789.397 698.295ZM819.074 742.936L823.159 743.5L822.594 747.584L819.074 742.936ZM563.672 800.354L566.655 800.031C565.589 802.218 565.589 802.218 564.102 804.33L561.119 804.653C562.185 802.466 562.185 802.466 563.672 800.354ZM805.062 703.642L807.051 703.427L808.475 707.297L806.486 707.512L805.062 703.642ZM577.823 799.973C578.159 799.925 578.517 799.894 578.905 799.882C582.218 801.789 582.218 801.789 584.309 805.164C584.309 805.164 575.357 808.535 573.813 809.406C566.968 813.28 563.135 815.584 557.376 819.453L554.578 821.378C551.86 822.816 550.828 823.001 547.926 822.172L551.688 819.754L551.365 816.771C563.102 814.582 556.679 813.427 564.226 808.969C572.273 803.964 573.961 800.526 577.823 799.973ZM479.894 823.326C480.342 823.296 480.908 823.298 481.663 823.3L481.878 825.288L476.02 826.927L477.164 825.295C478.273 823.793 478.55 823.417 479.894 823.326ZM520.437 819.109L524.414 818.679L524.629 820.667L520.437 819.109ZM545.292 816.422L548.275 816.099L545.615 819.404L545.292 816.422ZM571.464 816.61L574.447 816.288L573.775 819.378L568.911 820.91L567.031 822.119L567.245 824.107L560.501 826.848L561.065 822.764C563.748 821.873 566.088 821.215 568.911 820.91C569.977 818.723 569.977 818.722 571.464 816.61ZM584.389 815.213L586.485 815.993L583.61 817.309L584.389 815.213ZM567.982 661.932L570.306 662.514L564.739 666.543L567.982 661.932ZM627.57 814.569L633.75 815.913L633.965 817.901L636.948 817.579C637.78 820.466 644.711 820.305 646.183 821.718L636.383 821.663C632.015 820.846 629.793 818.027 627.57 814.569ZM544.265 824.454C544.754 824.404 545.353 824.392 546.152 824.376L541.611 828.89L540.402 827.009C542.317 825.084 542.797 824.602 544.265 824.454ZM501.439 861.064L503.535 861.843L499.666 863.267L501.439 861.064ZM527.02 833.484L526.585 835.857C525.362 839.243 523.899 840.276 520.921 842.19L520.384 837.486C522.907 835.802 523.958 833.815 527.02 833.484ZM498.403 838.589L501.493 839.261L496.737 841.787L496.522 839.798L498.403 838.589ZM312.585 851.02L316.67 851.584C314.341 853.859 312.043 855.734 309.253 857.415L309.629 856.119L310.919 854.218L312.585 851.02ZM516.621 839.638L517.831 841.518L513.854 841.948L516.621 839.638ZM740.748 819.434L742.737 819.219L744.053 822.094L740.963 821.423L740.748 819.434ZM647.158 837.597L650.248 838.269L647.373 839.586L647.158 837.597ZM669.138 836.227L672.121 835.905L672.658 840.876L670.67 841.091L669.138 836.227ZM659.304 838.296L661.399 839.075L659.518 840.284L659.304 838.296ZM651.457 840.15L654.44 839.828C656.273 841.075 656.273 841.075 657.745 842.488L654.87 843.804L654.655 841.816L652.666 842.031L651.457 840.15ZM505.524 857.936C508.514 857.957 508.514 857.957 511.596 858.286L512.805 860.167C510.015 862.908 510.015 862.908 506.168 863.901L505.524 857.936ZM674.861 842.649L676.85 842.434L677.065 844.423L674.861 842.649ZM500.914 865.402C501.28 865.355 501.717 865.342 502.299 865.326L502.621 868.308C497.471 872.005 492.528 875.77 486.58 878.089L497.543 867.851C499.362 866.006 499.818 865.546 500.914 865.402ZM683.567 848.749L687.544 848.319L686.872 851.409L684.884 851.624L683.567 848.749ZM688.646 849.206L689.64 849.098L692.166 853.855L687.087 853.398L688.646 849.206ZM432.57 880.909L434.666 881.689L430.796 883.113L432.57 880.909ZM693.053 852.753L694.047 852.645L696.465 856.407L693.375 855.736L693.053 852.753ZM428.808 883.328L430.904 884.107C429.091 885.76 427.355 887.299 425.369 888.729C422.353 889.928 419.421 890.868 416.819 892.831C412.489 896.469 408.89 898.462 403.469 900.148C404.778 896.908 404.778 896.908 407.091 895.891C410.201 894.66 412.995 893.903 415.2 891.305C416.413 889.456 416.413 889.456 419.047 888.406C422.171 887.063 422.171 887.063 423.947 886.042C425.539 885.089 427.172 884.204 428.808 883.328ZM483.586 878.656C484.332 878.575 485.117 878.744 486.687 879.083C483.021 881.809 476.02 883.99 478.607 882.848L480.937 881.716L480.722 879.728C482.134 879.067 482.84 878.737 483.586 878.656ZM698.454 856.192L701.544 856.864C702.489 858.789 702.489 858.789 702.968 860.734L697.782 859.282L698.454 856.192ZM418.167 896.548L420.263 897.327L417.388 898.644L418.167 896.548ZM408.762 902.594L410.858 903.373L407.983 904.689L408.762 902.594ZM407.419 908.774L398.014 914.819L401.561 910.413L401.239 907.43C403.493 906.82 405.397 907.832 407.419 908.774ZM387.32 908.935L391.297 908.505L387.535 910.923L387.32 908.935ZM391.941 914.47L396.026 915.034C392.234 920.332 387.248 923.468 381.69 926.642C377.838 928.65 374.46 931.383 370.901 933.843L367.811 933.172L367.032 935.267L365.608 931.398C368.826 928.588 374.026 928.379 375.9 924.251C378.775 922.934 378.775 922.934 380.748 921.778C384.337 919.557 388.033 917.45 392.156 916.458L391.941 914.47ZM397.342 917.909L399.438 918.689L396.563 920.005L397.342 917.909ZM402.528 919.361L404.624 920.14L401.749 921.456L402.528 919.361ZM795.348 877.905L797.444 878.684L795.563 879.893L795.348 877.905ZM850.459 875.971L852.555 876.75L850.674 877.96L850.459 875.971ZM348.814 934.219L350.43 937.555L347.04 936.422L348.814 934.219ZM344.628 935.583C344.967 935.546 346.444 938.425 347 938.419C347.691 941.02 345.776 939.45 344.595 941.716L348.679 942.28C345.802 945.325 343.003 946.707 339.144 948.277C335.295 949.318 333.213 950.143 330.721 953.666C332.007 948.575 332.725 946.912 338.134 944.174L340.726 943.14C339.778 940.297 341.646 936.396 344.628 935.583ZM322.841 957.048L324.403 959.41L313.369 965.247L322.841 957.048ZM881.387 910.85L883.375 910.635L883.59 912.623L881.387 910.85ZM319.866 964.897L321.075 966.778C317.43 970.356 312.47 971.788 307.693 973.254C311.586 970.193 315.681 967.534 319.866 964.897ZM299.632 973.119L301.728 973.899L298.853 975.215L299.632 973.119ZM777.075 932.183L779.171 932.962L777.29 934.172L777.075 932.183ZM206.896 1052.03L191.692 1061.6L181.844 1067.75C183.151 1063.38 200.965 1054.22 206.896 1052.03ZM790.295 942.824L792.284 942.609L792.499 944.598L795.696 946.264L792.821 947.58L792.499 944.598L790.51 944.812L790.295 942.824ZM219.235 1010.98L221.223 1010.76L221.438 1012.75L217.676 1015.17L219.235 1010.98ZM248.282 1009.85L250.27 1009.64L250.485 1011.62L248.282 1009.85ZM229.258 1019.95L232.24 1019.63L231.461 1021.73L229.258 1019.95ZM226.49 1022.26C230.257 1022.36 232.885 1025.6 232.885 1025.6L225.72 1029.25L216.736 1034.38L215.956 1036.48L214.747 1034.6L216.736 1034.38C218.406 1031.18 219.345 1030.29 222.172 1028.26C224.189 1026.82 224.189 1026.82 225.818 1025.35L226.49 1022.26ZM845.003 965.074L845.998 964.966C850.312 968.246 854.42 971.618 857.511 976.106L858.438 977.703L860.427 977.488C862.128 980.714 862.128 980.714 863.168 984.232L865.156 984.018L864.484 987.108L863.168 984.232L860.077 983.561L858.761 980.686L856.772 980.9C855.249 977.964 853.658 975.139 851.828 972.382L849.84 972.597L846.061 966.719L845.003 965.074ZM215.097 1028.53L218.079 1028.2L214.532 1032.61L215.097 1028.53ZM208.89 1036.24L210.878 1036.02L211.093 1038.01L209.104 1038.23L208.89 1036.24ZM865.82 989.289L870.664 988.451L870.879 990.44L873.862 990.117L876.603 996.862C869.493 994.214 870.721 995.402 865.82 989.289ZM862.899 1000.35L864.887 1000.14L865.102 1002.13L862.899 1000.35ZM877.812 998.743L879.8 998.528L881.009 1000.41L879.128 1001.62L877.812 998.743ZM922.605 1013.01L924.701 1013.79L922.82 1015L922.605 1013.01ZM944.45 1056.92L946.653 1058.69L945.981 1061.78L944.45 1056.92ZM925.855 1071L927.844 1070.78L930.262 1074.55L928.273 1074.76L925.855 1071ZM947.432 1093.81L948.426 1093.7L948.748 1096.69L947.432 1093.81ZM666.738 608.469L668.834 609.249L667.06 611.452L666.738 608.469ZM827.218 562.68L831.409 564.238L830.738 567.328C828.813 568.274 828.813 568.274 826.868 568.753L825.552 565.877L828.642 566.549L827.218 562.68ZM831.517 565.233L834.715 566.899C835.655 568.868 835.655 568.868 836.139 570.768C833.029 568.817 833.029 568.817 831.517 565.233ZM566.514 599.404C564.068 596.367 561.137 594.213 558.336 593.24C559.975 590.451 565.637 595.387 566.514 599.404ZM554.906 595.966L556.021 599.153L550.512 595.219L554.906 595.966ZM568.548 594.282L570.536 594.067L570.751 596.055L568.763 596.27L568.548 594.282ZM821.912 725.804L825.889 725.374L825.217 728.464L823.229 728.679L821.912 725.804ZM827.066 728.501L828.06 728.394L829.44 737.188L825.508 732.693L827.066 728.501ZM821.882 731.919L822.876 731.812L825.295 735.573L822.204 734.902L821.882 731.919ZM825.234 738.745L828.489 739.399C829.434 741.323 828.168 748.872 828.647 750.816L826.94 741.494L825.234 738.745Z" fill="black"/>
<path id="star-horn" d="M223.75 156.405C223.75 156.405 229.33 161.865 229.366 161.833L231.411 163.309C234.977 166.436 237.054 170.514 238.824 174.892L239.92 177.057C246.19 178.091 239.3 174.536 255.198 192.932C256.723 195.085 262.672 199.272 264.394 202.11C261.291 202.477 254.767 203.215 253.821 205.457C253.821 205.457 252.841 207.368 252.2 209.656C251.588 212.282 249.583 214.105 247.936 216.152C245.841 218.33 243.816 220.667 243.247 220.669C241.549 220.676 238.619 217.482 236.785 215.345C234.653 212.475 229.956 206.842 229.956 206.842C227.756 206.263 227.862 206.085 226.467 204.224C225.237 201.075 224.465 198.189 223.784 194.886C204.234 147.575 230.905 207.55 221.295 183.124C220.321 180.661 220.321 180.661 218.372 177.605C218.145 170.073 216.868 163.565 218 159.038C220.136 160.19 220.136 160.19 222.299 161.591C223.278 162.787 224.062 163.013 225.497 163.257L223.75 156.405ZM247.513 189.177C247.683 192.229 251.228 193.966 251.08 198.713L253.955 197.396C253.2 194.735 249.848 190.394 247.513 189.177Z" fill="black"/>
<path d="M1032.22 622.927L1035.08 624.956C1042.93 625.664 1045.44 628.9 1052.25 632.779L1056.81 636.363C1051.22 634.638 1049.65 634.141 1037.61 629.851C1025.97 625.565 1032.22 622.927 1032.22 622.927Z" fill="black"/>
<path d="M1078.67 643.027C1083.14 644.169 1087.39 645.765 1091.66 647.469L1093.7 648.256C1104.45 652.535 1104.39 652.334 1107.28 656.825C1100.44 656.078 1094.46 653.272 1088.48 650.013L1085.96 648.761L1083.3 647.43L1080.78 646.186L1078.89 645.015L1078.67 643.027Z" fill="black"/>
<path d="M552.278 843.83C550.806 849.48 546.378 851.401 541.646 854.22C537.825 856.456 537.825 856.456 535.565 856.701C534.853 859.745 531.049 859.522 528.416 860.648L522.559 863.45L527.675 859.314L529.6 857.345L532.728 855.353C534.78 854.039 536.834 852.728 538.89 851.42C541.779 849.57 544.569 847.733 547.273 845.616C549.296 844.152 549.296 844.152 552.278 843.83Z" fill="black"/>
<path d="M919.918 988.156C922.288 990.064 922.738 991.005 923.832 993.76C924.135 994.52 924.437 995.279 924.749 996.062C925.058 996.857 925.367 997.652 925.685 998.471C926.001 999.258 926.317 1000.04 926.642 1000.85C928.075 1004.49 929.031 1007.32 929.457 1011.26C928.801 1011.34 928.144 1011.41 927.468 1011.48C925.307 1007.32 923.437 1003.48 922.094 998.985C921.814 998.139 921.533 997.293 921.244 996.421C920.969 995.585 920.695 994.748 920.412 993.886C920.131 993.04 919.85 992.194 919.561 991.322C919.386 990.641 919.211 989.96 919.031 989.258C919.324 988.894 919.617 988.531 919.918 988.156Z" fill="black"/>
<path d="M343.339 474.143C346.878 477.415 348.708 481.271 350.794 485.533C351.143 486.228 351.493 486.923 351.853 487.638C354.406 492.78 354.406 492.78 354.651 495.048C353.667 495.155 352.683 495.261 351.669 495.371C347.804 488.369 344.607 482.077 343.339 474.143Z" fill="black"/>
<path d="M493.405 885.397C493.921 890.755 488.248 893.24 484.402 895.348C481.539 896.744 476.064 895.367 476.064 895.367L481.636 892.538C485.253 889.823 488.699 885.952 493.405 885.397Z" fill="black"/>
<path d="M657.194 857.183C659.085 857.23 659.085 857.23 661.278 857.747L662.356 859.58C663.639 861.865 663.843 861.717 666.938 862.416C668.285 862.774 669.222 863.485 670.259 864.352L672.187 865.621L667.645 864.886L666.213 863.563L664.024 862.794C660.187 861.679 659.239 860.519 657.194 857.183Z" fill="black"/>
<path d="M231.664 594.844C232.063 595.464 232.462 596.085 232.873 596.724C228.518 598.655 224.98 599.826 220.163 600.11C223.234 595.697 226.485 595.258 231.664 594.844Z" fill="black"/>
<path d="M891.275 927.886C891.931 927.815 892.587 927.744 893.263 927.671C894.087 929.024 894.903 930.383 895.715 931.743C896.398 932.877 896.398 932.877 897.094 934.034C898.207 936.189 898.207 936.189 898.53 939.171C897.51 938.95 896.49 938.728 895.44 938.5C893.596 935.092 892.353 931.6 891.275 927.886Z" fill="black"/>
<path d="M832.059 528.939L834.047 528.724C834.109 531.043 834.109 531.043 833.59 533.803C831.237 535.88 831.237 535.88 828.941 537.323C829.176 533.935 830.08 531.703 832.059 528.939ZM834.552 720.23L838.998 719.868C839.06 722.187 838.231 722.689 837.712 725.448C835.359 727.525 836.188 727.023 833.892 728.466C834.126 725.079 832.574 722.995 834.552 720.23Z" fill="black"/>
<path d="M686.453 396.257C689.241 399.803 689.814 403.534 690.725 407.865C688.629 407.086 688.629 407.086 687.312 404.211C686.898 401.566 686.697 398.925 686.453 396.257Z" fill="black"/>
<path d="M906.375 1048.96C909.229 1051.04 911.145 1053.42 913.2 1056.27C911.384 1056.34 911.384 1056.34 909.115 1055.71C907.046 1052.85 907.046 1052.85 905.488 1050.07C905.78 1049.7 906.073 1049.34 906.375 1048.96Z" fill="black"/>
<path d="M928.57 1012.37C929.227 1012.3 929.883 1012.22 930.559 1012.15C931.57 1015.36 932.58 1018.57 933.622 1021.88C932.93 1021.62 932.239 1021.36 931.526 1021.1C930.675 1019.11 930.675 1019.11 929.917 1016.68C929.662 1015.88 929.406 1015.08 929.143 1014.25C928.954 1013.63 928.765 1013.01 928.57 1012.37Z" fill="black"/>
<path d="M886.036 907.33C886.692 907.259 887.348 907.188 888.024 907.115C891.237 914.239 891.237 914.239 890.2 917.944C886.519 911.804 886.519 911.804 886.036 907.33Z" fill="black"/>
<path d="M559.695 837.999C559.158 840.006 559.158 840.006 558.136 842.191C556.104 843.165 556.104 843.165 554.267 843.615C555.024 840.133 555.929 838.406 559.695 837.999Z" fill="black"/>
<path d="M910.594 967.036C911.25 966.965 911.907 966.894 912.583 966.821C913.159 969.082 913.735 971.344 914.329 973.673C912.704 972.592 912.704 972.592 911.024 971.013C910.882 969.701 910.74 968.388 910.594 967.036Z" fill="black"/>
<path d="M252.999 587.508C250.226 589.466 247.638 590.545 244.374 591.458C245.82 587.567 249.316 587.806 252.999 587.508Z" fill="black"/>
<path d="M339.497 466.512C341.239 468.084 341.239 468.084 342.91 470.166C342.841 472.437 342.841 472.437 342.345 474.25C340.259 471.37 339.902 470.257 339.497 466.512Z" fill="black"/>
<path d="M897.643 940.273C900.243 942.365 900.526 943.762 901.378 946.91C900.722 946.981 900.066 947.052 899.39 947.125C898.521 945.227 897.652 943.33 896.756 941.375C897.049 941.011 897.342 940.648 897.643 940.273Z" fill="black"/>
<path d="M354.835 766.601C355.527 766.858 356.219 767.116 356.931 767.381C356.417 768.764 355.903 770.147 355.373 771.572C354.717 771.643 354.06 771.714 353.384 771.787C353.838 767.841 353.838 767.841 354.835 766.601Z" fill="black"/>
<path d="M246.29 723.205L253.357 723.447L251.602 724.077C249.911 724.712 248.254 725.436 246.612 726.188L246.29 723.205Z" fill="black"/>
<path d="M646.424 278.447L649.514 279.119L648.95 283.203L646.962 283.418L646.424 278.447Z" fill="black"/>
<path d="M946.895 1051.62C947.551 1051.55 948.207 1051.48 948.883 1051.41C949.318 1052.36 949.752 1053.31 950.2 1054.29C949.615 1055.01 949.03 1055.74 948.427 1056.49C947.921 1054.88 947.416 1053.28 946.895 1051.62Z" fill="black"/>
<path d="M303.005 727.903C305.469 728.014 305.469 728.014 308.084 728.36L309.293 730.241L303.113 728.897L303.005 727.903Z" fill="black"/>
<path d="M843.127 631.343C845.167 631.786 847.206 632.229 849.307 632.686C849.05 633.378 848.793 634.069 848.528 634.782C846.749 634 844.984 633.184 843.235 632.337C843.2 632.009 843.164 631.681 843.127 631.343Z" fill="black"/>
<path d="M331.382 447.272C332.42 447.658 332.42 447.658 333.478 448.052C334.321 450.035 334.321 450.035 334.902 451.921C333.883 451.699 332.863 451.478 331.812 451.249C331.67 449.937 331.528 448.625 331.382 447.272Z" fill="black"/>
<path d="M915.375 983.854L918.466 984.526L917.901 988.61L915.375 983.854Z" fill="black"/>
<path d="M627.763 453.457C628.419 453.386 629.076 453.315 629.752 453.242C629.601 454.918 629.45 456.594 629.295 458.32C628.967 458.356 628.639 458.391 628.301 458.428C628.123 456.787 627.946 455.147 627.763 453.457Z" fill="black"/>
<path d="M429.56 927.503C430.216 927.432 430.872 927.361 431.548 927.288C431.619 927.944 431.69 928.6 431.763 929.276C430.487 929.746 429.21 930.216 427.894 930.7C428.444 929.645 428.994 928.59 429.56 927.503Z" fill="black"/>
<path d="M196.787 713.86L201.866 714.317L201.973 715.311L197.002 715.849L196.787 713.86Z" fill="black"/>
<path d="M27.9311 664.14C28.9508 664.361 29.9705 664.583 31.0212 664.811C29.159 666.009 29.159 666.008 27.2593 667.23C27.481 666.21 27.7027 665.19 27.9311 664.14Z" fill="black"/>
<path d="M903.177 1047.3C904.161 1047.19 905.145 1047.09 906.159 1046.98C906.23 1047.63 906.301 1048.29 906.374 1048.96C905.39 1049.07 904.406 1049.18 903.392 1049.29C903.321 1048.63 903.25 1047.97 903.177 1047.3Z" fill="black"/>
<path d="M901.753 1043.43C902.223 1044.71 902.693 1045.98 903.177 1047.3C902.485 1047.04 901.794 1046.78 901.081 1046.52C901.303 1045.5 901.524 1044.48 901.753 1043.43Z" fill="black"/>
<path d="M200.969 1002.42L203.337 1004.17L199.303 1005.62L200.969 1002.42Z" fill="black"/>
<path d="M594.518 819.089L597.823 821.749L594.84 822.072L594.518 819.089Z" fill="black"/>
<path d="M918.691 272.151L921.781 272.823L917.912 274.247L918.691 272.151Z" fill="black"/>
<path d="M614.657 34.4387C615.127 35.7156 615.597 36.9925 616.081 38.3081C615.389 38.0509 614.697 37.7938 613.985 37.5288C614.207 36.5091 614.428 35.4894 614.657 34.4387Z" fill="black"/>
<path d="M286.282 1007.36L289.372 1008.03L286.497 1009.35L286.282 1007.36Z" fill="black"/>
<path d="M909.735 959.083C910.169 960.031 910.604 960.98 911.051 961.958C910.395 962.029 909.739 962.1 909.063 962.173C909.285 961.153 909.506 960.133 909.735 959.083Z" fill="black"/>
<path d="M439.561 610.593C440.252 610.85 440.944 611.107 441.656 611.372C440.38 611.842 439.103 612.312 437.787 612.796C438.372 612.069 438.958 611.342 439.561 610.593Z" fill="black"/>
<path d="M232.551 593.742C233.571 593.964 234.59 594.185 235.641 594.414C234.692 594.848 233.743 595.283 232.766 595.73C232.695 595.074 232.624 594.418 232.551 593.742Z" fill="black"/>
<path d="M691.163 416.359L692.587 420.228L690.276 417.461L691.163 416.359Z" fill="black"/>
<path d="M932.116 1082.39C932.772 1082.32 933.429 1082.25 934.105 1082.18C934.176 1082.83 934.246 1083.49 934.32 1084.16C933.663 1084.24 933.007 1084.31 932.331 1084.38C932.26 1083.72 932.189 1083.07 932.116 1082.39Z" fill="black"/>
<path d="M395.052 946.037L398.049 945.525L395.267 948.025L395.052 946.037Z" fill="black"/>
<path d="M869.779 877.906C870.923 879.276 870.923 879.276 872.09 880.674C871.434 880.745 870.778 880.816 870.102 880.889C869.995 879.905 869.889 878.92 869.779 877.906Z" fill="black"/>
<path d="M867.469 875.139C868.125 875.068 868.781 874.997 869.457 874.924C869.528 875.58 869.599 876.236 869.672 876.912C869.016 876.983 868.36 877.054 867.684 877.127C867.613 876.471 867.542 875.815 867.469 875.139Z" fill="black"/>
<path d="M379.769 922.827C380.789 923.048 381.809 923.27 382.859 923.498C381.91 923.933 380.962 924.367 379.984 924.815C379.913 924.159 379.842 923.503 379.769 922.827Z" fill="black"/>
<path d="M556.905 863.052L559.001 863.831L556.019 864.154L556.905 863.052Z" fill="black"/>
<path d="M522.184 863.176C522.506 866.159 522.506 866.159 522.506 866.159L522.184 863.176Z" fill="black"/>
<path d="M23.0674 665.671C23.7236 665.6 24.3797 665.529 25.0558 665.456C25.1267 666.112 25.1977 666.768 25.2707 667.445C24.6146 667.515 23.9584 667.586 23.2823 667.659C23.2114 667.003 23.1405 666.347 23.0674 665.671Z" fill="black"/>
<path d="M254.772 585.305C255.464 585.562 256.156 585.819 256.868 586.084C255.884 586.191 254.9 586.297 253.886 586.407C254.178 586.043 254.471 585.68 254.772 585.305Z" fill="black"/>
<path d="M354.866 497.037C355.189 500.019 355.189 500.02 355.189 500.02L354.866 497.037Z" fill="black"/>
<path d="M641.409 260.967L643.613 262.741L641.732 263.95L641.409 260.967Z" fill="black"/>
<path d="M942.264 1047.16L944.467 1048.93L942.479 1049.15L942.264 1047.16Z" fill="black"/>
<path d="M894.041 1037.22C895.079 1037.61 895.079 1037.61 896.137 1038C895.206 1038.6 895.206 1038.6 894.256 1039.21C894.185 1038.55 894.114 1037.9 894.041 1037.22Z" fill="black"/>
<path d="M1108.63 658.969C1111.72 659.641 1111.72 659.641 1111.72 659.641L1108.63 658.969Z" fill="black"/>
<path d="M252.03 727.423C255.12 728.094 255.12 728.094 255.12 728.094L252.03 727.423Z" fill="black"/>
<path d="M854.171 631.155C854.898 631.74 855.626 632.325 856.375 632.928C855.719 632.999 855.062 633.07 854.386 633.143C854.315 632.487 854.244 631.831 854.171 631.155Z" fill="black"/>
<path d="M689.29 413.374L691.278 413.159L689.725 417.337L689.29 413.374Z" fill="black"/>
<path d="M921.808 354.282C922.207 354.903 922.606 355.524 923.017 356.163C922.326 355.906 921.634 355.649 920.921 355.384C921.214 355.02 921.507 354.657 921.808 354.282Z" fill="black"/>
<path d="M195.57 1070.48C197.666 1071.26 197.666 1071.26 197.666 1071.26L195.57 1070.48Z" fill="black"/>
<path d="M197.451 1069.27C199.547 1070.05 199.547 1070.05 199.547 1070.05L197.451 1069.27Z" fill="black"/>
<path d="M171.467 1042.91C173.563 1043.69 173.563 1043.69 173.563 1043.69L171.467 1042.91Z" fill="black"/>
<path d="M425.905 930.915C428.001 931.695 428.001 931.695 428.001 931.695L425.905 930.915Z" fill="black"/>
<path d="M500.418 866.535C502.514 867.314 502.514 867.314 502.514 867.314L500.418 866.535Z" fill="black"/>
<path d="M507.727 859.71C509.823 860.489 509.823 860.489 509.823 860.489L507.727 859.71Z" fill="black"/>
<path d="M622.411 841.278C624.507 842.058 624.507 842.058 624.507 842.058L622.411 841.278Z" fill="black"/>
<path d="M624.963 836.979C627.059 837.758 627.059 837.758 627.059 837.758L624.963 836.979Z" fill="black"/>
<path d="M1180.89 722.573C1182.98 723.352 1182.98 723.352 1182.98 723.352L1180.89 722.573Z" fill="black"/>
<path d="M1166.65 721.094C1168.74 721.874 1168.74 721.874 1168.74 721.874L1166.65 721.094Z" fill="black"/>
<path d="M312.972 732.905C315.068 733.685 315.068 733.685 315.068 733.685L312.972 732.905Z" fill="black"/>
<path d="M305.368 727.692C307.464 728.471 307.464 728.471 307.464 728.471L305.368 727.692Z" fill="black"/>
<path d="M576.679 697.359C578.775 698.139 578.775 698.139 578.775 698.139L576.679 697.359Z" fill="black"/>
<path d="M1071.47 640.858C1073.57 641.637 1073.57 641.637 1073.57 641.637L1071.47 640.858Z" fill="black"/>
<path d="M255.12 728.094C257.216 728.874 257.216 728.874 257.216 728.874L255.12 728.094Z" fill="black"/>
<path d="M278.793 714.471C280.889 715.251 280.889 715.251 280.889 715.251L278.793 714.471Z" fill="black"/>
<path d="M220.162 711.757C222.258 712.536 222.258 712.536 222.258 712.536L220.162 711.757Z" fill="black"/>
<path d="M196.193 713.342C198.289 714.121 198.289 714.121 198.289 714.121L196.193 713.342Z" fill="black"/>
<path d="M672.312 660.871C674.407 661.65 674.407 661.65 674.407 661.65L672.312 660.871Z" fill="black"/>
<path d="M670.216 660.091C672.312 660.871 672.312 660.871 672.312 660.871L670.216 660.091Z" fill="black"/>
<path d="M716.836 654.046C718.932 654.825 718.932 654.825 718.932 654.825L716.836 654.046Z" fill="black"/>
<path d="M712.914 561.934C715.01 562.713 715.01 562.713 715.01 562.713L712.914 561.934Z" fill="black"/>
<path d="M808.415 347.429C810.511 348.208 810.511 348.208 810.511 348.208L808.415 347.429Z" fill="black"/>
<path d="M810.296 346.219C812.392 346.999 812.392 346.999 812.392 346.999L810.296 346.219Z" fill="black"/>
<path d="M813.063 343.909C815.159 344.688 815.159 344.688 815.159 344.688L813.063 343.909Z" fill="black"/>
<path d="M294.788 238.999C296.883 239.778 296.883 239.778 296.883 239.778L294.788 238.999Z" fill="black"/>
<path d="M616.188 39.3024C618.284 40.0816 618.284 40.0816 618.284 40.0816L616.188 39.3024Z" fill="black"/>
<path d="M26.6344 693.831L15.2172 689.902L9.87796 683.651L5.76313 684.82C0.40287 689.458 1.5462 691.19 0 697.043L16.2227 696.122L26.6344 693.831Z" fill="black"/>
<g id="pupil2" clip-path="url(#clip2_2003_394)">
<path d="M730.82 688.981C743.589 684.274 750.835 678.413 759.811 668.298C765.777 660.578 766.505 652.522 767.943 643.196C768.434 630.193 765.987 627.037 759.634 616.326C746.466 603.301 747.588 603.035 732.057 596.527C723.111 595.451 714.353 596.225 705.452 597.057C697.717 599.077 688.69 604.096 682.56 608.901C672.759 618.946 672.478 621.563 669.478 634.534C668.345 641.895 669.44 648.848 670.539 656.1C672.93 666.309 676.43 670.239 683.444 677.314C690.524 683.172 697.005 686.865 707.132 689.688C715.138 691.025 722.86 689.911 730.82 688.981Z" fill="black"/>
</g>
</g>
<defs>
<clipPath id="clip0_2003_394">
<rect width="1185.96" height="1102.81" fill="white"/>
</clipPath>
<clipPath id="clip1_2003_394">
<rect width="99.0038" height="94.3057" fill="white" transform="translate(435 591)"/>
</clipPath>
<clipPath id="clip2_2003_394">
<rect width="99.0038" height="94.3057" fill="white" transform="translate(669 596)"/>
</clipPath>
</defs>
</svg>
