<svg width="180" height="179" viewBox="0 0 180 179" fill="none" xmlns="http://www.w3.org/2000/svg">
<path d="M90.3954 179L82.983 122.371L53.5583 171.328L69.8296 116.581L23.028 149.339L60.1672 105.94L4.08229 116.838L55.6734 92.2984L1.86126e-07 79.447L57.1199 78.0013L11.4883 43.6303L64.2559 65.529L36.5542 15.5823L75.8534 57.0407L70.8711 0.147791L89.9004 54.0014L108.499 1.67511e-07L103.973 56.9315L142.938 15.1646L115.635 65.3298L168.229 43.0135L122.867 77.7442L180 78.7402L124.429 92.0221L176.213 116.157L120.039 105.702L157.525 148.806L110.466 116.42L127.168 171.032L97.3578 122.313L90.3954 179Z" fill="#F7ADC5"/>
</svg>
