<svg width="580" height="537" viewBox="0 0 580 537" fill="none" xmlns="http://www.w3.org/2000/svg">
<g clip-path="url(#clip0_1078_3303)">
<rect width="579.38" height="536.24" rx="24" fill="#F5F5F5"/>
<path d="M190.096 263.953L125.737 115.034L132.283 108.089L254.156 211.152L304.272 18L341.732 213.826L488.91 118.057L404.037 265.992L559.38 332.013L397.203 352.138L451.576 517.218L290 395.752L103.629 515.432L189.044 358.435L20 324.483L190.096 263.953Z" fill="black"/>
<path d="M117.004 92.4023L124.34 112.813L130.115 105.26L117.004 92.4023Z" fill="black"/>
<path d="M194.586 300.273C194.586 300.273 212.963 330.02 234.499 330.242C256.036 330.464 283.703 307.947 283.703 307.947C283.703 307.947 263.822 274.975 236.507 276.309C209.193 277.643 194.586 300.273 194.586 300.273Z" fill="white"/>
<path d="M309.312 305.648C309.312 305.648 327.689 335.395 349.226 335.617C370.763 335.839 398.429 313.322 398.429 313.322C398.429 313.322 378.549 280.35 351.234 281.684C323.919 283.018 309.312 305.648 309.312 305.648Z" fill="white"/>
<path d="M336.971 317.84C352.419 319.582 366.372 308.305 368.138 292.652C369.903 276.999 358.812 262.897 343.364 261.154C327.917 259.412 313.963 270.69 312.198 286.343C310.433 301.996 321.524 316.098 336.971 317.84Z" fill="black"/>
<path d="M222.971 311.84C238.419 313.582 252.373 302.305 254.138 286.652C255.903 270.999 244.812 256.897 229.365 255.154C213.917 253.412 199.963 264.69 198.198 280.343C196.433 295.996 207.524 310.098 222.971 311.84Z" fill="black"/>
</g>
<defs>
<clipPath id="clip0_1078_3303">
<rect width="579.38" height="536.24" rx="100" fill="white"/>
</clipPath>
</defs>
</svg>
