<svg width="293" height="60" viewBox="0 0 293 60" fill="none" xmlns="http://www.w3.org/2000/svg">
<path d="M277.765 19.3743C273.835 19.0546 240.872 12.9443 208.581 8.2237C202.502 7.33495 197.14 6.55235 172.871 5.06795C148.601 3.58354 105.565 1.58767 79.7512 1.06928C34.4073 0.158687 20.4148 8.44841 12.299 12.8042C6.69432 15.8123 3.11237 19.6058 1.80413 22.3256C-1.32329 28.8275 5.35586 36.3626 10.2724 41.7702C16.7059 48.8462 27.8558 54.8988 69.4869 57.4978C101.395 59.4898 161.484 55.5552 195.189 54.384C234.476 53.0188 245.636 51.7836 254.692 51.4862C270.707 50.9602 288.599 38.9227 290.537 36.354C292.58 33.6475 291.912 29.8758 290.954 27.0678C285.491 22.0414 282.043 18.9224 279.104 17.7913C277.592 17.2546 276.04 16.7938 273.028 17.8238" stroke="#826887" stroke-width="2" stroke-linecap="round"/>
</svg>
