<svg width="370" height="55" viewBox="0 0 370 55" fill="none" xmlns="http://www.w3.org/2000/svg">
<path d="M352.157 16.0198C352.041 16.0198 343.7 15.9238 322.372 14.6037C309.293 13.7941 291.763 11.03 268.65 9.38039C245.537 7.73078 217.404 6.8523 198.953 5.80343C180.502 4.75456 172.584 3.56193 158.593 2.54122C144.602 1.52051 124.776 0.707866 107.005 1.10094C74.0634 1.82955 51.6668 6.74074 39.5931 10.4046C23.3328 15.3389 9.31482 29.8835 2.87554 37.9973C1.65468 39.5356 1.23751 42.0511 1.04005 43.962C0.842585 45.8729 1.27524 47.3496 4.63114 48.5035C23.1074 54.8562 31.9746 53.57 38.1217 53.8503C42.5533 54.0525 49.6639 53.9257 102.418 51.1931C155.171 48.4605 253.357 43.0109 305.448 39.7634C357.54 36.5158 360.563 35.6354 362.774 34.6129C364.985 33.5903 366.292 32.4522 367.133 31.1088C367.974 29.7654 368.309 28.251 368.146 26.8248C367.822 23.9994 365.43 21.1475 362.708 18.2335C359.333 16.0493 355.888 14.9066 352.553 14.512C350.767 14.3356 348.79 14.2077 345.077 13.5287" stroke="#00938A" stroke-width="2" stroke-linecap="round"/>
</svg>
