<svg width="252" height="39" viewBox="0 0 252 39" fill="none" xmlns="http://www.w3.org/2000/svg">
<path d="M183.429 20.0026C183.378 20.0026 183.327 20.0026 156.377 20.0026C129.428 20.0026 75.5804 20.0026 48.3319 20.6337C21.0835 21.2648 22.0654 22.5271 23.5796 23.3786C25.0937 24.2301 27.1103 24.6327 41.1411 24.8052C55.1719 24.9778 81.1558 24.9082 107.589 23.5622C134.022 22.2161 160.117 19.5957 175.26 18.2458C190.402 16.8959 193.801 16.8959 194.965 17.4188C196.13 17.9418 194.956 18.9877 191.978 20.0523C189 21.1168 184.254 22.1684 162.876 22.7675C141.497 23.3665 103.63 23.4813 76.5947 22.5575C49.5592 21.6337 34.5027 19.668 55.6987 20.3436C76.8947 21.0192 134.799 24.3959 128.848 27.8011C122.897 31.2063 51.3355 34.5377 46.2679 36.1044C41.2004 37.6711 104.796 37.372 145.957 36.0845C187.118 34.7971 203.918 32.5303 217.141 31.3663C239.445 29.4031 250.408 30.577 250.96 31.3226C251.566 32.1404 246.597 32.1115 211.99 26.9436C177.383 21.7757 111.694 11.0251 74.2924 5.48686C29.9078 -1.08533 20.7738 0.716164 16.0516 3.62096C8.06662 8.53277 2.25588 13.6272 1.02864 14.64C0.609813 14.9857 4.29918 14.4715 46.3279 15.8737C88.3566 17.2759 169.557 20.4775 210.077 22.5078C250.596 24.5381 247.974 25.2999 224.523 25.8871C201.071 26.4743 156.871 26.8637 111.33 27.2649" stroke="#205245" stroke-width="2" stroke-linecap="round"/>
</svg>
