<svg width="430" height="38" viewBox="0 0 430 38" fill="none" xmlns="http://www.w3.org/2000/svg">
<path d="M313.311 19.9143C313.224 19.9143 313.137 19.9143 267 19.9143C220.863 19.9143 128.679 19.9143 82.0308 20.5425C35.3826 21.1706 37.0636 22.427 39.6557 23.2746C42.2479 24.1221 45.7002 24.5228 69.7203 24.6946C93.7405 24.8664 138.224 24.7971 183.476 23.4573C228.729 22.1175 273.402 19.5093 299.325 18.1656C325.249 16.822 331.068 16.822 333.061 17.3425C335.054 17.8631 333.044 18.9041 327.947 19.9637C322.849 21.0234 314.724 22.07 278.125 22.6663C241.526 23.2626 176.699 23.3768 130.416 22.4573C84.1319 21.5379 58.3558 19.5812 94.6424 20.2537C130.929 20.9262 230.059 24.2871 219.871 27.6765C209.683 31.0659 87.1727 34.3819 78.4973 35.9413C69.8219 37.5007 178.694 37.2029 249.16 35.9215C319.627 34.64 348.388 32.3838 371.025 31.2252C409.208 29.2711 427.977 30.4395 428.922 31.1817C429.959 31.9957 421.452 31.967 362.206 26.8231C302.96 21.6791 190.504 10.9785 126.474 5.46601C50.4895 -1.07564 34.8524 0.717483 26.7681 3.60878C13.0983 8.49776 3.15053 13.5685 1.04956 14.5767C0.332539 14.9207 6.64857 14.4089 78.5999 15.8046C150.551 17.2002 289.563 20.387 358.931 22.4079C428.298 24.4287 423.809 25.187 383.662 25.7715C343.514 26.3559 267.844 26.7435 189.881 27.1428" stroke="#205245" stroke-width="2" stroke-linecap="round"/>
</svg>
