<svg width="795" height="74" viewBox="0 0 795 74" fill="none" xmlns="http://www.w3.org/2000/svg">
<path d="M775.527 50.199C775.151 50.199 774.775 50.199 711.073 50.2515C647.371 50.304 520.353 50.4091 447.832 50.8217C375.311 51.2342 361.134 51.9511 311.488 52.307C177.186 53.2698 82.3811 52.1636 68.4308 51.2896C61.984 50.8857 56.8883 50.4609 52.4636 49.6206C43.5138 47.9208 40.7336 37.9783 44.1007 25.3661C45.6096 19.7141 85.9285 20.2102 210.712 16.6965C311.109 13.8694 486.11 6.81121 591.407 3.44507C726.546 -0.875066 761.181 1.30256 766.694 4.05676C785.711 13.5584 792.676 33.0075 793.994 44.1856C794.245 46.3094 786.874 47.301 698.438 51.9414C610.002 56.5817 438.201 64.7249 327.153 68.9085C171.578 74.7696 117.122 72.8051 102.332 72.1649C73.6397 70.9229 31.2635 62.3694 4.05763 55.1328C-0.153792 54.0126 0.760434 52.0003 2.23477 50.5771C8.81471 44.2254 33.7694 34.9446 51.5976 27.471C59.0898 24.3303 106.514 20.3929 186.762 13.8572C269.636 7.10763 345.238 8.31756 397.165 8.90353C419.65 9.15727 434.156 10.1384 480.777 13.475C605.851 22.4264 691.683 29.4092 705.215 31.5824C725.168 34.7869 739.027 39.0802 746.425 42.2029C754.879 45.7719 756.421 50.6153 754.532 54.6251C753.65 56.4975 747.643 57.6049 742.305 58.366C736.966 59.127 731.128 59.3969 663.669 58.577C596.209 57.7571 467.305 55.8392 390.128 54.2858C291.406 51.6014 253.977 49.194 228.26 47.2419C217.775 46.532 212.498 46.3919 206.601 44.9741" stroke="#F7ADC5" stroke-width="2" stroke-linecap="round"/>
</svg>
