<svg width="169" height="60" viewBox="0 0 169 60" fill="none" xmlns="http://www.w3.org/2000/svg">
<path d="M6.83248 29.2173C6.88459 29.223 10.5998 29.7404 19.9656 32.2889C25.7091 33.8517 33.1976 37.8612 43.3202 40.8728C53.4428 43.8843 65.9044 46.262 74.0186 48.3605C82.1329 50.459 85.5221 52.2062 91.6469 54.0545C97.7718 55.9027 106.529 57.799 114.52 58.22C129.331 59.0002 139.952 54.495 145.805 50.9073C153.687 46.0756 161.766 30.175 165.657 21.2373C166.394 19.5428 166.894 16.6946 167.221 14.5251C167.548 12.3557 167.539 10.6505 166.183 9.17058C158.72 1.02247 154.597 2.05557 151.885 1.43524C149.93 0.988026 146.737 0.784871 122.822 1.32095C98.907 1.85703 54.3515 3.26962 30.6683 4.42536C6.98513 5.58111 5.52439 6.4372 4.40877 7.49516C3.29314 8.55312 2.56687 9.78701 2.02343 11.2779C1.47998 12.7688 1.14136 14.4793 1.03632 16.1137C0.828233 19.3516 1.54126 22.7207 2.39398 26.1769C3.62949 28.8327 5.02657 30.3043 6.46727 30.9174C7.24339 31.2058 8.1109 31.4484 9.6853 32.4043" stroke="#00938A" stroke-width="2" stroke-linecap="round"/>
</svg>
