<svg width="229" height="68" viewBox="0 0 229 68" fill="none" xmlns="http://www.w3.org/2000/svg">
<path d="M221.869 45.9272C221.761 45.9272 221.654 45.9272 203.489 45.9752C185.323 46.0231 149.102 46.1191 128.421 46.4958C107.741 46.8726 103.698 47.5272 89.5406 47.8522C51.2421 48.7314 24.2071 47.7212 20.2289 46.9231C18.3905 46.5543 16.9374 46.1664 15.6756 45.399C13.1234 43.8468 12.3306 34.7676 13.2908 23.2505C13.7211 18.0892 25.2187 18.5422 60.8027 15.3336C89.4325 12.752 139.337 6.30664 169.364 3.23277C207.901 -0.71226 217.778 1.27629 219.35 3.79135C224.773 12.468 226.759 30.2284 227.135 40.436C227.206 42.3754 225.104 43.2809 199.886 47.5183C174.667 51.7558 125.675 59.1919 94.0076 63.0122C49.643 68.3645 34.1141 66.5705 29.8965 65.9859C21.7143 64.8518 9.63008 57.0409 1.8719 50.4326C0.670943 49.4097 0.931649 47.5721 1.35208 46.2725C3.22845 40.4723 10.3447 31.9973 15.4287 25.1726C17.5652 22.3046 31.0891 18.7091 53.9729 12.7409C77.6057 6.57732 99.165 7.6822 113.973 8.21729C120.385 8.449 124.521 9.34494 137.816 12.3918C173.483 20.5661 197.959 26.9425 201.818 28.9271C207.508 31.8533 211.46 35.7738 213.57 38.6254C215.981 41.8845 216.42 46.3074 215.882 49.9691C215.63 51.6789 213.917 52.6901 212.395 53.3851C210.872 54.0801 209.208 54.3265 189.97 53.5778C170.733 52.8291 133.974 51.0777 111.966 49.6592C83.8138 47.2079 73.1404 45.0095 65.8069 43.2269C62.8169 42.5786 61.312 42.4507 59.6303 41.156" stroke="#F7ADC5" stroke-width="2" stroke-linecap="round"/>
</svg>
