<svg width="234" height="25" viewBox="0 0 234 25" fill="none" xmlns="http://www.w3.org/2000/svg">
<path d="M232.875 1.94988C232.762 1.94988 232.65 1.94988 207.913 2.03829C183.176 2.1267 133.819 2.30353 102.272 3.5929C70.7244 4.88226 58.4821 7.27882 45.0478 8.47108C31.6136 9.66334 17.3584 9.57869 7.88262 9.24539C-1.5932 8.91209 -5.85771 8.3327 26.2167 7.76617C58.2911 7.19964 126.834 6.66352 162.964 6.56228C207.755 6.43677 220.507 14.1469 222.197 15.4242C222.58 15.7135 218.626 14.7376 179.612 15.2873C140.597 15.837 65.7791 17.8047 28.5157 18.3424C-8.74768 18.8801 -6.18935 17.9283 26.359 16.1277C58.9073 14.3272 121.368 11.7068 160.353 11.2344C199.337 10.762 212.953 12.5171 218.607 13.3338C221.579 13.7631 205.397 11.4232 156.456 8.16391C120.924 5.79762 63.4009 7.94644 33.2441 7.8061C3.08732 7.66576 1.96993 6.6951 1.80251 5.59498C1.63509 4.49487 2.4515 3.29471 4.18886 2.4366C5.92622 1.5785 8.5598 1.09881 42.11 1.01348C75.6603 0.928143 140.047 1.2517 175.408 1.88019C215.176 2.58702 221.759 5.53519 223.705 7.79493C225.899 10.3426 197.871 11.1826 154.273 13.6177C131.318 14.8998 106.98 20.1725 88.5369 22.3587C58.4974 25.9196 39.1685 22.6938 27.8963 19.5028C23.6447 18.2991 22.7153 16.8666 22.4262 15.4616C22.1372 14.0566 22.6037 12.4483 23.5269 11.0262C24.45 9.60417 25.8157 8.41718 33.5077 7.95055C41.1996 7.48392 55.1763 7.77361 69.5766 8.07208" stroke="#F7CB1B" stroke-width="2" stroke-linecap="round"/>
</svg>
