<svg width="506" height="52" viewBox="0 0 506 52" fill="none" xmlns="http://www.w3.org/2000/svg">
<path d="M480.555 17.1033C473.746 16.8231 416.629 11.468 360.679 7.33086C350.146 6.55196 340.855 5.86609 298.803 4.56515C256.751 3.26422 182.181 1.51503 137.452 1.06071C58.8838 0.262673 34.6387 7.52779 20.5763 11.3452C10.865 13.9815 4.65845 17.3061 2.39164 19.6898C-3.0273 25.3881 8.54581 31.9918 17.0648 36.731C28.2122 42.9324 47.532 48.237 119.667 50.5147C174.955 52.2605 279.073 48.8122 337.475 47.7858C405.548 46.5893 424.884 45.5068 440.576 45.2461C468.326 44.7851 499.327 34.2355 502.686 31.9843C506.225 29.6123 505.068 26.3068 503.409 23.8458C493.943 19.4407 487.968 16.7072 482.875 15.7159C480.256 15.2456 477.567 14.8417 472.347 15.7444" stroke="#826887" stroke-width="2" stroke-linecap="round"/>
</svg>
