<svg width="139" height="25" viewBox="0 0 139 25" fill="none" xmlns="http://www.w3.org/2000/svg">
<path d="M138 1.95332C137.934 1.95332 137.867 1.95332 123.252 2.04205C108.637 2.13079 79.4746 2.30825 60.8352 3.60229C42.1958 4.89633 34.9626 7.30157 27.0251 8.49815C19.0877 9.69473 10.6652 9.60977 5.06656 9.27526C-0.532103 8.94076 -3.05173 8.35927 15.899 7.79069C34.8497 7.2221 75.3472 6.68404 96.6941 6.58243C123.159 6.45647 130.693 14.1945 131.692 15.4765C131.918 15.7668 129.582 14.7874 106.53 15.3391C83.4791 15.8908 39.274 17.8656 17.2574 18.4052C-4.75923 18.9449 -3.24768 17.9896 15.9831 16.1825C35.2138 14.3754 72.118 11.7455 95.1515 11.2715C118.185 10.7974 126.23 12.5588 129.57 13.3785C131.326 13.8094 121.766 11.4609 92.8494 8.18987C71.8554 5.815 37.8688 7.97161 20.0511 7.83076C2.23332 7.68991 1.57313 6.71573 1.47421 5.61163C1.37529 4.50753 1.85766 3.30302 2.88415 2.44181C3.91065 1.58059 5.46666 1.09917 25.2894 1.01353C45.1121 0.927883 83.1544 1.25261 104.047 1.88338C127.543 2.59277 131.433 5.55162 132.582 7.81955C133.878 10.3764 117.319 11.2195 91.5593 13.6634C77.997 14.9502 63.6168 20.242 52.7201 22.4361C34.9716 26.0099 23.5514 22.7724 16.8914 19.5698C14.3794 18.3618 13.8303 16.9241 13.6595 15.514C13.4887 14.1039 13.7643 12.4897 14.3098 11.0625C14.8552 9.63535 15.6621 8.44406 20.2068 7.97573C24.7514 7.50741 33.0094 7.79815 41.5176 8.0977" stroke="#F7CB1B" stroke-width="2" stroke-linecap="round"/>
</svg>
