<svg width="419" height="165" viewBox="0 0 419 165" fill="none" xmlns="http://www.w3.org/2000/svg">
<g clip-path="url(#clip0_2011_3501)">
<path d="M286.236 161.055C283.462 162.462 283.334 159.36 280.262 163.226C280.084 163.444 280.748 163.761 281.312 163.989C280.371 164.266 278.845 164.346 277.607 164.227L279.192 161.997C277.498 161.828 276.586 163.057 275.546 164.286L274.218 163.186C273.921 162.938 272.891 163.513 272.554 163.771C269.274 166.298 267.729 164.197 264.707 163.989C263.736 164.078 262.646 163.9 261.705 163.642L259.485 164.019L260.407 162.334C260.615 161.957 259.02 161.61 258.614 161.749C253.313 163.543 246.516 156.267 242.038 153.69L243.583 152.709C240.661 149.993 235.112 148.674 236.41 143.52C234.587 140.903 231.823 137.077 232.923 132.844C231.863 130.238 231.417 122.853 231.615 119.949L231.991 114.527L230.822 116.568L231.892 110.968L232.457 112.604C232.16 109.561 232.021 107.033 231.972 104.01C231.932 101.71 230.644 98.766 231.347 96.4961C231.803 95.0192 231.863 93.9586 231.744 92.4023L231.526 89.4088C231.318 86.6135 231.387 83.9967 231.496 80.7356L236.133 80.2201C239.284 79.8633 241.959 80.2895 245 80.9239C246.704 80.8644 249.013 80.1111 251.004 80.5274L247.992 81.2708C249.677 81.5583 251.351 81.1915 253.64 80.7356C254.343 82.1134 253.907 84.6509 253.313 86.2171L253.838 89.2899C254.314 92.0653 254.175 95.1679 253.769 97.8144C253.719 98.1614 254.799 103.534 252.51 106.111C257.137 109.997 254.74 118.333 257.702 115.706L259.961 117.907C260.08 120.226 262.17 120.305 263.776 120.93C267.749 122.486 271.137 122.843 274.793 120.504C277.488 118.779 279.489 116.796 281.263 114.17C283.769 110.453 284.701 108.867 284.879 104.119L285.345 92.1545C285.632 84.8194 286.603 89.0222 286.98 83.055L304.388 83.0352L304.625 125.321C304.665 131.546 303.952 136.879 301.99 142.836C301.197 145.255 299.691 147.396 297.73 149.487C295.471 151.896 297.026 153.64 292.776 156.356C292.587 156.475 292.399 155.643 292.221 155.197L289.001 157.477L290.408 158.944L286.227 161.075L286.236 161.055Z" fill="black"/>
<path d="M29.119 153.333C28.039 153.442 26.2259 153.789 25.2847 153.75C17.4377 153.413 10.7995 149.239 5.7366 143.451C2.14999 139.347 0.752991 134.421 0 128.85C3.79468 126.768 11.4534 125.777 13.4349 124.845C13.8114 124.667 13.3656 123.418 13.2071 123.021C12.028 120.167 12.1172 117.56 12.1965 114.596C12.2559 112.237 11.4435 109.402 11.3345 107.092C11.7506 105.943 12.3946 104.257 12.7513 102.979C15.1886 94.0875 22.243 88.2194 30.7736 85.3151C32.2895 84.7997 33.7162 83.6895 35.559 83.6399C42.0982 83.4417 48.4689 84.9781 53.8686 88.8736C60.2591 93.4927 62.5478 101.046 64.351 108.143L56.3356 110.403L50.6486 112.009C49.1129 113.912 50.9953 115.667 51.6096 117.213C53.8884 122.903 54.2154 129.425 52.3329 135.105C51.0152 139.079 48.8156 142.301 46.3882 145.413C44.7435 147.525 42.9403 148.536 40.5129 149.547C36.8272 151.083 33.2109 152.927 29.119 153.343V153.333Z" fill="black"/>
<path d="M97.0368 157.972C95.8776 158.101 94.1437 157.625 93.2619 157.14C91.1516 155.98 89.3186 157.477 87.3767 157.596C85.3258 157.724 82.7993 157.516 80.7187 157.427C87.4262 154.434 86.9507 158.567 90.3094 155.316C86.5543 155.246 82.7993 154.87 79.3811 155.415L73.7535 156.317L75.3387 156.862L73.5355 157.15C73.1392 157.209 73.4464 155.801 73.5553 155.484L70.2164 154.86L97.6412 120.722L95.5803 120.395C95.2732 120.345 95.4713 121.009 95.4912 121.872L89.7744 122.06C88.4269 122.11 86.9804 122.229 85.4645 122.139C80.0648 121.842 74.9028 121.931 69.3644 121.991L69.2752 114.071L69.1067 110.473C68.9978 108.054 69.0374 105.675 69.1067 103.137L69.2851 97.4775L69.2455 92.1844C69.2455 91.4905 69.5922 90.1424 69.9687 89.6567C70.4047 89.0917 71.9206 88.5168 72.7231 88.5069L86.3067 88.3087C87.4659 88.2889 89.0313 87.9419 90.3094 88.0311C92.8359 88.1996 95.2038 88.1303 97.7402 88.0311C103.566 87.8131 109.233 88.2096 115.198 88.4177C116.466 88.4574 118.081 89.2107 119.2 89.7757C120.766 88.3087 122.698 87.3274 124.828 87.5454C127.513 87.8329 130 87.7833 132.725 87.9518L139.591 88.3682L148.022 88.1897L151.629 88.1699L146.833 93.5027C145.813 94.6426 144.753 95.6537 143.792 96.863L140.928 100.481L135.241 107.588C134.072 109.045 133.101 111.404 131.863 112.693L129.594 115.052L126.77 116.45C122.064 120.92 124.788 119.79 120.409 123.725C124.214 122.466 130.961 124.142 133.091 122.347C134.815 122.09 137.728 122.605 139.779 122.694L148.438 123.091L148.23 131.625C148.181 133.568 148.111 144.055 148.25 145.374C148.478 147.406 148.825 149.091 148.656 151.123C148.547 152.411 148.815 153.432 149.578 154.572L148.805 157.278C145.298 157.259 142.187 157.328 138.58 157.516C136.628 157.615 134.161 156.872 132.239 157.09C128.425 157.516 124.67 158.735 120.855 158.329C112.8 157.467 105.141 157.07 97.0269 157.952L97.0368 157.972ZM108.034 155.266L102.486 155.217C100.237 155.197 97.9681 155.415 95.6001 155.653C96.3135 157.506 97.7501 156.941 99.0976 156.565C104.715 155.018 102.645 157.705 108.034 155.266Z" fill="black"/>
<path d="M108.034 155.266C102.644 157.705 104.715 155.018 99.0971 156.565C97.7496 156.931 96.3229 157.496 95.5996 155.653C97.9577 155.415 100.236 155.197 102.486 155.217L108.034 155.266Z" fill="white"/>
<path d="M410.954 133.439C409.537 133.856 408.992 133.994 407.377 133.856L395.617 132.805C396.192 127.076 394.695 125.569 394.943 118.828C394.993 117.57 395.3 116.459 394.834 115.349C392.555 109.858 396.281 108.163 394.329 100.084L395.637 97.2197C394.596 95.8419 394.537 94.5335 395.161 93.2845L396.122 94.1964L395.766 95.7329C395.676 96.0996 396.419 96.7241 397.004 97.1107L397.272 92.6204C397.321 91.6986 395.805 90.3307 395.082 90.0729L397.182 88.7645C397.202 81.4592 396.984 74.015 397.4 67.0467C397.519 64.9552 400.353 64.6677 401.571 64.7173C407.318 64.9255 412.549 64.8362 418.286 64.519L418.127 71.0116C418.108 71.7451 417.612 73.4005 417.662 74.2034L418.058 80.4778C418.177 82.3215 418.187 83.9372 418.197 85.7809L418.217 91.8571C418.217 93.6215 417.573 95.5842 416.919 96.9422C417.582 97.3585 418.722 98.4984 418.652 99.1427C418.177 103.455 417.959 107.4 418.018 111.513L418.127 118.591C418.187 122.813 418.861 120.048 418.989 124.786C415.324 126.966 418.92 129.653 416.968 132.676C415.353 133.509 412.539 133.003 410.944 133.479L410.954 133.439Z" fill="black"/>
<path d="M383.6 133.895L390.376 143.391C391.843 145.453 392.953 147.257 395.122 149.517L371.274 148.932L367.876 148.724C367.182 148.684 365.766 149.051 364.854 149.081L350.567 149.507L343.523 149.368L333.654 149.884L315.067 149.368C314.79 145.899 315.167 142.33 315.236 138.752C315.276 136.591 314.968 134.767 315.256 132.507L315.999 138.841L316.217 135.263C316.415 132.012 316.138 128.543 315.602 125.549C315.83 124.934 316.286 123.636 316.286 122.972L316.227 83.3821C318.456 82.3413 320.705 82.1332 323.152 82.1431L344.999 82.2125C346.515 82.2125 348.645 81.816 349.556 83.1938L355.511 92.214C356.482 91.53 357.384 90.7568 357.978 89.9143L363.289 82.3017L368.114 82.2025L377.774 82.0935L393.081 82.3413L390.05 86.1179C388.92 88.4869 387.87 90.4 386.285 92.4419L379.577 101.076L373.94 108.758L370.184 113.882L374.891 120.315C376.644 122.724 378.695 124.934 379.884 127.71C380.845 129.97 382.183 131.913 383.6 133.885V133.895ZM321.141 148.318L316.405 148.099L316.068 143.401C314.78 144.799 315.226 147.188 316.266 148.377C317.089 149.329 319.853 148.922 321.151 148.318H321.141Z" fill="black"/>
<path d="M321.141 148.317C319.843 148.922 317.078 149.338 316.256 148.377C315.216 147.177 314.77 144.799 316.058 143.401L316.395 148.099L321.131 148.317H321.141Z" fill="white"/>
<path d="M204.556 156.674C197.987 157.001 207.528 157.695 197.719 157.06L189.318 156.515C185.681 156.277 176.101 158.052 171.761 157.417C172.306 152.867 169.928 150.102 170.532 147.406C171.503 143.114 171.593 139.198 170.859 134.996L172.266 132.369C170.899 130.961 171.058 129.911 171.533 127.551L172.564 129.256C172.237 130.396 172.336 131.516 173.366 132.141C173.861 129.603 174.268 126.461 172.356 124.657C172.177 124.558 171.603 124.161 171.761 124.132L173.634 123.815L173.723 105.229L168.283 105.744C167.005 105.863 164.499 106.686 163.468 106.032C158.316 102.741 160.853 106.161 154.541 104.486L154.244 99.2519C154.185 98.102 153.907 96.9522 153.432 96.1295L154.264 86.4353C154.383 85.0178 154.393 83.5409 154.373 82.1829L154.294 76.0076L157.385 75.6606C158.722 75.5119 159.822 75.4624 161.189 75.4921L167.719 75.6408C169.453 75.6804 171.771 74.1341 173.614 74.5703C177.884 75.5912 181.827 75.7102 186.177 74.937L189.02 76.2851C190.467 75.1254 192.032 75.0956 193.984 75.5417L192.448 76.751C191.448 76.4933 189.922 75.8291 189.367 77.6034C191.299 77.7819 193.4 77.9405 195.133 77.4349C196.382 77.0682 197.165 77.534 198.304 77.5539L222.429 77.9107C224.401 77.9405 224.847 80.5176 224.827 81.5882L224.768 85.3251C224.708 88.616 224.629 91.8672 224.827 95.0887C225.045 98.6373 224.926 101.789 224.619 105.437C222.836 105.744 221.102 104.981 219.596 105.031L210.837 105.328L210.778 112.455C210.768 114.16 210.074 116.242 209.559 117.51C210.897 118.442 211.353 119.602 211.204 121.198L210.659 126.768C210.619 127.195 210.639 139.357 210.709 140.765C210.976 146.306 211.521 142.529 211.511 147.485C207.934 150.845 211.333 151.509 209.718 156.406L204.556 156.664V156.674ZM180.51 77.5142C182.6 77.7422 184.522 77.6332 186.712 77.3754C186.098 74.9866 184.968 76.5825 183.948 76.6618C182.64 76.7609 181.481 76.7609 180.51 77.5142ZM173.584 141.072C173.574 138.227 173.475 136.552 173.247 134.718C170.889 135.233 172.554 136.562 172.573 137.484C172.603 138.98 172.762 140.209 173.584 141.072Z" fill="black"/>
<path d="M180.51 77.5143C181.481 76.7609 182.64 76.751 183.948 76.6618C184.958 76.5825 186.098 74.9966 186.712 77.3755C184.522 77.6332 182.61 77.7423 180.51 77.5143Z" fill="white"/>
<path d="M173.584 141.072C172.761 140.209 172.603 138.98 172.573 137.484C172.553 136.562 170.889 135.233 173.247 134.718C173.475 136.552 173.564 138.227 173.584 141.072Z" fill="white"/>
<path d="M103.932 66.0158C98.3637 71.6162 98.9582 68.9697 95.4508 72.4489C89.625 72.9346 85.8799 71.8343 79.7569 72.5084L71.0876 73.45L66.8867 73.8366L67.0254 69.8419C63.4388 60.8317 68.254 61.6643 65.3906 51.7818L66.7678 49.2343C65.9455 47.5789 65.6284 45.874 66.0743 44.4268L67.1641 45.6857C67.3226 45.8641 67.065 46.4192 66.966 46.9247C66.8669 47.4303 67.5208 48.481 68.0558 48.6594C68.4918 45.993 68.3828 43.4455 67.1344 41.6316C66.4607 41.3738 66.104 41.2252 66.312 41.1558L68.0459 40.5511L67.5505 17.8421L68.9079 15.4433C74.377 14.6503 76.7846 15.364 83.6011 14.799C86.4447 14.571 88.9513 14.5016 91.884 14.7693C93.172 14.8882 94.6384 15.7109 95.8273 16.1074C98.3538 16.95 100.484 17.7429 102.505 19.5371L103.991 20.0822L107.905 24.5031C109.322 26.1089 112.254 31.7193 111.036 34.009C112.809 34.2568 113.751 35.5256 113.731 37.3098L113.671 44.1889C113.661 45.5172 113.82 47.6681 113.493 48.8279L111.204 56.9956L110.104 60.2964C109.777 61.2678 108.906 62.7844 108.014 63.052C106.052 63.6369 105.279 64.6677 103.952 66.0059L103.932 66.0158Z" fill="black"/>
<path d="M142.702 59.7909L139.512 59.8306C133.785 59.8901 128.534 60.8317 122.213 60.3956L135.757 44.9919C136.46 44.189 137.094 41.9984 137.709 41.1162L139.928 37.9443C137.501 37.6964 135.876 37.6271 133.686 37.8352L124.918 38.6678L121.083 39.104C121.965 36.0114 120.578 27.2192 120.588 26.9317L120.697 18.4567L124.749 17.9512L134.082 16.8113C136.658 16.4941 138.997 16.2661 141.662 16.3057C144.327 16.3454 147.359 15.4632 149.41 16.5238C151.104 17.3961 152.917 17.1582 154.532 16.1372C155.186 16.3057 156.593 16.613 157.376 16.5634L172.396 15.592C172.614 16.5436 172.178 17.5448 171.494 18.2882L163.657 26.8028C158.218 32.7106 159.278 29.8657 155.226 38.7174C161.844 38.6282 167.917 38.0533 174.377 37.2504C173.902 40.125 174.159 43.9908 174.427 46.7067C174.457 46.9843 174.139 47.7772 174.139 48.0251C174.139 48.2729 174.625 48.6099 174.942 48.8874L174.625 57.9473L163.845 59.216C162.102 59.4242 160.031 59.7612 158.376 59.8405L148.082 60.3659L144.594 60.5443C144.277 60.4551 143.108 59.8009 142.732 59.8009L142.702 59.7909Z" fill="black"/>
<path d="M197.056 60.8812L183.155 61.01L182.6 52.4161C182.491 50.731 182.194 49.0162 182.283 47.3113C182.422 44.7242 182.373 42.3948 182.283 39.8572L182.135 35.1191L183.135 34.346C183.512 34.0486 182.709 32.4527 182.779 31.9769C182.908 31.1443 183.205 29.5683 183.185 28.5275L182.828 13.6789C182.848 12.8561 185.127 12.3407 185.969 12.311L197.175 12.0037C199.037 11.9541 201.138 11.964 202.763 11.9938C202.604 19.7154 203.754 23.0955 203.149 30.8073C203.07 31.8481 203.417 32.8195 203.486 33.7612C203.942 40.1843 203.337 46.4092 204.279 53.2785L203.773 56.0836L203.684 60.3063C201.346 60.5144 199.176 60.8713 197.066 60.8911L197.056 60.8812Z" fill="black"/>
<path d="M339.201 58.2446L337.001 56.2819C335.386 56.619 334.207 56.4604 332.592 55.5088L334.019 54.5176C335.059 55.1321 336.04 55.5583 337.15 55.0627C335.763 54.2103 334.009 53.2686 332.632 53.1199C330.809 52.9118 330.779 52.1783 329.59 51.2168C323.814 46.5481 319.395 40.1745 319.395 32.5024C315.125 31.1047 320.871 21.0338 322.308 18.7243C325.161 14.1349 327.757 12.8265 332.265 10.6259C333.791 9.88252 335.267 9.0598 336.902 8.42542L339.914 7.24585L345.106 6.42313C347.167 6.09603 353.032 6.25463 354.261 8.36594C354.776 7.96945 355.687 7.07735 356.272 6.96831C356.856 6.85928 358.055 7.40445 358.679 7.72164L363.336 10.1303C366.596 11.8154 369.221 13.8375 371.659 16.7022L374.581 20.1417C378.891 25.2267 375.285 22.2531 376.731 29.3007C378.168 36.269 376.147 35.6247 377.326 38.8165C375.156 43.9411 371.173 47.9358 367.141 51.6133C363.346 55.0826 361.85 55.9053 356.807 57.184C355.222 57.5904 353.23 59.553 351.467 59.3349C347.335 58.8195 343.778 58.4626 339.211 58.2347L339.201 58.2446Z" fill="black"/>
<path d="M309.934 47.3313L307.922 48.0153C312.203 49.1849 311.301 46.1518 315.026 48.719L315.304 61.1986C315.324 62.0709 313.738 62.8837 312.916 62.9035L301.433 63.1414L287.017 63.7262C285.293 63.7956 282.549 63.2604 281.092 63.4983L278.278 63.9641L269.817 64.0137L269.381 55.2314L269.252 47.252L269.223 40.0359C269.193 34.0488 268.272 28.1411 268.856 22.0153C268.965 20.8655 268.509 19.6166 268.48 18.6451L268.133 6.86935L279.656 6.29443L285.144 6.68101C285.511 6.71075 286.353 6.76031 286.621 6.87926C286.849 6.97838 287.394 13.2925 287.394 13.6196L287.364 23.4328L291.812 21.4305L295.667 19.7553C298.015 18.7344 299.134 20.9944 299.828 22.6894L302.652 29.5288C302.889 30.1137 302.225 31.3923 301.671 31.6203L296.439 33.801C293.834 34.8914 290.792 36.1205 288.543 37.5082L288.513 45.1903C288.513 45.894 288.345 47.1727 288.84 47.4205C289.335 47.6683 290.683 47.6782 291.376 47.6188L296.677 47.1529L305.485 47.0736C306.724 47.0637 307.734 47.1826 309.934 47.3412V47.3313Z" fill="black"/>
<path d="M251.587 63.8153C246.098 65.6987 247.941 62.3087 242.036 62.4871L235.407 62.6853C234.357 62.7151 232.594 63.1413 231.603 63.29C224.856 62.7646 220.348 61.5553 213.214 61.9221C211.262 62.0212 209.687 62.1897 207.824 61.7437L209.528 56.4009C210.083 54.6564 210.697 53.1695 211.441 51.3853C212.085 49.839 211.441 46.9149 212.412 45.3686C214.928 41.364 216.385 37.3693 217.306 32.8493L219.079 31.3625C219.496 31.0156 218.832 29.4692 219.01 28.9439L220.031 25.9405L220.982 28.0914C220.516 28.706 220.06 29.2908 219.922 29.6873C219.783 30.0838 220.239 30.847 220.595 31.3228C221.764 28.6862 223.835 24.6717 221.319 23.0956L223.617 23.1749L231.92 0C232.524 0.267632 233.178 0.297369 234.04 0.178421C234.803 1.33816 235.962 3.21158 236.567 4.66869C240.193 13.3419 243.859 17.6241 246.227 25.6629L249.903 32.6114L250.883 33.4639C251.953 37.5676 257.026 43.7925 256.561 48.5504C258.542 48.7685 259.335 49.9282 259.959 51.643L261.554 56.0243C262.099 57.521 262.802 58.8889 263.546 60.2866L265.715 64.3407L261.207 63.9244C259.731 63.7856 257.958 63.7559 256.452 63.7658L251.577 63.7955L251.587 63.8153ZM217.93 34.9408L217.375 39.9366C221.051 33.3549 218.227 32.2546 217.93 34.9408Z" fill="black"/>
<path d="M217.93 34.9407C218.227 32.2446 221.051 33.3449 217.375 39.9365L217.93 34.9407Z" fill="white"/>
</g>
<defs>
<clipPath id="clip0_2011_3501">
<rect width="419" height="165" fill="white"/>
</clipPath>
</defs>
</svg>
