<svg width="93" height="51" viewBox="0 0 93 51" fill="none" xmlns="http://www.w3.org/2000/svg">
<path d="M6.98121 46.7442C7.01062 46.7391 9.12821 46.4531 14.6998 46.6223C18.1165 46.7261 22.941 48.272 29.0109 48.6388C35.0809 49.0057 42.3042 48.506 47.1107 48.5743C51.9172 48.6426 54.0881 49.2941 57.7657 49.5347C61.4434 49.7753 66.5619 49.5853 70.9866 48.4754C79.1883 46.418 84.1203 41.3196 86.6307 37.7196C90.0116 32.8713 91.4248 20.0698 91.8649 12.9892C91.9483 11.6467 91.6865 9.52083 91.4574 7.91116C91.2284 6.30149 90.9038 5.0833 89.8891 4.26397C84.3023 -0.246957 82.2536 1.22015 80.6624 1.25528C79.5152 1.2806 77.7404 1.69917 64.8344 6.30572C51.9284 10.9123 27.9608 19.7908 15.2969 24.7997C2.63294 29.8087 1.99899 30.679 1.59057 31.6329C1.18216 32.5867 1.0185 33.5976 1.00244 34.7601C0.986384 35.9226 1.1229 37.206 1.3722 38.3938C1.86605 40.7468 2.88548 43.0311 3.99722 45.3529C5.16709 47.0347 6.20281 47.8407 7.1013 48.0248C7.57749 48.0941 8.09478 48.1145 9.13027 48.5203" stroke="#00938A" stroke-width="2" stroke-linecap="round"/>
</svg>
