<svg width="321" height="25" viewBox="0 0 321 25" fill="none" xmlns="http://www.w3.org/2000/svg">
<path d="M320.004 1.95332C319.849 1.95332 319.693 1.95332 285.662 2.04205C251.631 2.13079 183.728 2.30825 140.327 3.60229C96.9259 4.89633 80.0835 7.30157 61.6015 8.49815C43.1194 9.69473 23.5079 9.60977 10.4716 9.27526C-2.56468 8.94076 -8.43155 8.35927 35.6946 7.79069C79.8207 7.2221 174.118 6.68404 223.823 6.58243C285.445 6.45647 302.988 14.1945 305.314 15.4765C305.841 15.7668 300.401 14.7874 246.727 15.3391C193.053 15.8908 90.1224 17.8656 38.8575 18.4052C-12.4074 18.9449 -8.88781 17.9896 35.8904 16.1825C80.6686 14.3754 166.599 11.7455 220.232 11.2715C273.864 10.7974 292.596 12.5588 300.374 13.3785C304.464 13.8094 282.201 11.4609 214.871 8.18987C165.987 5.815 86.8506 7.97161 45.3626 7.83076C3.87452 7.68991 2.33728 6.71573 2.10695 5.61163C1.87662 4.50753 2.99979 3.30302 5.38996 2.44181C7.78012 1.58059 11.4032 1.09917 57.5598 1.01353C103.716 0.927883 192.297 1.25261 240.944 1.88338C295.654 2.59277 304.711 5.55162 307.388 7.81955C310.406 10.3764 271.848 11.2195 211.867 13.6634C180.288 14.9502 146.804 20.242 121.431 22.4361C80.1045 26.0099 53.5129 22.7724 38.0054 19.5698C32.1562 18.3618 30.8776 16.9241 30.4799 15.514C30.0822 14.1039 30.7241 12.4897 31.9941 11.0625C33.2642 9.63535 35.143 8.44406 45.7251 7.97573C56.3072 7.50741 75.5357 7.79815 95.3468 8.0977" stroke="#F7CB1B" stroke-width="2" stroke-linecap="round"/>
</svg>
