<svg width="524" height="40" viewBox="0 0 524 40" fill="none" xmlns="http://www.w3.org/2000/svg">
<path d="M497.682 13.2385C490.63 13.0255 431.473 8.95567 373.525 5.81145C362.615 5.21949 352.992 4.69822 309.439 3.70951C265.885 2.7208 188.651 1.39142 142.326 1.04614C60.9511 0.439631 35.8401 5.96112 21.2755 8.86238C11.2173 10.866 4.78911 13.3927 2.44135 15.2042C-3.17113 19.5349 8.81531 24.5538 17.6386 28.1556C29.1841 32.8687 49.1938 36.9001 123.905 38.6312C181.168 39.958 289.004 37.3373 349.492 36.5572C419.996 35.6479 440.023 34.8252 456.275 34.6271C485.016 34.2767 517.125 26.2589 520.603 24.5481C524.269 22.7453 523.07 20.2332 521.352 18.3628C511.548 15.0149 505.36 12.9375 500.085 12.1841C497.372 11.8266 494.587 11.5197 489.181 12.2057" stroke="#826887" stroke-width="2" stroke-linecap="round"/>
</svg>
