<svg width="333" height="68" viewBox="0 0 333 68" fill="none" xmlns="http://www.w3.org/2000/svg">
<path d="M324.289 46.0991C324.132 46.0991 323.976 46.0991 297.386 46.1472C270.796 46.1954 217.779 46.2917 187.509 46.6699C157.238 47.048 151.321 47.7052 130.598 48.0314C74.5403 48.914 34.9686 47.8999 29.1457 47.0988C26.4548 46.7285 24.3278 46.3392 22.481 45.5688C18.7453 44.0107 17.5848 34.8968 18.9903 23.3356C19.6201 18.1546 36.4493 18.6093 88.5343 15.3884C130.44 12.797 203.486 6.32694 247.437 3.24131C303.844 -0.71881 318.301 1.27735 320.602 3.80203C328.54 12.5119 331.447 30.3402 331.998 40.5868C332.102 42.5336 329.026 43.4426 292.112 47.6963C255.199 51.9499 183.489 59.4145 137.137 63.2494C72.1996 68.6221 49.4697 66.8213 43.2962 66.2345C31.3199 65.096 13.632 57.2553 2.27621 50.6217C0.518354 49.5948 0.899953 47.7503 1.51535 46.4457C4.26183 40.6233 14.678 32.1159 22.1195 25.2651C25.2468 22.3861 45.0419 18.7768 78.5374 12.7858C113.129 6.59866 144.686 7.70776 166.36 8.2449C175.746 8.4775 181.8 9.37686 201.26 12.4354C253.466 20.6409 289.293 27.0417 294.941 29.0339C303.269 31.9714 309.054 35.9068 312.142 38.7694C315.671 42.0409 316.314 46.4807 315.526 50.1564C315.158 51.8727 312.651 52.8879 310.422 53.5855C308.194 54.2831 305.757 54.5305 277.599 53.7789C249.442 53.0273 195.637 51.2693 163.423 49.8453C122.216 47.3846 106.593 45.1779 95.859 43.3884C91.4824 42.7376 89.2797 42.6092 86.8183 41.3096" stroke="#F7ADC5" stroke-width="2" stroke-linecap="round"/>
</svg>
