<svg width="198" height="128" viewBox="0 0 198 128" fill="none" xmlns="http://www.w3.org/2000/svg">
<mask id="mask0_932_3495" style="mask-type:alpha" maskUnits="userSpaceOnUse" x="-11" y="6" width="220" height="124">
<rect x="-10.4766" y="6.30078" width="219.48" height="122.867" fill="#D9D9D9"/>
</mask>
<g mask="url(#mask0_932_3495)">
<path d="M61.7891 109.553L64.5782 131.485L116.94 129.259L128.503 125.518L137.49 118.521L131.76 106.579L116.005 107.248L61.7891 109.553Z" fill="#F3F3F3"/>
<path d="M61.7891 109.553L64.5782 131.485L116.94 129.259L128.503 125.518L137.49 118.521L131.76 106.579L116.005 107.248L61.7891 109.553Z" fill="#F3F3F3"/>
<path d="M61.7891 109.553L64.5782 131.485L116.94 129.259L128.503 125.518L137.49 118.521L131.76 106.579L116.005 107.248L61.7891 109.553Z" stroke="black" stroke-width="1.05014"/>
<path d="M110.081 154.829C109.233 154.852 108.39 154.186 108.275 153.335C105.987 151.979 103.733 150.556 101.441 149.211C101.177 149.056 95.5136 146.44 95.6662 147.628C90.0058 150.879 84.6847 154.779 80.1227 159.381C79.7664 159.742 79.3229 160.001 78.884 160.256C76.2446 161.794 73.5032 163.233 70.9466 164.903C70.2162 165.381 63.8511 169.154 63.912 169.628C61.5434 171.123 58.1129 172.089 56.2239 174.196C53.4473 175.243 50.759 176.466 48.4984 178.408C48.0977 178.751 46.2258 180.283 46.3277 180.184C45.8554 180.638 45.5188 181.126 44.9404 181.502C42.0233 183.396 39.5557 184.37 36.8009 186.372C36.3832 186.675 35.9546 186.853 35.4727 187.075C34.6762 187.445 34.1352 188.217 33.3555 188.652C31.7097 189.571 30.1531 190.436 28.5692 191.535C27.9737 188.029 29.412 182.717 31.7845 180.059C33.1732 178.503 34.6939 177.476 35.8817 175.655C37.0441 173.872 37.9437 171.931 39.1007 170.146C41.0128 167.196 42.9931 164.28 44.8393 161.289L48.4077 155.51C48.822 154.84 49.0795 154.026 49.3117 153.316C49.3878 153.082 49.1371 152.796 49.3124 152.482L50.8289 149.758C51.6954 148.202 50.9208 147.59 52.2066 147.684C53.2893 144.77 54.7548 143.13 56.4125 140.521C56.617 140.198 56.9244 140.021 56.9549 139.55C56.9673 139.372 57.2806 139.397 57.3621 139.481C57.4811 139.607 57.2919 139.8 57.3568 140.108C58.1905 139.464 57.2295 139.065 57.7355 138.244L59.713 135.044C56.3192 133.936 52.8928 133.911 49.5032 133.138C49.3573 133.105 49.3074 133.241 49.3535 133.363C48.9433 133.841 48.5035 133.107 48.196 133.074C43.1157 132.529 38.0741 132.128 32.9896 131.617C33.7267 130.587 35.2374 130.611 36.4955 130.738C35.1442 130.266 33.6401 130.242 32.2749 130.67C32.58 130.789 32.8851 130.908 33.1901 131.027C32.2831 131.192 31.3349 131.129 30.4593 130.844C30.7388 131 31.0165 131.155 31.2959 131.311C25.485 131.019 19.7764 128.863 14.0154 128.881L4.38309 128.913C3.76009 128.916 3.22241 128.534 2.58314 128.567C2.27356 128.583 2.5997 128.316 2.55678 127.641C2.50857 126.873 2.01893 127.756 0.643151 127.813C0.952208 128.068 1.32077 128.026 1.69042 128.241C1.89897 128.317 1.81446 128.393 1.61215 128.445C0.254866 128.882 -1.08059 128.912 -2.38476 128.936C-2.41743 127.804 -1.92003 126.824 -0.861975 126.707L0.24352 127.679C-3.51762 124.369 12.8376 119.192 14.9888 118.497C18.8546 117.247 22.7219 115.996 26.5877 114.746C27.4564 114.466 28.3282 114.184 29.2316 114.043C30.0824 112.955 31.5586 112.395 32.9168 112.646C33.3692 112.89 33.9382 113.096 34.3732 112.823C34.8081 112.55 34.6166 111.65 34.122 111.786C35.4922 111.371 36.8638 110.954 38.234 110.538C42.8824 108.549 47.5294 106.561 52.1778 104.571C53.7763 103.887 58.0573 102.944 59.0967 101.607C60.1361 100.269 57.8026 97.791 57.204 96.1876C56.6054 94.5841 56.0756 93.0963 55.3702 91.5537L53.4153 87.2756L51.7136 84.1149C51.3947 83.5211 50.8837 83.1372 50.5143 82.6358C49.8943 81.7961 50.025 80.6765 49.8022 79.7167C49.6668 79.1347 48.0369 77.6604 48.4815 76.6367C48.7755 76.1847 48.0127 76.7643 47.496 75.4315C45.3087 69.7773 41.2731 64.5677 40.1747 61.4086L38.7443 57.2921C38.1425 55.5593 38.7204 53.6194 38.2338 52.0622L37.6605 50.2231C37.4631 49.5918 38.0824 48.4194 38.694 47.935C39.9371 46.9502 41.5582 47.3598 42.731 48.2008C43.6532 48.8618 44.2227 49.7013 44.9868 50.5207L50.8598 56.8142C52.7569 58.8469 54.7401 60.6446 56.6581 62.6307L58.3295 64.3624C58.7299 64.7773 59.2545 65.0972 59.7582 65.4113L64.7874 68.5602L66.0043 69.6397C67.1394 70.6455 68.3743 71.524 69.4179 72.5921C70.1667 73.358 70.1394 72.949 71.5755 73.8723C73.1603 74.8911 74.4111 76.2205 75.8828 77.3817C77.1089 78.3489 78.2764 79.2664 79.4265 80.3241C80.0093 80.8605 80.5637 81.3465 81.3385 81.6864L82.0056 78.9336L84.6665 63.4981C85.0478 61.2871 85.8072 59.2784 85.6421 56.9979C85.9927 56.7895 86.1996 56.6686 86.4211 56.4128C87.1781 53.2712 87.6426 50.1874 88.2179 47.0086C88.7049 44.3226 89.4189 41.8163 90.0308 39.1581L91.9813 30.6872C92.7984 27.1354 93.5257 23.7232 94.119 20.1211C94.3174 18.9119 95.4362 11.9268 95.8895 11.5739C95.9813 11.5015 96.0808 11.6335 96.1057 11.8273C96.0998 12.1615 96.2567 12.4646 96.3628 12.0317C96.5382 11.3255 96.8779 10.7043 97.6098 10.5008C97.9281 11.9282 98.1757 14.4321 98.3154 16.0559L98.6809 20.316C98.9615 23.5869 99.6092 26.6995 99.094 30.1754C98.8683 31.6963 99.4513 33.2176 99.7099 34.7317C100.018 36.5241 100.398 38.2146 100.596 40.0111C100.831 42.1546 101.146 44.1767 101.716 46.274C101.85 46.7653 101.56 47.3598 102.141 47.7498C102.073 48.1762 102.194 48.0175 102.389 47.7129C102.728 49.8263 102.798 51.826 103.267 53.911C103.294 54.0288 103.499 54.1084 103.553 54.2277C103.602 54.3342 103.431 54.4707 103.354 54.6322C103.829 55.179 103.868 56.0209 104.073 56.7674C104.134 56.9886 104.614 56.9521 104.638 57.1074C104.668 57.3206 104.698 57.7564 104.355 57.7162C104.013 57.6759 104.399 57.0556 103.969 56.897C104.191 59.5338 105.333 61.9818 106.007 64.6129C106.419 66.2235 106.571 67.7581 107.417 69.2573C107.348 69.135 107.395 70.289 107.824 70.5067C108.062 70.6276 108.008 70.419 107.975 70.2178C107.274 66.0042 105.351 62.904 104.957 58.6441C104.909 58.4432 104.996 58.2046 105.115 58.3948C106.307 61.4323 105.873 62.239 107.406 65.3659C107.846 66.264 107.76 67.2433 108.058 68.2001C109.205 71.8799 110.268 75.5218 111.611 79.1089C111.814 79.652 112.112 79.9068 112.354 80.6771L113.218 83.4269C115.347 83.1347 116.265 80.8833 117.185 80.6321C117.432 80.5649 119.585 78.2408 119.479 78.325L134.796 66.0113C135.976 65.0631 137.201 64.2356 138.508 63.5524C139.427 63.0723 140.559 62.9655 140.889 61.7208C141.206 61.6464 141.536 61.6007 141.788 61.4117L146.807 57.6668C147.72 56.9853 148.486 56.077 149.522 55.6054C150.122 55.3313 150.509 55.039 151.011 54.6462C152.119 53.7797 153.527 53.2738 154.621 52.3469L156.099 51.0928C156.445 50.7991 156.686 50.369 157.072 50.0567C158.012 49.2961 158.882 48.6792 160.074 48.3256C160.673 48.1476 161.065 47.8429 161.684 47.8442C161.598 48.0389 161.183 48.599 161.265 48.8864C161.745 50.5657 160.969 51.0528 160.107 52.2631C159.078 53.7087 158.347 55.2423 157.429 56.8184C154.9 61.1661 152.375 65.5166 149.847 69.864C147.404 74.0676 144.96 78.2712 142.686 82.5693C140.638 86.4392 139.175 90.6884 136.983 94.4203C136.772 94.5215 136.792 93.6147 136.635 93.9229L136.463 94.2547C135.923 95.3042 137.307 94.4106 136.045 96.5025C134.927 98.3553 135.266 99.8455 135.22 101.938C136.894 102.866 138.7 103.114 140.372 103.867L142.457 104.804C143.977 105.488 145.79 105.37 147.339 106.07C149.387 106.997 151.336 107.787 153.551 108.255C154.615 108.48 155.736 108.698 156.7 109.157C157.107 109.35 157.268 109.596 157.8 109.578C158.916 109.542 159.905 110.146 160.958 110.467L167.092 112.335C168.665 112.815 169.079 114.112 170.469 114.584C172.598 115.307 174.65 116.013 176.723 116.87C178.041 117.414 179.286 117.976 180.658 118.374C181.297 118.56 181.829 118.874 182.258 119.408C182.383 119.24 182.458 119.15 182.652 119.25L187.692 121.814C190.16 123.07 191.395 123.664 193.239 125.644C193.907 126.362 195.474 127.137 195.667 127.403C196.122 128.032 190.626 128.031 190.051 128.026L182.328 127.948C180.081 127.925 177.927 127.769 175.689 127.924C173.012 128.109 170.195 127.422 168.217 127.411C165.024 127.392 161.934 127.873 158.752 128.06C158.011 128.103 157.322 128.39 156.588 128.471C154.325 128.721 152.176 128.595 149.911 128.757L136.52 129.71C136.541 131.768 136.757 133.665 137.12 135.684C137.738 139.12 138.36 142.422 139.165 145.815C139.888 148.859 140.885 153.671 143.315 155.878C143.26 156.5 143.583 157.085 143.895 157.624C144.668 158.961 145.44 160.299 146.213 161.636C146.293 161.454 146.372 161.271 146.453 161.089C146.945 161.406 147.206 162.044 147.076 162.617C146.043 162.185 148.439 167.912 148.515 168.387C148.652 169.255 148.921 169.776 149.315 170.495C150.377 172.433 151.428 174.379 152.487 176.319C152.286 175.744 152.201 175.127 152.239 174.517C153.11 175.67 154.029 177.067 153.614 178.451C153.554 178.652 153.514 178.948 153.717 179C153.797 178.838 153.877 178.676 153.959 178.513C154.296 179.9 154.449 181.57 155.115 182.843C155.533 183.644 156.814 184.445 156.785 185.416C156.792 185.17 157.148 185.068 157.357 185.2C157.566 185.331 157.654 185.586 157.729 185.822C158.035 186.79 158.34 187.758 158.646 188.725C158.887 189.489 159.126 190.273 159.507 190.983C159.925 191.76 161.476 193.179 159.734 193.547C158.237 193.864 156.417 191.967 155.601 190.95C155.793 190.922 155.986 190.894 156.178 190.866C156.263 190.412 155.774 190.054 155.321 189.964C154.868 189.874 154.375 189.921 153.974 189.694C153.038 189.163 153.332 187.702 152.746 186.799C151.963 185.595 149.785 185.621 149.452 184.224C149.626 184.239 149.799 184.253 149.973 184.268C148.372 183.187 147.291 181.542 145.925 180.207C144.41 178.726 142.867 177.269 141.188 175.973C133.043 169.685 124.455 163.941 115.973 158.057C115.77 157.916 115.487 157.774 115.295 157.93C115.102 158.086 115.495 158.442 115.538 158.197C113.382 156.25 110.908 154.657 108.244 153.499C108.952 153.935 109.662 154.372 110.37 154.808C110.275 154.829 110.18 154.841 110.085 154.845L110.081 154.829ZM97.6874 21.3159C98.0381 21.1732 97.9906 20.9217 97.9222 20.7436C97.8887 20.6536 97.7597 20.5675 97.5861 20.514C97.5953 20.8479 97.6109 21.0479 97.6877 21.3176L97.6874 21.3159ZM44.997 54.6902C44.7809 53.9265 44.3155 53.6345 43.9151 53.2852C44.1182 53.9477 44.3488 54.6017 44.997 54.6902ZM40.3084 59.3558C40.1884 58.3171 39.8785 57.5184 39.2728 56.7645C39.5265 57.6899 39.736 58.6379 40.3084 59.3558ZM46.4348 71.3955C46.2414 71.1492 46.1442 70.8906 45.9987 71.2141C46.214 71.3683 46.1427 71.5475 46.257 71.5716C46.3712 71.5956 46.5416 71.5316 46.4348 71.3955ZM59.0887 70.1514C58.8875 69.923 58.9002 69.7984 58.7471 69.7086C58.6796 69.6685 58.5699 69.5883 58.5859 69.7917C58.6037 70.0083 58.5765 70.2559 58.7284 70.297C58.8506 70.3301 59.1875 70.2649 59.0889 70.153L59.0887 70.1514ZM48.3597 75.5579C48.6258 75.3739 48.5524 74.7771 48.4211 74.5027L47.6519 72.8959C47.4415 73.0677 47.3912 73.3049 47.3635 73.5358C47.3384 73.7461 47.7255 73.8748 47.7855 74.1315C47.8955 74.6073 47.762 75.3906 48.358 75.5581L48.3597 75.5579ZM61.6883 72.5113C61.9438 72.1266 61.4396 71.8613 61.291 72.0421C61.2375 72.1365 61.4422 72.4453 61.6883 72.5113ZM59.8122 73.9058C59.747 73.9883 59.8113 74.3319 59.911 74.3343C59.9956 74.3369 60.0584 74.1436 60.2345 74.1243C60.3921 74.1057 60.1812 73.946 60.111 73.8977C60.0408 73.8495 59.9125 73.7818 59.8122 73.9058ZM96.0819 71.5713C96.1135 71.3197 96.2208 71.2234 96.1537 71.1343C96.0867 71.0453 95.982 71.0301 95.8926 71.082C95.7937 71.1385 95.8132 71.264 95.861 71.4262C95.8313 71.7062 95.9879 71.8494 96.0819 71.5713ZM95.607 75.4006C95.6024 75.024 95.4269 74.8513 95.343 74.5001C95.2415 74.7589 95.1319 75.2428 95.607 75.4006ZM97.1335 75.979C97.3473 75.938 97.1779 75.7476 97.3133 75.6208C97.4366 75.5056 97.3301 75.4503 97.0944 75.3071C96.9922 75.4954 97.0662 75.6913 97.1335 75.979ZM97.2558 77.8474C97.663 77.6082 97.5005 77.3395 97.3382 77.1128C97.3075 77.3457 97.2013 77.6204 97.2558 77.8474ZM102.872 91.3216C103.049 91.3595 103.588 91.1707 103.534 90.9805L100.58 80.3836C100.417 82.6238 100.997 84.6069 101.218 86.695C101.074 85.3378 101.97 88.9034 101.858 88.763C102.792 89.9377 101.891 91.116 102.872 91.3216ZM97.5905 81.8152C97.757 81.7079 97.6337 81.5486 97.6411 81.3827C97.6481 81.2016 97.5718 81.0666 97.2696 81.193C97.2771 81.448 97.4822 81.5361 97.5907 81.8168L97.5905 81.8152ZM97.4969 83.6693C97.5886 83.2163 97.5796 82.9885 97.3828 82.8336C97.3152 83.1858 97.349 83.4492 97.4969 83.6693ZM103.723 84.2128C103.662 83.7171 103.647 83.2948 103.401 82.8666C103.177 83.313 102.96 84.1811 103.439 84.2846C103.517 84.3015 103.551 84.3476 103.723 84.2144L103.723 84.2128ZM104.211 86.0594C104.167 85.4572 103.96 84.9618 103.685 84.5359C103.576 85.2739 103.532 85.7341 103.861 86.0926C103.928 86.1648 104.224 86.2547 104.209 86.0596L104.211 86.0594ZM99.5794 86.3314C99.3782 86.103 99.3908 85.9785 99.2378 85.8887C99.1703 85.8486 99.0606 85.7684 99.0766 85.9717C99.0943 86.1883 99.0672 86.436 99.219 86.4771C99.3412 86.5102 99.6782 86.445 99.5796 86.3331L99.5794 86.3314ZM99.0575 88.5235C98.9168 87.7956 98.9975 87.1521 98.7156 86.5317C98.8416 87.4332 98.4499 88.5544 99.0575 88.5235ZM104.417 87.2301C104.576 86.9234 104.334 86.7896 104.274 86.6794C104.17 86.484 103.894 86.4488 103.885 86.6789C103.876 86.8888 103.91 87.0629 103.993 87.2325C104.029 87.3069 104.082 87.3339 104.417 87.2318L104.417 87.2301ZM100.677 93.6798C100.458 91.3322 99.9833 89.3171 99.4876 87.2558C99.3505 89.5584 99.869 91.7177 100.677 93.6798ZM105.037 88.0159C104.6 87.7656 104.846 87.4612 104.442 87.2959C104.051 87.6157 104.136 88.1788 104.412 88.5963C104.678 88.2507 104.786 88.097 105.037 88.0143L105.037 88.0159ZM98.6974 89.7198C98.6126 89.1649 98.6943 88.8698 98.4757 88.5847L98.363 89.5034C98.3525 89.5923 98.5925 89.7821 98.6955 89.7183L98.6974 89.7198ZM104.839 89.8818C104.982 89.9121 105.118 89.7314 105.094 89.6806C105.071 89.6297 104.919 89.5532 104.913 89.384C104.899 89.0304 104.504 89.0341 104.553 89.4049C104.798 89.5132 104.733 89.8583 104.839 89.8818ZM98.642 91.2676C98.7337 90.8146 98.7246 90.5868 98.5278 90.4319C98.4602 90.7841 98.4941 91.0475 98.642 91.2676ZM98.2195 93.0797C98.6342 92.5701 98.3349 92.1034 98.196 91.6515C98.2248 92.1243 98.0535 92.5875 98.2195 93.0797ZM100.141 96.4917C98.6498 96.2573 101.002 94.8673 99.7053 95.2545L98.5582 95.5972C98.495 96.5079 98.4644 97.3705 98.868 98.1909C99.3152 97.502 99.6398 97.0124 100.141 96.4934L100.141 96.4917ZM124.493 93.084C124.675 92.8603 124.793 92.6363 124.651 92.4104C124.519 92.2 124.309 92.1361 124.042 92.199C123.81 92.2524 123.757 92.4832 123.683 92.7571C123.6 93.059 123.733 93.281 123.916 93.3636C124.191 93.4898 124.336 93.276 124.493 93.084ZM114.87 104.161C113.634 103.749 112.118 104.732 110.821 105.043C110.773 105.172 110.805 105.397 110.885 105.508C110.99 105.55 116.07 104.66 114.87 104.162L114.87 104.161ZM68.4155 121.576C71.5017 123.082 72.3521 124.364 75.727 124.957C76.7423 125.136 77.6697 125.785 78.7372 125.833C81.3335 125.952 84.2717 125.691 86.5763 124.393L89.3726 122.818C90.645 122.1 91.6505 121.036 92.7727 120.146C91.9144 118.423 90.0124 116.968 88.7923 115.196C86.1029 111.285 84.9231 110.887 80.4004 109.307C80.0099 110.515 80.0067 111.789 79.8095 113.072C79.6661 114.001 79.313 114.885 79.0709 115.78C78.7851 116.834 78.0438 117.554 77.3434 118.331C76.5693 119.19 75.7139 119.953 74.4771 120.122C71.2583 120.559 71.4935 120.62 68.2442 119.535C68.1379 119.901 68.0789 120.111 67.8302 120.129C67.4531 120.157 66.573 119.693 66.6264 119.296C67.2083 119.236 67.5996 119.711 68.2355 119.547C66.5423 118.655 65.1677 117.528 64.4343 115.676C64.2228 116.259 63.6864 117.092 64.0205 117.699C64.7154 118.964 66.9504 120.86 68.4136 121.575L68.4155 121.576ZM91.5802 110.357C91.413 109.829 91.0837 109.639 90.6441 109.64C90.9285 109.966 91.2018 110.192 91.5802 110.357ZM135.22 104.505C135.329 104.779 135.635 104.614 135.756 104.517C135.876 104.421 135.985 104.244 135.921 104.077C135.863 103.926 135.682 103.855 135.468 103.889C135.639 104.201 135.358 104.358 135.218 104.506L135.22 104.505ZM136.362 104.475C136.238 104.654 136.423 104.743 136.53 104.842C136.631 104.934 136.708 104.888 136.699 104.805C136.68 104.629 136.69 104.535 136.657 104.482C136.615 104.412 136.448 104.349 136.362 104.475ZM56.3896 116.984C56.4059 116.888 56.3463 116.739 56.2709 116.755C56.1611 116.78 55.9987 116.735 55.8969 116.847C55.7716 116.986 55.7312 117.118 55.7252 117.241C55.7206 117.35 55.841 117.408 55.9369 117.381C56.0683 117.342 56.3715 117.093 56.3894 116.983L56.3896 116.984ZM33.43 120.454C33.1864 120.419 33.0455 120.018 32.6498 120.125C32.4837 120.17 32.7614 120.508 32.8731 120.578C33.0453 120.685 33.2339 120.802 33.4317 120.454L33.43 120.454ZM123.358 124.813C123.744 124.644 124.079 124.257 124.555 124.149C126.057 123.811 127.213 122.888 128.503 122.165C129.014 121.878 129.123 121.56 129.599 121.214L133.785 118.177C133.392 117.155 132.608 116.286 131.829 115.465C131.217 114.823 130.835 114.064 130.313 113.356C130.027 112.969 129.381 112.991 129.122 112.6C128.819 112.139 128.188 111.873 127.97 111.484C127.688 110.983 127.582 110.8 127.074 110.53C126.457 110.203 125.991 109.539 125.184 109.383L122.34 108.831C121.231 108.617 120.046 108.961 118.893 109.025L119.021 113.545C119.052 114.649 118.74 115.713 118.422 116.789C117.424 120.165 114.919 120.519 111.812 120.856C110.812 120.965 109.949 120.456 109.056 120.234C106.354 119.566 106.539 118.906 104.462 117.378C103.761 118.707 103.703 120.146 104.113 121.556C104.195 121.834 104.133 122.443 104.391 122.618C108.479 125.412 105.465 123.799 110.168 125.503C112.898 126.49 115.696 126.513 118.526 125.907C120.179 125.553 121.818 125.487 123.358 124.813ZM57.0839 119.424L58.394 118.895C58.4444 118.461 58.0509 118.362 57.6414 118.492C57.4132 118.565 57.2154 118.783 57.169 119.076C57.1578 119.147 56.8285 119.088 56.7652 119.12C56.6764 119.163 56.7589 119.281 56.8209 119.305C56.8653 119.323 56.9991 119.459 57.0823 119.424L57.0839 119.424ZM96.7003 114.029C96.5612 113.773 96.2934 114.061 96.2569 114.184C96.0796 114.771 96.2745 114.859 96.7588 115.611C96.8825 115.053 96.9744 114.536 96.7003 114.029ZM63.7028 119.094C63.5419 118.904 63.3901 118.876 63.2494 118.896C63.239 119.248 63.0909 119.393 62.9321 119.626C63.3089 119.739 63.5827 119.496 63.7028 119.094ZM55.7358 122.803C55.7714 122.595 55.1295 122.464 54.9873 122.721C54.9626 122.935 55.5981 123.069 55.7358 122.803ZM62.3207 124.005C62.7251 123.218 59.0273 123.298 58.5275 123.041C58.3169 123.014 57.8354 123.252 57.6185 123.583L62.3207 124.005ZM97.3225 121.151C97.475 121.433 97.8244 121.268 97.9207 121.126C98.4482 120.341 97.7413 120.7 98.2199 118.906C98.2803 118.681 97.7683 118.288 97.5245 118.332C97.5397 119.079 97.1479 119.491 96.6229 119.916C96.7371 120.214 96.8219 120.205 96.9082 120.182C97.0418 120.146 97.2687 120.038 97.3448 120.092C97.4816 120.396 97.1514 120.829 97.3241 121.151L97.3225 121.151ZM23.1882 129.455C22.8186 129.135 22.4908 129.324 22.2707 129.46C22.6415 129.475 22.9371 129.782 23.1882 129.455ZM139.71 115.112C139.398 114.583 138.169 114.866 138.01 115.258C137.899 115.811 140.017 116.581 140.484 115.942C140.649 115.719 140.834 115.232 140.539 114.994C140.244 114.756 139.936 115.019 139.708 115.112L139.71 115.112ZM27.221 130.016C26.7734 129.548 26.4302 130.089 26.0586 130.16C26.4766 130.096 26.9041 130.434 27.221 130.016ZM61.4516 127.467L62.2425 127.394C62.0276 127.046 61.7196 126.852 61.4549 126.535C61.3015 126.351 61.5973 125.94 61.6525 125.7C60.9025 125.37 60.155 125.702 59.5646 126.246L60.8489 126.539C60.8352 127.272 60.2679 127.446 59.64 127.764C60.1618 128.049 60.7238 127.781 61.2667 127.994C61.7812 128.196 62.1727 128.634 62.804 128.696C63.0292 128.717 63.0123 128.389 62.9321 128.263C62.7122 127.916 61.4798 128.447 61.45 127.467L61.4516 127.467ZM64.1328 125.56C64.1568 125.72 64.2737 125.961 64.3915 125.986C64.5958 126.029 64.5871 125.857 64.6053 125.71C64.6184 125.602 64.8313 125.436 64.6231 125.455C64.4915 125.467 64.1153 125.449 64.1328 125.56ZM103.253 122.035C103.535 121.945 103.413 121.197 103.292 120.907C102.948 120.881 102.892 121.191 102.811 121.368C102.697 121.614 102.741 122.191 103.253 122.035ZM134.429 117.606C134.796 117.431 134.318 116.923 134.029 116.871C133.897 117.137 134.224 117.705 134.429 117.606ZM98.3268 121.756C98.4888 122.4 97.8388 122.376 97.6498 122.623C97.2552 123.131 97.7368 123.824 97.7345 124.37C97.7334 124.715 97.714 124.918 98.0769 124.937C98.6198 124.966 99.4263 121.554 98.3271 121.758L98.3268 121.756ZM41.4152 129.653C40.8835 129.58 40.5506 129.625 40.2041 129.694C40.3338 129.982 40.3368 130.203 40.4335 130.3C40.6074 130.473 41.5593 130.303 41.5637 130.18C41.5664 130.07 41.6022 129.68 41.4154 129.655L41.4152 129.653ZM42.1255 130.225C42.0036 130.404 42.1869 130.494 42.294 130.593C42.3951 130.684 42.4716 130.637 42.463 130.557C42.4433 130.378 42.4536 130.288 42.4213 130.233C42.3846 130.17 42.2123 130.101 42.1257 130.227L42.1255 130.225ZM46.3937 130.94C45.9063 130.674 45.3892 130.648 44.8073 130.551C44.4715 130.495 44.2473 129.942 43.8885 129.995C43.5742 130.041 43.5449 131.058 43.8372 131.182C44.2311 131.351 44.8047 131.252 45.2272 131.524C45.5589 131.077 45.9106 130.956 46.3937 130.94ZM140.66 117.943C140.299 117.559 139.803 117.463 139.447 117.86C139.889 117.995 140.253 118.108 140.66 117.943ZM41.5847 130.448C41.3606 130.435 41.2003 130.459 40.9407 130.536C40.9878 130.745 41.1733 130.577 41.3002 130.712C41.4078 130.828 41.4994 130.767 41.5847 130.448ZM38.9968 131.207C38.2896 131.131 37.7371 131.079 37.5196 131.615L38.9968 131.207ZM76.0243 126.956C75.6236 126.513 75.0177 127.015 75.0387 127.113C75.4602 127.089 75.7293 127.099 76.0243 126.956ZM106.724 124.55C106.032 124.281 105.402 124.095 104.613 124.002C105.046 124.816 105.967 125.098 106.724 124.55ZM137.008 122.703C136.515 122.615 136.08 122.709 135.683 122.489C136.063 122.013 136.513 122.233 136.958 121.827C135.874 121.709 135.466 120.918 135.168 121.209C135.122 121.253 135.315 121.41 135.246 121.51C135.101 121.721 134.883 121.85 134.893 122.044C134.903 122.238 135.117 122.433 135.084 122.654C135.033 123.012 134.469 122.886 134.288 123.144C134.173 123.307 134.391 123.565 134.519 123.627C134.646 123.69 134.887 123.373 135.007 123.391C137.131 123.691 137.582 122.806 137.006 122.705L137.008 122.703ZM109.916 127.354L108.704 127.233C108.609 127.224 107.348 125.936 106.617 126.395C105.635 127.013 108.184 127.394 108.77 127.745L110.303 128.664C110.473 128.765 110.628 128.491 110.612 128.379C110.62 128.437 109.931 127.357 109.916 127.355L109.916 127.354ZM178.866 118.128C178.259 117.928 177.776 117.606 177.062 117.553C177.511 118.083 178.164 118.25 178.866 118.128ZM116.357 126.992C116.408 126.748 116.137 126.507 115.986 126.584C115.804 126.676 115.382 126.523 115.315 126.773C115.254 126.998 115.609 127.211 115.783 127.216C115.927 127.219 116.321 127.169 116.357 126.991L116.357 126.992ZM129.428 126.58C129.287 126.79 129.516 126.911 129.661 126.858C129.721 126.837 129.862 126.905 129.9 126.737C129.893 126.765 129.591 126.339 129.428 126.58ZM61.2073 136.97C61.7826 136.662 61.9268 136.394 61.9884 136.034C61.4962 136.294 61.3156 136.646 61.2073 136.97ZM124.962 128.245C124.728 128.09 124.277 128.156 123.987 128.35C124.087 128.622 124.357 128.584 124.596 128.619C124.764 128.644 124.948 128.488 124.962 128.245ZM132.566 127.989C132.667 127.556 132.379 127.364 132.247 127.398C132.113 127.668 132.311 127.956 132.566 127.989ZM167.675 124.059C167.999 123.578 167.781 123.427 167.591 123.376C167.301 123.297 167.088 123.176 166.842 123.408C167.13 123.634 167.285 123.917 167.675 124.059ZM166.634 124.036C166.672 123.918 166.625 123.808 166.425 123.807C166.224 123.806 166.187 123.598 166.086 123.763C166 123.9 165.884 124.028 166.051 124.02C166.344 124.006 166.536 124.347 166.636 124.036L166.634 124.036ZM169.116 123.853C168.63 123.678 168.193 123.405 168.124 123.713C168.024 124.164 168.415 124.083 168.578 124.069C168.816 124.047 169.139 124.133 169.116 123.855L169.116 123.853ZM169.544 124.118C169.407 124.35 169.652 124.456 169.791 124.395C169.854 124.366 169.989 124.42 170.031 124.273C170.069 124.147 169.975 124.022 169.907 124.04C169.802 124.065 169.6 124.025 169.544 124.118ZM147.79 128.132C148.089 128.256 148.39 128.289 148.497 127.893C148.244 127.834 148.08 128.04 147.79 128.132ZM151.583 127.663C150.815 127.797 148.432 127.566 148.945 128.003C149.056 128.1 151.523 127.8 151.583 127.663ZM171.496 126.107C171.199 125.983 171.038 126.08 170.77 126.145C170.873 126.288 170.985 126.398 171.082 126.404C171.209 126.413 171.506 126.459 171.495 126.107L171.496 126.107ZM57.0034 140.963C56.5665 140.959 56.4526 141.226 56.3968 141.447C56.3565 141.606 56.3415 142.066 56.5409 142.031C57.0039 141.95 57.2144 141.372 57.0034 140.963ZM135.103 131.084C135.139 131.298 135.26 131.323 135.322 131.345C135.402 131.374 135.543 131.31 135.551 131.227C135.564 131.092 135.498 130.988 135.432 130.996C135.366 131.005 135.087 130.985 135.103 131.084ZM136.113 132.545C136.165 132.239 136.135 131.933 135.91 131.58C135.689 131.75 135.661 131.977 135.738 132.184C135.785 132.31 135.893 132.442 136.115 132.545L136.113 132.545ZM135.047 132.13C134.935 132.479 135.067 132.599 135.286 132.534C135.395 132.501 135.38 132.278 135.275 132.209C135.221 132.173 135.089 131.998 135.047 132.13ZM193.42 126.647C192.957 126.235 192.755 126.047 192.369 125.775C192.269 126.111 192.425 126.458 192.692 126.636C192.875 126.757 193.252 126.825 193.418 126.647L193.42 126.647ZM136.049 133.933C136.381 133.801 136.192 133.234 135.984 133.271C135.684 133.323 135.845 134.013 136.049 133.933ZM134.812 133.969C134.86 134.188 134.93 134.327 135.023 134.406C135.065 134.443 135.098 134.284 135.175 134.228C135.316 134.126 135.161 134.077 135.065 133.983C135.024 133.943 134.788 133.862 134.812 133.969ZM91.977 144.968C92.3004 144.876 92.4785 144.479 92.3638 144.386C92.1838 144.245 92.0207 144.496 91.9385 144.577C91.8369 144.678 91.7217 145.04 91.977 144.968ZM89.7107 147.967C90.227 148.17 90.5125 147.888 90.8328 147.666C92.2886 146.659 93.6752 145.69 95.4225 145.063C95.3923 144.671 95.0337 144.449 94.8154 144.324C94.5118 144.151 94.1311 144.282 93.8637 144.495L91.8525 146.097C91.3176 146.523 90.9201 147.074 90.1566 147.098C90.0645 147.43 90.0138 147.809 89.7107 147.967ZM78.284 148.798C78.5953 148.756 78.5188 148.449 78.3689 148.436C77.8424 148.39 77.8709 148.861 77.8364 148.762C77.8579 148.825 78.0488 148.829 78.2823 148.798L78.284 148.798ZM93.8701 147.114C93.8571 147.013 93.7488 146.97 93.6571 146.965C93.3974 146.949 93.1732 147.46 93.2267 147.574C93.2475 147.619 93.9175 147.522 93.8684 147.114L93.8701 147.114ZM92.7067 148.011C92.6225 147.684 91.533 147.937 91.7355 148.438C91.8369 148.689 92.8165 148.433 92.7067 148.011ZM88.9061 148.693C89.1482 148.454 88.8755 148.403 88.6471 148.54C88.5287 148.641 88.4268 148.726 88.4038 148.835C88.3772 148.957 88.5018 149.035 88.6226 148.966C88.6791 148.933 88.7373 148.848 88.9063 148.695L88.9061 148.693ZM105.247 147.455C104.28 147.179 103.857 146.588 102.984 146.574C103.412 147.519 104.465 147.834 105.247 147.455ZM50.7386 153.788C50.6265 153.558 50.2258 153.704 50.1663 153.949C50.1391 154.065 49.9733 154.177 50.0502 154.422C50.283 154.267 50.6924 154.097 50.7386 153.788ZM85.1101 151.3C85.7257 151.055 85.9528 150.673 85.9692 150.066C85.4069 150.201 84.779 150.637 85.1101 151.3ZM81.3664 151.35C81.6574 151.045 81.4019 150.734 81.1283 151.03C80.9019 151.275 81.0085 151.514 81.3664 151.35ZM110.308 150.814C110.472 150.362 110.42 150.076 110.162 149.819C109.743 150.077 109.919 150.566 110.308 150.814ZM107.765 151.198C107.663 150.659 107.267 150.508 106.863 150.711C107.164 150.859 107.301 151.209 107.765 151.198ZM83.7202 154.327C83.3255 154.1 82.9868 154.086 82.632 154.171C82.5718 154.488 82.5957 154.753 82.7485 155.038C83.1708 154.994 83.5848 154.794 83.7204 154.329L83.7202 154.327ZM82.2094 155.693C82.4318 154.304 79.8444 157.255 80.0976 157.128C80.9351 156.815 81.5316 156.279 82.2094 155.693ZM112.346 152.032C112.361 152.183 112.5 152.427 112.612 152.458C112.732 152.491 112.791 152.303 112.822 152.18C112.853 152.056 113.026 151.906 112.838 151.925C112.698 151.94 112.336 151.914 112.347 152.034L112.346 152.032ZM113.494 152.662C113.568 152.39 113.306 152.161 113.206 152.046C113.004 152.288 112.928 152.479 112.985 152.625C113.038 152.76 113.439 152.865 113.494 152.662ZM113.936 152.693C113.82 153.04 113.957 153.169 114.173 153.094C114.265 153.062 114.316 152.872 114.152 152.765C114.101 152.731 113.978 152.563 113.936 152.693ZM66.003 161.346C66.9759 161.037 67.5248 160.406 68.2479 159.963C68.8696 159.583 69.6969 159.519 70.0256 158.655C69.2764 158.96 68.5047 159.3 67.8649 159.788C67.351 160.181 66.9938 160.639 66.2915 160.799C66.0542 160.853 65.617 161.2 66.0045 161.344L66.003 161.346ZM79.3258 157.86C78.8713 157.548 78.8508 157.757 78.7272 157.777C78.4486 157.825 78.4071 158.184 78.6706 158.137C78.934 158.089 79.1014 157.871 79.3258 157.86ZM115.375 153.748C115.521 153.594 115.332 153.399 115.196 153.308C115.107 153.248 114.928 153.167 114.812 153.36C114.687 153.567 114.838 153.712 114.94 153.728C115.041 153.743 115.237 153.893 115.375 153.748ZM66.107 162.981C66.0231 162.734 65.5242 162.667 65.3916 162.75C65.2435 162.843 65.3769 163.225 65.2902 163.507C65.562 163.472 66.0062 163.245 66.1087 162.981L66.107 162.981ZM61.4956 166.347C62.5036 165.709 63.5722 165.201 64.29 164.179C64.3642 164.075 63.9902 163.918 63.9023 164.02C63.3193 164.701 62.8576 164.53 61.9939 165.203C61.99 165.396 62.1795 165.52 61.9756 165.729C61.8004 165.651 61.7737 165.483 61.6532 165.449C61.5727 165.426 61.3871 165.463 61.2928 165.581C60.4432 166.652 59.2629 166.592 59.5554 167.111C59.8851 167.697 61.3476 166.44 61.494 166.347L61.4956 166.347ZM56.4479 168.848C56.2445 168.694 56.094 168.676 55.9997 168.558C56.23 168.384 56.3536 168.232 56.2655 168.11C56.1406 167.938 56.0338 167.736 55.9057 167.735C55.2756 167.735 55.3918 168.849 55.114 169.007C54.5633 169.324 53.9044 169.545 53.8774 170.331C54.6785 169.669 55.7104 169.729 56.4477 168.846L56.4479 168.848ZM51.6588 171.984C51.9695 172.173 52.1009 171.951 52.277 171.866C52.4846 171.763 52.5496 171.627 52.3685 171.28C52.1834 171.57 51.9198 171.656 51.6588 171.984ZM51.9623 173.048C52.2547 172.138 50.4988 173.589 50.5541 173.692C51.1096 173.701 51.4429 173.359 51.9623 173.048ZM35.2252 184.219C36.1722 183.905 36.7085 183.399 37.4518 183.061C37.2514 182.694 36.9697 182.626 36.7457 182.587C36.5217 182.549 36.4515 182.854 36.34 183.049C36.0466 183.558 35.372 183.617 35.2252 184.219ZM142.576 173.946C142.685 173.272 142.217 173.078 141.876 172.768C141.204 172.154 140.719 171.411 139.886 171.001C139.901 171.715 140.555 171.902 140.915 172.29C141.451 172.868 141.691 173.654 142.577 173.947L142.576 173.946ZM31.3872 188.713C30.6498 188.769 30.2585 189.198 29.8391 189.644C30.4864 189.543 30.8788 189.017 31.3872 188.713ZM144.834 175.885C144.785 174.92 143.969 174.673 143.328 174.868C143.675 175.517 144.19 175.914 144.834 175.885ZM145.319 176.398C145.36 176.609 145.453 176.769 145.529 176.835C145.57 176.871 145.606 176.714 145.683 176.658C145.823 176.556 145.67 176.507 145.572 176.413C145.532 176.373 145.299 176.29 145.319 176.4L145.319 176.398ZM154.178 188.934C154.166 188.595 153.915 188.183 153.499 188.279C153.697 188.533 153.711 188.814 154.178 188.934Z" fill="black"/>
<path d="M36.5353 48.5724C36.0753 48.4799 35.5694 47.7687 35.2735 47.4582L33.8183 45.9412C33.9583 46.0866 32.0432 42.3017 32.2107 41.0089C32.3223 40.1476 31.9066 39.2851 32.1845 38.4462C32.5849 38.4806 32.8941 38.8029 33.2752 39.0149C33.4231 38.6844 33.1555 38.4511 33.235 38.0603C35.3642 39.7752 34.668 39.0901 35.8307 41.0976C35.9977 41.3877 36.4735 41.3147 36.6549 41.5861C37.6193 43.0331 38.8033 44.1977 40.1033 45.3726C36.9417 45.954 39.2449 46.7424 36.5367 48.5705L36.5353 48.5724ZM38.2911 44.4723C37.8778 44.0876 37.8007 43.7237 37.3689 43.5755C37.5636 44.0287 37.7924 44.3411 37.9073 44.7759C38.1069 44.7957 38.3395 44.6917 38.2928 44.4721L38.2911 44.4723Z" fill="black"/>
<path d="M61.7891 109.553L64.5782 131.485L116.94 129.259L128.503 125.518L137.49 118.521L131.76 106.579L116.005 107.248L61.7891 109.553Z" fill="#F3F3F3"/>
<path d="M61.7891 109.553L64.5782 131.485L116.94 129.259L128.503 125.518L137.49 118.521L131.76 106.579L116.005 107.248L61.7891 109.553Z" fill="#F3F3F3"/>
<path d="M61.7891 109.553L64.5782 131.485L116.94 129.259L128.503 125.518L137.49 118.521L131.76 106.579L116.005 107.248L61.7891 109.553Z" stroke="black" stroke-width="1.05014"/>
<path d="M110.081 154.829C109.233 154.852 108.39 154.186 108.275 153.335C105.987 151.979 103.733 150.556 101.441 149.211C101.177 149.056 95.5136 146.44 95.6663 147.628C90.0058 150.879 84.6847 154.779 80.1227 159.381C79.7664 159.742 79.3229 160.001 78.884 160.256C76.2446 161.794 73.5032 163.233 70.9466 164.903C70.2162 165.381 63.8511 169.154 63.912 169.628C61.5434 171.123 58.1129 172.089 56.2239 174.196C53.4473 175.243 50.759 176.466 48.4984 178.408C48.0977 178.751 46.2258 180.283 46.3277 180.184C45.8554 180.638 45.5188 181.126 44.9404 181.502C42.0233 183.396 39.5557 184.37 36.8009 186.372C36.3832 186.675 35.9546 186.853 35.4727 187.075C34.6762 187.445 34.1352 188.217 33.3555 188.652C31.7097 189.571 30.1531 190.436 28.5692 191.535C27.9737 188.029 29.412 182.716 31.7845 180.059C33.1732 178.503 34.6939 177.476 35.8817 175.655C37.0441 173.872 37.9437 171.931 39.1007 170.146C41.0128 167.196 42.9931 164.28 44.8393 161.289L48.4077 155.51C48.822 154.84 49.0795 154.026 49.3117 153.316C49.3878 153.082 49.1371 152.796 49.3124 152.482L50.829 149.758C51.6954 148.202 50.9208 147.59 52.2066 147.684C53.2893 144.77 54.7548 143.13 56.4125 140.521C56.617 140.198 56.9244 140.021 56.9549 139.55C56.9673 139.372 57.2806 139.397 57.3621 139.481C57.4811 139.607 57.2919 139.8 57.3568 140.108C58.1905 139.464 57.2295 139.065 57.7355 138.244L59.7131 135.044C56.3192 133.936 52.8928 133.911 49.5032 133.138C49.3573 133.105 49.3074 133.241 49.3535 133.363C48.9433 133.841 48.5035 133.107 48.196 133.074C43.1157 132.529 38.0741 132.128 32.9896 131.617C33.7267 130.587 35.2374 130.61 36.4955 130.738C35.1442 130.266 33.6401 130.242 32.2749 130.67C32.58 130.789 32.8851 130.908 33.1901 131.027C32.2831 131.192 31.3349 131.129 30.4593 130.844C30.7388 131 31.0165 131.155 31.2959 131.311C25.485 131.019 19.7764 128.863 14.0154 128.881L4.3831 128.913C3.76009 128.916 3.22241 128.534 2.58314 128.567C2.27356 128.583 2.5997 128.316 2.55678 127.641C2.50857 126.873 2.01893 127.756 0.643151 127.813C0.952207 128.068 1.32077 128.026 1.69042 128.241C1.89897 128.317 1.81446 128.393 1.61215 128.445C0.254866 128.882 -1.08059 128.912 -2.38476 128.936C-2.41743 127.804 -1.92003 126.824 -0.861975 126.707L0.24352 127.679C-3.51762 124.369 12.8376 119.192 14.9888 118.497C18.8546 117.247 22.7219 115.996 26.5877 114.746C27.4564 114.466 28.3282 114.184 29.2316 114.043C30.0824 112.955 31.5586 112.395 32.9168 112.646C33.3692 112.89 33.9382 113.096 34.3732 112.823C34.8081 112.55 34.6166 111.65 34.122 111.786C35.4922 111.371 36.8638 110.954 38.234 110.538C42.8824 108.549 47.5294 106.561 52.1778 104.571C53.7763 103.887 58.0573 102.944 59.0967 101.607C60.1361 100.269 57.8027 97.791 57.204 96.1876C56.6054 94.5841 56.0756 93.0963 55.3702 91.5537L53.4153 87.2756L51.7136 84.1149C51.3947 83.5211 50.8837 83.1372 50.5143 82.6358C49.8943 81.7961 50.025 80.6765 49.8022 79.7167C49.6668 79.1347 48.0369 77.6604 48.4815 76.6367C48.7755 76.1847 48.0127 76.7643 47.496 75.4315C45.3087 69.7773 41.2731 64.5677 40.1747 61.4086L38.7443 57.2921C38.1425 55.5593 38.7204 53.6194 38.2338 52.0622L37.6605 50.2231C37.4631 49.5918 38.0824 48.4194 38.694 47.935C39.9371 46.9502 41.5582 47.3598 42.731 48.2008C43.6532 48.8618 44.2227 49.7013 44.9868 50.5207L50.8598 56.8142C52.7569 58.8469 54.7401 60.6446 56.6581 62.6307L58.3295 64.3624C58.7299 64.7773 59.2545 65.0972 59.7582 65.4113L64.7874 68.5602L66.0043 69.6397C67.1394 70.6455 68.3743 71.524 69.4179 72.5921C70.1667 73.358 70.1394 72.949 71.5755 73.8723C73.1603 74.8911 74.4111 76.2205 75.8828 77.3817C77.1089 78.3489 78.2764 79.2664 79.4265 80.3241C80.0093 80.8605 80.5637 81.3465 81.3385 81.6864L82.0056 78.9336L84.6665 63.4981C85.0478 61.2871 85.8072 59.2784 85.6421 56.9979C85.9927 56.7895 86.1996 56.6686 86.4211 56.4128C87.1781 53.2712 87.6426 50.1874 88.2179 47.0086C88.7049 44.3226 89.4189 41.8163 90.0308 39.1581L91.9813 30.6872C92.7984 27.1354 93.5257 23.7232 94.119 20.1211C94.3174 18.9119 95.4362 11.9268 95.8895 11.5739C95.9813 11.5015 96.0808 11.6335 96.1057 11.8273C96.0998 12.1615 96.2567 12.4646 96.3628 12.0317C96.5382 11.3255 96.8779 10.7043 97.6098 10.5008C97.9281 11.9282 98.1757 14.4321 98.3154 16.0559L98.681 20.316C98.9615 23.5869 99.6092 26.6995 99.094 30.1754C98.8683 31.6963 99.4513 33.2176 99.7099 34.7317C100.018 36.5241 100.398 38.2146 100.596 40.0111C100.831 42.1546 101.146 44.1767 101.716 46.274C101.85 46.7653 101.56 47.3598 102.141 47.7498C102.073 48.1762 102.194 48.0175 102.389 47.7129C102.728 49.8263 102.798 51.826 103.267 53.911C103.294 54.0288 103.499 54.1084 103.553 54.2277C103.602 54.3342 103.431 54.4707 103.354 54.6322C103.829 55.179 103.868 56.0209 104.073 56.7674C104.134 56.9886 104.614 56.9521 104.638 57.1074C104.668 57.3206 104.698 57.7564 104.355 57.7162C104.013 57.6759 104.399 57.0556 103.969 56.897C104.191 59.5338 105.333 61.9818 106.007 64.6129C106.419 66.2235 106.571 67.7581 107.417 69.2573C107.348 69.135 107.395 70.289 107.824 70.5067C108.062 70.6276 108.008 70.419 107.975 70.2178C107.274 66.0042 105.351 62.904 104.957 58.6441C104.909 58.4432 104.996 58.2046 105.115 58.3948C106.307 61.4323 105.873 62.239 107.406 65.3659C107.846 66.264 107.76 67.2433 108.058 68.2001C109.205 71.8799 110.268 75.5218 111.611 79.109C111.814 79.652 112.112 79.9068 112.354 80.6771L113.218 83.4269C115.347 83.1347 116.265 80.8833 117.185 80.6321C117.432 80.5649 119.585 78.2408 119.479 78.325L134.796 66.0113C135.976 65.0631 137.201 64.2356 138.508 63.5524C139.427 63.0723 140.559 62.9655 140.889 61.7208C141.206 61.6464 141.536 61.6007 141.788 61.4117L146.807 57.6668C147.72 56.9853 148.486 56.077 149.522 55.6054C150.122 55.3312 150.509 55.039 151.011 54.6462C152.119 53.7797 153.527 53.2738 154.621 52.3469L156.099 51.0928C156.445 50.7991 156.686 50.369 157.072 50.0567C158.012 49.2961 158.882 48.6792 160.074 48.3255C160.673 48.1476 161.065 47.8429 161.684 47.8442C161.598 48.0389 161.183 48.599 161.265 48.8864C161.745 50.5657 160.969 51.0528 160.107 52.2631C159.078 53.7087 158.347 55.2423 157.429 56.8184C154.9 61.1661 152.375 65.5166 149.847 69.864C147.404 74.0676 144.96 78.2712 142.686 82.5693C140.638 86.4392 139.175 90.6884 136.983 94.4203C136.772 94.5215 136.792 93.6147 136.635 93.9229L136.463 94.2547C135.923 95.3042 137.307 94.4106 136.045 96.5025C134.927 98.3553 135.266 99.8455 135.22 101.938C136.894 102.866 138.7 103.114 140.372 103.867L142.457 104.804C143.977 105.488 145.79 105.37 147.339 106.07C149.387 106.997 151.336 107.787 153.551 108.255C154.615 108.48 155.736 108.698 156.7 109.157C157.107 109.35 157.268 109.596 157.8 109.578C158.916 109.542 159.905 110.146 160.958 110.467L167.092 112.335C168.665 112.815 169.079 114.112 170.469 114.584C172.598 115.307 174.65 116.013 176.723 116.87C178.041 117.414 179.286 117.976 180.658 118.374C181.297 118.56 181.829 118.874 182.258 119.408C182.383 119.24 182.458 119.15 182.652 119.25L187.692 121.814C190.16 123.07 191.395 123.664 193.239 125.644C193.907 126.362 195.474 127.137 195.667 127.403C196.122 128.032 190.626 128.031 190.051 128.026L182.328 127.948C180.081 127.925 177.927 127.769 175.689 127.924C173.012 128.109 170.195 127.422 168.217 127.411C165.024 127.392 161.934 127.873 158.752 128.06C158.011 128.103 157.322 128.39 156.588 128.471C154.325 128.721 152.176 128.595 149.911 128.757L136.52 129.71C136.541 131.768 136.757 133.665 137.12 135.684C137.738 139.12 138.36 142.422 139.165 145.815C139.888 148.859 140.885 153.671 143.315 155.878C143.26 156.5 143.583 157.085 143.895 157.624C144.668 158.961 145.44 160.299 146.213 161.636C146.293 161.454 146.372 161.271 146.453 161.089C146.945 161.406 147.206 162.044 147.076 162.617C146.043 162.185 148.439 167.912 148.515 168.387C148.652 169.255 148.921 169.776 149.315 170.495C150.377 172.433 151.428 174.379 152.487 176.319C152.286 175.744 152.201 175.127 152.239 174.517C153.11 175.67 154.029 177.067 153.614 178.451C153.554 178.652 153.514 178.948 153.717 179C153.797 178.838 153.877 178.676 153.959 178.513C154.296 179.9 154.449 181.57 155.115 182.843C155.533 183.644 156.814 184.445 156.785 185.416C156.792 185.17 157.148 185.068 157.357 185.2C157.566 185.331 157.654 185.586 157.729 185.822C158.035 186.79 158.34 187.758 158.646 188.725C158.887 189.489 159.126 190.273 159.507 190.983C159.925 191.76 161.476 193.179 159.734 193.547C158.237 193.864 156.417 191.967 155.601 190.95C155.793 190.922 155.986 190.894 156.178 190.866C156.263 190.412 155.774 190.054 155.321 189.964C154.868 189.874 154.375 189.921 153.974 189.694C153.038 189.163 153.332 187.702 152.746 186.799C151.963 185.595 149.785 185.621 149.452 184.224C149.626 184.239 149.799 184.253 149.973 184.268C148.372 183.187 147.291 181.542 145.925 180.207C144.41 178.726 142.867 177.269 141.188 175.973C133.043 169.685 124.455 163.941 115.973 158.057C115.77 157.916 115.487 157.774 115.295 157.93C115.102 158.086 115.495 158.442 115.538 158.197C113.382 156.25 110.908 154.657 108.244 153.499C108.952 153.935 109.662 154.372 110.37 154.808C110.275 154.829 110.18 154.841 110.085 154.845L110.081 154.829ZM97.6875 21.3159C98.0381 21.1732 97.9906 20.9217 97.9222 20.7436C97.8887 20.6536 97.7597 20.5675 97.5861 20.514C97.5953 20.8479 97.6109 21.0479 97.6877 21.3176L97.6875 21.3159ZM44.997 54.6902C44.7809 53.9266 44.3155 53.6345 43.9151 53.2852C44.1182 53.9477 44.3488 54.6017 44.997 54.6902ZM40.3084 59.3558C40.1884 58.3171 39.8785 57.5184 39.2728 56.7645C39.5266 57.6899 39.736 58.6379 40.3084 59.3558ZM46.4348 71.3955C46.2414 71.1492 46.1442 70.8906 45.9987 71.2141C46.214 71.3683 46.1427 71.5475 46.257 71.5716C46.3712 71.5956 46.5416 71.5316 46.4348 71.3955ZM59.0887 70.1514C58.8875 69.923 58.9002 69.7984 58.7471 69.7086C58.6796 69.6685 58.5699 69.5883 58.5859 69.7917C58.6037 70.0083 58.5765 70.2559 58.7284 70.297C58.8506 70.3301 59.1875 70.2649 59.0889 70.153L59.0887 70.1514ZM48.3597 75.5579C48.6258 75.3739 48.5524 74.7771 48.4211 74.5027L47.6519 72.8959C47.4415 73.0677 47.3912 73.3049 47.3635 73.5357C47.3384 73.7461 47.7255 73.8748 47.7855 74.1315C47.8955 74.6073 47.762 75.3906 48.358 75.5581L48.3597 75.5579ZM61.6883 72.5113C61.9438 72.1266 61.4396 71.8613 61.291 72.0421C61.2375 72.1365 61.4422 72.4453 61.6883 72.5113ZM59.8122 73.9058C59.747 73.9883 59.8113 74.3319 59.911 74.3343C59.9956 74.3369 60.0584 74.1436 60.2345 74.1243C60.3921 74.1057 60.1812 73.946 60.111 73.8977C60.0408 73.8495 59.9125 73.7818 59.8122 73.9058ZM96.0819 71.5713C96.1135 71.3197 96.2208 71.2234 96.1537 71.1343C96.0867 71.0453 95.982 71.0301 95.8926 71.082C95.7938 71.1385 95.8132 71.264 95.8611 71.4262C95.8313 71.7062 95.9879 71.8494 96.0819 71.5713ZM95.607 75.4006C95.6024 75.024 95.4269 74.8513 95.343 74.5001C95.2415 74.7589 95.1319 75.2428 95.607 75.4006ZM97.1336 75.979C97.3473 75.938 97.1779 75.7476 97.3133 75.6208C97.4366 75.5056 97.3301 75.4502 97.0944 75.3071C96.9922 75.4954 97.0663 75.6913 97.1336 75.979ZM97.2558 77.8474C97.663 77.6082 97.5005 77.3395 97.3382 77.1128C97.3075 77.3457 97.2013 77.6204 97.2558 77.8474ZM102.872 91.3216C103.049 91.3595 103.588 91.1707 103.534 90.9805L100.58 80.3836C100.417 82.6238 100.997 84.6069 101.218 86.695C101.074 85.3378 101.97 88.9034 101.858 88.763C102.792 89.9377 101.891 91.116 102.872 91.3216ZM97.5905 81.8152C97.757 81.7079 97.6338 81.5486 97.6411 81.3827C97.6481 81.2016 97.5718 81.0666 97.2696 81.193C97.2771 81.448 97.4822 81.5361 97.5907 81.8168L97.5905 81.8152ZM97.4969 83.6693C97.5886 83.2163 97.5796 82.9885 97.3828 82.8336C97.3152 83.1858 97.349 83.4492 97.4969 83.6693ZM103.723 84.2128C103.662 83.7171 103.647 83.2948 103.401 82.8666C103.177 83.313 102.96 84.1811 103.439 84.2846C103.517 84.3016 103.551 84.3476 103.723 84.2144L103.723 84.2128ZM104.211 86.0594C104.167 85.4572 103.96 84.9618 103.685 84.5359C103.576 85.2739 103.532 85.7341 103.862 86.0926C103.928 86.1648 104.224 86.2547 104.209 86.0597L104.211 86.0594ZM99.5794 86.3314C99.3782 86.103 99.3908 85.9785 99.2378 85.8887C99.1703 85.8486 99.0606 85.7684 99.0766 85.9717C99.0943 86.1883 99.0672 86.436 99.219 86.4771C99.3412 86.5102 99.6782 86.445 99.5796 86.3331L99.5794 86.3314ZM99.0575 88.5235C98.9168 87.7956 98.9975 87.1521 98.7156 86.5317C98.8416 87.4332 98.4499 88.5544 99.0575 88.5235ZM104.417 87.2301C104.576 86.9234 104.334 86.7896 104.274 86.6794C104.17 86.484 103.894 86.4488 103.885 86.6789C103.876 86.8888 103.91 87.0629 103.993 87.2325C104.029 87.3069 104.082 87.3339 104.417 87.2318L104.417 87.2301ZM100.677 93.6798C100.458 91.3322 99.9833 89.3171 99.4876 87.2558C99.3506 89.5584 99.869 91.7177 100.677 93.6798ZM105.037 88.0159C104.6 87.7656 104.846 87.4612 104.442 87.2959C104.051 87.6157 104.136 88.1788 104.412 88.5963C104.678 88.2506 104.786 88.097 105.037 88.0143L105.037 88.0159ZM98.6974 89.7198C98.6126 89.1649 98.6943 88.8698 98.4757 88.5847L98.363 89.5034C98.3525 89.5923 98.5925 89.7821 98.6955 89.7183L98.6974 89.7198ZM104.839 89.8818C104.982 89.9121 105.118 89.7314 105.094 89.6806C105.071 89.6297 104.919 89.5532 104.913 89.384C104.899 89.0304 104.504 89.0341 104.553 89.4049C104.798 89.5132 104.733 89.8583 104.839 89.8818ZM98.642 91.2676C98.7337 90.8146 98.7246 90.5868 98.5278 90.4319C98.4602 90.7841 98.4941 91.0475 98.642 91.2676ZM98.2195 93.0797C98.6342 92.5701 98.3349 92.1034 98.196 91.6515C98.2248 92.1243 98.0535 92.5875 98.2195 93.0797ZM100.141 96.4917C98.6498 96.2573 101.002 94.8673 99.7053 95.2545L98.5582 95.5972C98.495 96.5079 98.4644 97.3705 98.868 98.1909C99.3152 97.502 99.6398 97.0124 100.141 96.4934L100.141 96.4917ZM124.493 93.084C124.675 92.8603 124.793 92.6363 124.651 92.4104C124.519 92.2 124.309 92.1361 124.042 92.199C123.81 92.2524 123.757 92.4832 123.683 92.7571C123.6 93.059 123.733 93.281 123.916 93.3636C124.191 93.4898 124.336 93.276 124.493 93.084ZM114.87 104.161C113.634 103.749 112.118 104.732 110.821 105.043C110.773 105.172 110.805 105.397 110.885 105.508C110.99 105.55 116.07 104.66 114.87 104.162L114.87 104.161ZM68.4155 121.576C71.5017 123.082 72.3521 124.364 75.727 124.957C76.7423 125.136 77.6697 125.785 78.7372 125.833C81.3335 125.952 84.2717 125.691 86.5763 124.393L89.3727 122.818C90.645 122.1 91.6505 121.036 92.7727 120.146C91.9144 118.423 90.0124 116.968 88.7923 115.196C86.1029 111.285 84.9231 110.887 80.4004 109.307C80.0099 110.515 80.0068 111.789 79.8095 113.072C79.6661 114.001 79.313 114.885 79.0709 115.78C78.7852 116.834 78.0438 117.554 77.3434 118.331C76.5693 119.19 75.7139 119.953 74.4771 120.122C71.2583 120.559 71.4935 120.62 68.2442 119.536C68.1379 119.901 68.0789 120.111 67.8303 120.129C67.4531 120.157 66.573 119.693 66.6264 119.296C67.2083 119.236 67.5996 119.711 68.2355 119.547C66.5423 118.655 65.1677 117.528 64.4343 115.676C64.2228 116.259 63.6864 117.092 64.0205 117.699C64.7154 118.964 66.9505 120.86 68.4136 121.575L68.4155 121.576ZM91.5802 110.357C91.413 109.829 91.0837 109.639 90.6441 109.64C90.9285 109.966 91.2018 110.192 91.5802 110.357ZM135.22 104.505C135.329 104.779 135.635 104.614 135.756 104.517C135.876 104.421 135.985 104.244 135.921 104.077C135.863 103.926 135.682 103.855 135.468 103.889C135.639 104.201 135.358 104.358 135.218 104.506L135.22 104.505ZM136.362 104.475C136.238 104.654 136.423 104.743 136.53 104.842C136.631 104.934 136.708 104.888 136.699 104.805C136.68 104.629 136.69 104.535 136.657 104.482C136.615 104.412 136.448 104.349 136.362 104.475ZM56.3896 116.984C56.4059 116.888 56.3463 116.739 56.2709 116.755C56.1611 116.78 55.9987 116.735 55.8969 116.847C55.7716 116.986 55.7312 117.118 55.7252 117.241C55.7206 117.35 55.841 117.408 55.9369 117.381C56.0683 117.342 56.3715 117.093 56.3894 116.983L56.3896 116.984ZM33.43 120.454C33.1864 120.419 33.0455 120.018 32.6498 120.125C32.4838 120.17 32.7614 120.508 32.8731 120.578C33.0453 120.685 33.2339 120.802 33.4317 120.454L33.43 120.454ZM123.358 124.813C123.744 124.643 124.079 124.257 124.555 124.149C126.057 123.811 127.213 122.888 128.503 122.165C129.014 121.878 129.123 121.56 129.599 121.214L133.785 118.177C133.392 117.155 132.608 116.286 131.829 115.465C131.217 114.823 130.835 114.064 130.313 113.356C130.027 112.969 129.381 112.991 129.122 112.6C128.819 112.139 128.188 111.873 127.97 111.484C127.688 110.983 127.582 110.8 127.074 110.53C126.457 110.203 125.991 109.539 125.184 109.383L122.34 108.831C121.231 108.617 120.046 108.961 118.893 109.025L119.021 113.545C119.052 114.649 118.74 115.713 118.422 116.789C117.424 120.165 114.919 120.519 111.812 120.856C110.812 120.965 109.949 120.456 109.056 120.234C106.354 119.566 106.539 118.906 104.462 117.378C103.761 118.707 103.703 120.146 104.113 121.556C104.195 121.834 104.133 122.443 104.391 122.618C108.479 125.412 105.465 123.799 110.168 125.503C112.898 126.49 115.696 126.513 118.526 125.907C120.179 125.553 121.818 125.487 123.358 124.813ZM57.0839 119.424L58.3941 118.895C58.4444 118.461 58.0509 118.362 57.6414 118.492C57.4132 118.565 57.2154 118.783 57.169 119.076C57.1578 119.147 56.8285 119.088 56.7652 119.12C56.6764 119.163 56.7589 119.281 56.8209 119.305C56.8653 119.323 56.9991 119.459 57.0823 119.424L57.0839 119.424ZM96.7003 114.029C96.5612 113.773 96.2934 114.061 96.2569 114.184C96.0796 114.771 96.2745 114.859 96.7588 115.611C96.8825 115.053 96.9744 114.536 96.7003 114.029ZM63.7028 119.094C63.5419 118.904 63.3901 118.876 63.2494 118.896C63.239 119.248 63.0909 119.393 62.9321 119.626C63.3089 119.739 63.5827 119.496 63.7028 119.094ZM55.7358 122.803C55.7714 122.595 55.1295 122.464 54.9874 122.721C54.9626 122.935 55.5981 123.069 55.7358 122.803ZM62.3207 124.005C62.7251 123.218 59.0273 123.298 58.5275 123.041C58.3169 123.014 57.8354 123.252 57.6185 123.583L62.3207 124.005ZM97.3225 121.151C97.475 121.433 97.8244 121.268 97.9207 121.126C98.4482 120.341 97.7413 120.7 98.2199 118.906C98.2803 118.681 97.7683 118.288 97.5245 118.332C97.5397 119.079 97.1479 119.491 96.6229 119.916C96.7371 120.214 96.8219 120.205 96.9082 120.182C97.0418 120.146 97.2688 120.038 97.3448 120.092C97.4816 120.396 97.1514 120.829 97.3241 121.151L97.3225 121.151ZM23.1882 129.455C22.8186 129.135 22.4908 129.324 22.2707 129.46C22.6415 129.475 22.9371 129.782 23.1882 129.455ZM139.71 115.112C139.398 114.583 138.169 114.866 138.01 115.258C137.9 115.811 140.017 116.581 140.484 115.942C140.649 115.719 140.834 115.232 140.539 114.994C140.244 114.756 139.936 115.019 139.708 115.112L139.71 115.112ZM27.221 130.016C26.7734 129.548 26.4302 130.089 26.0586 130.16C26.4766 130.096 26.9041 130.434 27.221 130.016ZM61.4516 127.467L62.2425 127.394C62.0276 127.046 61.7196 126.852 61.4549 126.535C61.3015 126.351 61.5973 125.94 61.6525 125.7C60.9025 125.37 60.1551 125.702 59.5646 126.246L60.8489 126.539C60.8352 127.272 60.2679 127.446 59.64 127.764C60.1618 128.049 60.7238 127.781 61.2667 127.994C61.7812 128.196 62.1727 128.634 62.804 128.696C63.0292 128.717 63.0123 128.389 62.9321 128.263C62.7122 127.916 61.4798 128.447 61.45 127.467L61.4516 127.467ZM64.1328 125.56C64.1568 125.72 64.2737 125.961 64.3915 125.986C64.5958 126.029 64.5871 125.857 64.6053 125.71C64.6184 125.602 64.8313 125.436 64.6231 125.455C64.4915 125.467 64.1153 125.449 64.1328 125.56ZM103.253 122.035C103.535 121.945 103.413 121.197 103.292 120.907C102.948 120.881 102.892 121.191 102.811 121.368C102.697 121.614 102.741 122.191 103.253 122.035ZM134.429 117.606C134.796 117.431 134.318 116.923 134.03 116.871C133.897 117.137 134.224 117.705 134.429 117.606ZM98.3268 121.756C98.4888 122.4 97.8388 122.376 97.6498 122.623C97.2552 123.131 97.7368 123.824 97.7345 124.37C97.7334 124.715 97.714 124.918 98.0769 124.937C98.6198 124.966 99.4263 121.554 98.3271 121.758L98.3268 121.756ZM41.4152 129.653C40.8835 129.58 40.5506 129.625 40.2041 129.694C40.3338 129.982 40.3368 130.203 40.4335 130.3C40.6074 130.473 41.5594 130.303 41.5637 130.18C41.5664 130.07 41.6022 129.68 41.4154 129.655L41.4152 129.653ZM42.1255 130.225C42.0036 130.404 42.1869 130.494 42.294 130.593C42.3951 130.684 42.4716 130.637 42.463 130.557C42.4433 130.378 42.4536 130.288 42.4213 130.233C42.3846 130.17 42.2124 130.101 42.1257 130.227L42.1255 130.225ZM46.3937 130.94C45.9064 130.674 45.3892 130.648 44.8073 130.551C44.4715 130.495 44.2473 129.943 43.8885 129.995C43.5742 130.041 43.5449 131.058 43.8372 131.182C44.2311 131.351 44.8047 131.252 45.2272 131.524C45.5589 131.077 45.9106 130.956 46.3937 130.94ZM140.66 117.943C140.299 117.559 139.803 117.463 139.447 117.86C139.889 117.995 140.253 118.108 140.66 117.943ZM41.5847 130.448C41.3606 130.435 41.2003 130.459 40.9407 130.536C40.9878 130.745 41.1733 130.577 41.3002 130.712C41.4078 130.828 41.4994 130.767 41.5847 130.448ZM38.9968 131.207C38.2896 131.131 37.7371 131.079 37.5196 131.615L38.9968 131.207ZM76.0243 126.956C75.6237 126.513 75.0177 127.015 75.0387 127.113C75.4602 127.089 75.7293 127.099 76.0243 126.956ZM106.724 124.55C106.032 124.281 105.402 124.095 104.613 124.002C105.046 124.816 105.967 125.098 106.724 124.55ZM137.008 122.703C136.515 122.615 136.08 122.709 135.683 122.489C136.063 122.013 136.513 122.233 136.958 121.827C135.874 121.709 135.466 120.918 135.168 121.209C135.122 121.253 135.315 121.41 135.246 121.51C135.101 121.721 134.883 121.85 134.893 122.044C134.903 122.238 135.117 122.433 135.084 122.654C135.033 123.012 134.469 122.886 134.288 123.144C134.173 123.307 134.391 123.565 134.519 123.627C134.646 123.69 134.887 123.373 135.007 123.391C137.132 123.691 137.582 122.806 137.006 122.705L137.008 122.703ZM109.916 127.354L108.704 127.233C108.609 127.224 107.348 125.936 106.617 126.395C105.635 127.013 108.184 127.394 108.77 127.745L110.303 128.664C110.473 128.765 110.628 128.491 110.612 128.379C110.62 128.437 109.931 127.357 109.916 127.355L109.916 127.354ZM178.866 118.128C178.259 117.928 177.776 117.606 177.062 117.553C177.511 118.083 178.164 118.25 178.866 118.128ZM116.357 126.992C116.408 126.748 116.137 126.507 115.986 126.584C115.804 126.676 115.382 126.523 115.315 126.773C115.254 126.998 115.609 127.211 115.783 127.216C115.927 127.219 116.321 127.169 116.357 126.991L116.357 126.992ZM129.428 126.58C129.287 126.79 129.516 126.911 129.661 126.858C129.721 126.837 129.862 126.905 129.9 126.737C129.893 126.765 129.591 126.339 129.428 126.58ZM61.2073 136.97C61.7826 136.662 61.9268 136.394 61.9884 136.034C61.4962 136.294 61.3156 136.646 61.2073 136.97ZM124.962 128.245C124.728 128.09 124.277 128.156 123.987 128.35C124.087 128.622 124.357 128.584 124.596 128.619C124.764 128.644 124.948 128.488 124.962 128.245ZM132.566 127.989C132.667 127.556 132.379 127.364 132.247 127.398C132.113 127.668 132.311 127.956 132.566 127.989ZM167.675 124.059C167.999 123.578 167.781 123.427 167.591 123.376C167.301 123.297 167.088 123.176 166.842 123.408C167.13 123.634 167.285 123.917 167.675 124.059ZM166.634 124.036C166.672 123.918 166.625 123.808 166.425 123.807C166.224 123.806 166.187 123.598 166.086 123.763C166 123.9 165.884 124.028 166.051 124.02C166.344 124.006 166.536 124.347 166.636 124.036L166.634 124.036ZM169.116 123.853C168.63 123.678 168.193 123.405 168.124 123.713C168.024 124.164 168.415 124.083 168.578 124.069C168.816 124.047 169.139 124.133 169.116 123.855L169.116 123.853ZM169.544 124.118C169.407 124.35 169.652 124.456 169.791 124.395C169.854 124.366 169.989 124.42 170.031 124.273C170.069 124.147 169.975 124.022 169.907 124.04C169.802 124.065 169.6 124.025 169.544 124.118ZM147.79 128.132C148.089 128.256 148.39 128.289 148.497 127.893C148.244 127.834 148.08 128.04 147.79 128.132ZM151.583 127.663C150.815 127.797 148.432 127.566 148.945 128.003C149.056 128.1 151.523 127.8 151.583 127.663ZM171.497 126.107C171.199 125.983 171.038 126.08 170.77 126.145C170.873 126.288 170.985 126.398 171.082 126.404C171.209 126.413 171.506 126.459 171.495 126.107L171.497 126.107ZM57.0034 140.963C56.5665 140.959 56.4526 141.226 56.3968 141.447C56.3565 141.606 56.3415 142.066 56.5409 142.031C57.0039 141.95 57.2144 141.372 57.0034 140.963ZM135.103 131.084C135.139 131.298 135.26 131.323 135.322 131.345C135.402 131.374 135.543 131.31 135.551 131.227C135.564 131.092 135.498 130.988 135.432 130.996C135.366 131.005 135.087 130.985 135.103 131.084ZM136.113 132.545C136.165 132.239 136.136 131.933 135.91 131.58C135.689 131.75 135.661 131.977 135.738 132.184C135.785 132.31 135.893 132.442 136.115 132.545L136.113 132.545ZM135.047 132.13C134.935 132.479 135.067 132.599 135.286 132.534C135.395 132.501 135.38 132.278 135.275 132.209C135.221 132.173 135.089 131.998 135.047 132.13ZM193.42 126.647C192.957 126.235 192.755 126.047 192.369 125.775C192.269 126.111 192.425 126.458 192.692 126.636C192.875 126.757 193.252 126.825 193.418 126.647L193.42 126.647ZM136.049 133.933C136.381 133.801 136.192 133.234 135.984 133.271C135.684 133.323 135.845 134.013 136.049 133.933ZM134.812 133.969C134.86 134.188 134.93 134.327 135.023 134.406C135.065 134.443 135.098 134.284 135.175 134.228C135.316 134.126 135.161 134.077 135.065 133.983C135.024 133.943 134.788 133.862 134.812 133.969ZM91.977 144.968C92.3004 144.876 92.4785 144.479 92.3638 144.386C92.1838 144.245 92.0207 144.496 91.9385 144.577C91.8369 144.678 91.7217 145.04 91.977 144.968ZM89.7107 147.967C90.227 148.17 90.5125 147.888 90.8328 147.666C92.2886 146.659 93.6752 145.69 95.4225 145.063C95.3924 144.671 95.0337 144.449 94.8154 144.324C94.5118 144.151 94.1311 144.282 93.8637 144.495L91.8525 146.097C91.3176 146.523 90.9201 147.074 90.1566 147.098C90.0645 147.43 90.0138 147.809 89.7107 147.967ZM78.284 148.798C78.5953 148.756 78.5188 148.449 78.3689 148.436C77.8424 148.39 77.8709 148.861 77.8364 148.762C77.8579 148.825 78.0488 148.829 78.2823 148.798L78.284 148.798ZM93.8701 147.114C93.8571 147.013 93.7488 146.97 93.6571 146.965C93.3974 146.949 93.1732 147.46 93.2267 147.574C93.2475 147.619 93.9175 147.522 93.8684 147.114L93.8701 147.114ZM92.7067 148.011C92.6225 147.684 91.533 147.937 91.7355 148.438C91.8369 148.689 92.8165 148.433 92.7067 148.011ZM88.9061 148.693C89.1482 148.454 88.8755 148.403 88.6471 148.54C88.5287 148.641 88.4268 148.726 88.4038 148.835C88.3772 148.957 88.5019 149.035 88.6227 148.966C88.6791 148.933 88.7373 148.848 88.9063 148.695L88.9061 148.693ZM105.247 147.455C104.28 147.179 103.857 146.588 102.984 146.574C103.412 147.519 104.465 147.834 105.247 147.455ZM50.7386 153.788C50.6265 153.558 50.2258 153.704 50.1663 153.949C50.1391 154.065 49.9733 154.177 50.0502 154.422C50.283 154.267 50.6924 154.097 50.7386 153.788ZM85.1102 151.3C85.7257 151.055 85.9528 150.673 85.9692 150.066C85.4069 150.201 84.779 150.637 85.1102 151.3ZM81.3664 151.35C81.6574 151.045 81.4019 150.734 81.1283 151.03C80.9019 151.275 81.0084 151.514 81.3664 151.35ZM110.308 150.814C110.472 150.362 110.42 150.076 110.162 149.819C109.743 150.077 109.919 150.566 110.308 150.814ZM107.765 151.198C107.663 150.659 107.267 150.508 106.863 150.711C107.164 150.859 107.301 151.209 107.765 151.198ZM83.7202 154.327C83.3255 154.1 82.9868 154.086 82.632 154.171C82.5718 154.488 82.5957 154.753 82.7485 155.038C83.1708 154.994 83.5848 154.794 83.7204 154.329L83.7202 154.327ZM82.2094 155.693C82.4319 154.304 79.8444 157.255 80.0976 157.128C80.9351 156.815 81.5316 156.279 82.2094 155.693ZM112.346 152.032C112.361 152.183 112.5 152.427 112.612 152.458C112.732 152.491 112.791 152.303 112.822 152.18C112.853 152.056 113.026 151.906 112.838 151.925C112.698 151.94 112.336 151.914 112.347 152.034L112.346 152.032ZM113.494 152.662C113.568 152.39 113.306 152.161 113.206 152.046C113.004 152.288 112.928 152.479 112.985 152.625C113.038 152.76 113.439 152.865 113.494 152.662ZM113.936 152.693C113.82 153.04 113.957 153.169 114.173 153.094C114.265 153.062 114.316 152.872 114.152 152.765C114.101 152.731 113.978 152.563 113.936 152.693ZM66.003 161.346C66.9759 161.037 67.5248 160.406 68.2479 159.963C68.8696 159.583 69.6969 159.519 70.0256 158.655C69.2764 158.96 68.5047 159.3 67.8649 159.788C67.351 160.181 66.9938 160.639 66.2915 160.799C66.0542 160.853 65.617 161.2 66.0045 161.344L66.003 161.346ZM79.3258 157.86C78.8713 157.548 78.8508 157.757 78.7272 157.777C78.4486 157.825 78.4071 158.184 78.6706 158.137C78.934 158.089 79.1014 157.871 79.3258 157.86ZM115.375 153.747C115.521 153.594 115.332 153.399 115.196 153.308C115.107 153.248 114.928 153.167 114.812 153.36C114.687 153.567 114.838 153.712 114.94 153.728C115.041 153.743 115.237 153.893 115.375 153.747ZM66.107 162.981C66.0231 162.734 65.5242 162.667 65.3916 162.75C65.2435 162.843 65.3769 163.225 65.2902 163.507C65.562 163.472 66.0062 163.245 66.1087 162.981L66.107 162.981ZM61.4956 166.347C62.5036 165.709 63.5722 165.201 64.29 164.179C64.3642 164.075 63.9902 163.918 63.9023 164.02C63.3193 164.701 62.8576 164.53 61.9939 165.203C61.99 165.396 62.1795 165.52 61.9756 165.729C61.8004 165.651 61.7737 165.483 61.6532 165.449C61.5727 165.426 61.3871 165.463 61.2928 165.581C60.4432 166.652 59.2629 166.592 59.5554 167.111C59.8851 167.697 61.3476 166.44 61.494 166.347L61.4956 166.347ZM56.4479 168.848C56.2445 168.694 56.094 168.676 55.9997 168.558C56.23 168.384 56.3536 168.232 56.2655 168.11C56.1406 167.938 56.0338 167.736 55.9057 167.735C55.2757 167.735 55.3918 168.849 55.114 169.007C54.5633 169.324 53.9044 169.545 53.8774 170.331C54.6785 169.669 55.7104 169.729 56.4477 168.846L56.4479 168.848ZM51.6588 171.984C51.9695 172.173 52.1009 171.951 52.277 171.866C52.4846 171.763 52.5496 171.627 52.3685 171.28C52.1834 171.57 51.9198 171.656 51.6588 171.984ZM51.9623 173.048C52.2548 172.138 50.4988 173.589 50.5541 173.692C51.1096 173.701 51.4429 173.359 51.9623 173.048ZM35.2252 184.219C36.1722 183.905 36.7085 183.399 37.4518 183.061C37.2514 182.694 36.9697 182.626 36.7457 182.587C36.5217 182.549 36.4515 182.854 36.34 183.048C36.0466 183.558 35.372 183.617 35.2252 184.219ZM142.576 173.946C142.685 173.272 142.217 173.078 141.876 172.768C141.204 172.154 140.719 171.411 139.886 171.001C139.901 171.715 140.555 171.902 140.915 172.29C141.451 172.868 141.691 173.654 142.577 173.947L142.576 173.946ZM31.3872 188.713C30.6498 188.769 30.2585 189.198 29.8391 189.644C30.4864 189.543 30.8788 189.017 31.3872 188.713ZM144.834 175.885C144.785 174.92 143.969 174.673 143.328 174.868C143.675 175.517 144.19 175.914 144.834 175.885ZM145.319 176.398C145.36 176.609 145.453 176.769 145.529 176.835C145.57 176.871 145.606 176.714 145.683 176.658C145.823 176.556 145.67 176.507 145.572 176.413C145.532 176.373 145.299 176.29 145.319 176.4L145.319 176.398ZM154.178 188.934C154.166 188.595 153.915 188.183 153.499 188.279C153.697 188.533 153.711 188.814 154.178 188.934Z" fill="black"/>
<path d="M36.5353 48.5724C36.0753 48.4799 35.5694 47.7687 35.2735 47.4582L33.8183 45.9412C33.9583 46.0866 32.0432 42.3017 32.2107 41.0089C32.3223 40.1476 31.9066 39.2851 32.1845 38.4462C32.5849 38.4806 32.8941 38.8029 33.2752 39.0149C33.4231 38.6844 33.1555 38.4511 33.235 38.0603C35.3642 39.7752 34.668 39.0901 35.8307 41.0976C35.9977 41.3877 36.4735 41.3147 36.6549 41.5861C37.6193 43.0331 38.8033 44.1977 40.1033 45.3726C36.9417 45.954 39.2449 46.7424 36.5367 48.5705L36.5353 48.5724ZM38.2911 44.4723C37.8778 44.0876 37.8007 43.7237 37.3689 43.5755C37.5636 44.0287 37.7924 44.3411 37.9073 44.7759C38.1069 44.7957 38.3395 44.6917 38.2928 44.4721L38.2911 44.4723Z" fill="black"/>
</g>
</svg>
