<svg width="223" height="137" viewBox="0 0 223 137" fill="none" xmlns="http://www.w3.org/2000/svg">
<mask id="mask0_1071_3304" style="mask-type:luminance" maskUnits="userSpaceOnUse" x="-13" y="-5" width="251" height="291">
<path d="M204.18 -4.99988L-13 22.9131L20.8049 285.936L237.985 258.023L204.18 -4.99988Z" fill="white"/>
</mask>
<g mask="url(#mask0_1071_3304)">
<path d="M73.3203 116.993L76.4258 141.414L134.73 138.936L147.604 134.77L157.611 126.979L151.231 113.682L133.688 114.427L73.3203 116.993Z" fill="#F3F3F3"/>
<path d="M73.3203 116.993L76.4258 141.414L134.73 138.936L147.604 134.77L157.611 126.979L151.231 113.682L133.688 114.427L73.3203 116.993Z" fill="black"/>
<path d="M73.3203 116.993L76.4258 141.414L134.73 138.936L147.604 134.77L157.611 126.979L151.231 113.682L133.688 114.427L73.3203 116.993Z" stroke="black"/>
<path d="M127.097 167.409C126.153 167.435 125.213 166.693 125.086 165.746C122.538 164.236 120.029 162.652 117.476 161.154C117.182 160.981 110.876 158.068 111.046 159.391C104.743 163.011 98.818 167.354 93.739 172.478C93.342 172.88 92.848 173.168 92.36 173.452C89.421 175.165 86.3682 176.766 83.5214 178.627C82.7082 179.159 75.6209 183.36 75.6887 183.887C73.0513 185.552 69.2315 186.628 67.1281 188.973C64.0365 190.14 61.0431 191.501 58.526 193.664C58.0799 194.045 55.9955 195.751 56.1089 195.641C55.5831 196.147 55.2083 196.691 54.5643 197.109C51.3162 199.218 48.5686 200.302 45.5011 202.532C45.0361 202.869 44.5588 203.067 44.0222 203.314C43.1353 203.726 42.5329 204.585 41.6648 205.07C39.8323 206.093 38.099 207.056 36.3354 208.281C35.6722 204.376 37.2738 198.461 39.9155 195.503C41.4618 193.77 43.155 192.626 44.4776 190.598C45.772 188.614 46.7736 186.452 48.0619 184.464C50.1909 181.18 52.396 177.932 54.4517 174.603L58.425 168.167C58.8863 167.422 59.1731 166.515 59.4316 165.725C59.5163 165.464 59.2372 165.146 59.4324 164.796L61.121 161.763C62.0857 160.031 61.2233 159.348 62.6549 159.453C63.8605 156.208 65.4924 154.383 67.3381 151.477C67.5658 151.118 67.9081 150.92 67.9421 150.397C67.9559 150.198 68.3047 150.226 68.3955 150.32C68.528 150.46 68.3173 150.675 68.3896 151.018C69.3179 150.301 68.2479 149.857 68.8113 148.943L71.0132 145.379C67.2343 144.145 63.419 144.118 59.6448 143.257C59.4824 143.22 59.4269 143.371 59.4781 143.507C59.0213 144.04 58.5316 143.222 58.1893 143.185C52.5325 142.579 46.9188 142.133 41.2574 141.563C42.0781 140.417 43.7603 140.443 45.1611 140.585C43.6565 140.058 41.9817 140.032 40.4616 140.508C40.8013 140.641 41.1409 140.774 41.4806 140.906C40.4707 141.09 39.4149 141.02 38.44 140.703C38.7512 140.876 39.0603 141.049 39.3715 141.222C32.9011 140.897 26.5448 138.497 20.1301 138.517L9.40467 138.553C8.71097 138.556 8.11237 138.13 7.40047 138.168C7.05577 138.186 7.41897 137.888 7.37117 137.136C7.31747 136.281 6.77227 137.264 5.24037 137.328C5.58447 137.612 5.99487 137.564 6.40647 137.804C6.63867 137.889 6.54457 137.974 6.31937 138.031C4.80807 138.518 3.32107 138.551 1.86887 138.579C1.83247 137.318 2.38637 136.227 3.56447 136.096L4.79537 137.179C0.60747 133.493 18.8186 127.729 21.2139 126.954C25.5184 125.563 29.8245 124.169 34.129 122.778C35.0963 122.466 36.067 122.152 37.0729 121.995C38.0202 120.784 39.664 120.16 41.1763 120.44C41.6801 120.711 42.3136 120.941 42.7979 120.637C43.2822 120.332 43.069 119.331 42.5182 119.482C44.0439 119.02 45.5712 118.555 47.0969 118.093C52.2728 115.877 57.447 113.664 62.6229 111.448C64.4028 110.687 69.1696 109.637 70.3269 108.148C71.4842 106.659 68.886 103.899 68.2195 102.114C67.5529 100.328 66.963 98.672 66.1776 96.954L64.0009 92.1903L62.106 88.671C61.7509 88.0098 61.182 87.5824 60.7707 87.024C60.0803 86.0891 60.2258 84.8424 59.9778 83.7737C59.8269 83.1256 58.0121 81.484 58.5071 80.3442C58.8345 79.8409 57.9852 80.4863 57.4099 79.0022C54.9743 72.7064 50.4808 66.9057 49.2577 63.3881L47.665 58.8045C46.995 56.8751 47.6384 54.7151 47.0966 52.9811L46.4583 50.9333C46.2385 50.2304 46.928 48.925 47.609 48.3856C48.9932 47.289 50.7982 47.7451 52.1041 48.6815C53.131 49.4176 53.7651 50.3523 54.6159 51.2647L61.1554 58.2724C63.2678 60.5357 65.4759 62.5374 67.6116 64.7489L69.4727 66.6771C69.9185 67.1391 70.5027 67.4952 71.0635 67.845L76.6634 71.3512L78.0184 72.5532C79.2822 73.6732 80.6573 74.6514 81.8194 75.8406C82.6531 76.6934 82.6227 76.238 84.2217 77.2661C85.9864 78.4005 87.379 79.8807 89.018 81.1737C90.383 82.2507 91.683 83.2723 92.964 84.4501C93.613 85.0472 94.23 85.5885 95.093 85.9669L95.835 82.9017L98.798 65.7147C99.223 63.2528 100.068 61.0162 99.885 58.4768C100.275 58.2448 100.505 58.1102 100.752 57.8254C101.595 54.3273 102.112 50.8936 102.753 47.3541C103.295 44.3633 104.09 41.5726 104.771 38.6128L106.943 29.1806C107.853 25.2258 108.663 21.4264 109.323 17.4155C109.544 16.0691 110.79 8.29151 111.295 7.89851C111.397 7.81791 111.508 7.96481 111.536 8.18061C111.529 8.55271 111.704 8.89021 111.822 8.40821C112.017 7.62191 112.395 6.93021 113.21 6.70361C113.565 8.29291 113.84 11.081 113.996 12.889L114.403 17.6326C114.715 21.2747 115.437 24.7405 114.863 28.6108C114.612 30.3042 115.261 31.9981 115.549 33.6841C115.891 35.6799 116.315 37.5621 116.535 39.5625C116.797 41.9493 117.148 44.2009 117.782 46.5361C117.931 47.0831 117.609 47.7451 118.256 48.1794C118.18 48.6541 118.315 48.4774 118.532 48.1383C118.909 50.4915 118.987 52.7182 119.509 55.0397C119.539 55.1708 119.768 55.2595 119.828 55.3924C119.883 55.511 119.692 55.663 119.607 55.8427C120.135 56.4516 120.179 57.3891 120.407 58.2202C120.475 58.4666 121.01 58.4259 121.036 58.5988C121.07 58.8363 121.102 59.3215 120.721 59.2767C120.34 59.2319 120.769 58.5412 120.291 58.3646C120.539 61.3006 121.81 64.0264 122.56 66.956C123.019 68.7493 123.188 70.4581 124.131 72.1275C124.053 71.9912 124.106 73.2762 124.583 73.5186C124.848 73.6532 124.788 73.421 124.752 73.1969C123.971 68.5052 121.83 65.0532 121.391 60.3099C121.337 60.0862 121.435 59.8206 121.567 60.0323C122.895 63.4145 122.412 64.3128 124.118 67.7945C124.608 68.7945 124.512 69.8849 124.844 70.9502C126.121 75.0476 127.304 79.1027 128.801 83.097C129.027 83.7017 129.358 83.9853 129.627 84.8431L130.589 87.9049C132.96 87.5796 133.983 85.0727 135.007 84.793C135.282 84.7182 137.679 82.1303 137.561 82.2241L154.616 68.5131C155.93 67.4573 157.294 66.5359 158.749 65.7751C159.772 65.2405 161.033 65.1217 161.4 63.7358C161.754 63.6529 162.12 63.602 162.401 63.3916L167.99 59.2217C169.007 58.4629 169.86 57.4515 171.013 56.9263C171.681 56.6211 172.112 56.2958 172.671 55.8583C173.905 54.8935 175.472 54.3303 176.69 53.2982L178.336 51.9017C178.722 51.5747 178.99 51.0958 179.42 50.7481C180.467 49.9011 181.435 49.2143 182.763 48.8205C183.43 48.6223 183.866 48.2831 184.555 48.2846C184.459 48.5012 183.997 49.1249 184.089 49.445C184.624 51.3149 183.759 51.8572 182.799 53.2048C181.654 54.8145 180.84 56.5221 179.818 58.2771C177.001 63.1181 174.189 67.9623 171.375 72.803C168.654 77.4836 165.934 82.1642 163.401 86.95C161.121 91.259 159.493 95.99 157.052 100.146C156.817 100.258 156.839 99.249 156.663 99.592L156.473 99.961C155.871 101.13 157.412 100.135 156.006 102.464C154.761 104.527 155.14 106.187 155.088 108.516C156.953 109.55 158.963 109.826 160.825 110.664L163.147 111.708C164.839 112.469 166.857 112.338 168.582 113.117C170.863 114.149 173.033 115.029 175.5 115.55C176.684 115.801 177.932 116.044 179.005 116.555C179.459 116.77 179.638 117.043 180.23 117.023C181.473 116.984 182.574 117.656 183.747 118.013L190.577 120.094C192.328 120.628 192.789 122.072 194.337 122.597C196.708 123.402 198.993 124.189 201.301 125.143C202.769 125.749 204.155 126.375 205.682 126.818C206.394 127.025 206.986 127.374 207.464 127.969C207.603 127.782 207.686 127.682 207.903 127.792L213.515 130.648C216.263 132.046 217.638 132.708 219.691 134.913C220.435 135.712 222.18 136.575 222.394 136.872C222.9 137.572 216.781 137.571 216.141 137.565L207.542 137.477C205.04 137.452 202.641 137.279 200.149 137.451C197.169 137.658 194.032 136.893 191.83 136.88C188.274 136.858 184.833 137.394 181.29 137.602C180.465 137.65 179.698 137.97 178.88 138.06C176.361 138.339 173.968 138.198 171.446 138.378L156.536 139.44C156.559 141.732 156.8 143.843 157.203 146.092C157.892 149.918 158.584 153.594 159.481 157.373C160.286 160.762 161.396 166.12 164.102 168.577C164.041 169.27 164.4 169.921 164.748 170.521C165.609 172.01 166.468 173.5 167.329 174.989C167.418 174.786 167.506 174.582 167.596 174.379C168.144 174.732 168.434 175.443 168.289 176.081C167.139 175.6 169.807 181.977 169.892 182.506C170.044 183.473 170.344 184.053 170.782 184.853C171.966 187.011 173.135 189.178 174.315 191.338C174.09 190.697 173.996 190.01 174.039 189.332C175.008 190.615 176.032 192.171 175.569 193.712C175.503 193.936 175.459 194.266 175.684 194.323C175.773 194.143 175.862 193.963 175.953 193.78C176.328 195.326 176.5 197.184 177.241 198.602C177.706 199.495 179.132 200.386 179.101 201.468C179.108 201.193 179.505 201.08 179.737 201.226C179.97 201.373 180.068 201.656 180.151 201.92C180.492 202.997 180.831 204.074 181.172 205.152C181.441 206.002 181.707 206.875 182.131 207.666C182.597 208.531 184.323 210.111 182.384 210.521C180.717 210.874 178.691 208.761 177.782 207.629C177.996 207.598 178.211 207.567 178.425 207.535C178.519 207.03 177.975 206.631 177.47 206.531C176.966 206.431 176.417 206.483 175.97 206.231C174.928 205.639 175.256 204.013 174.603 203.008C173.731 201.667 171.306 201.695 170.935 200.14C171.128 200.156 171.322 200.173 171.515 200.189C169.732 198.986 168.529 197.153 167.008 195.667C165.322 194.018 163.603 192.396 161.733 190.953C152.664 183.951 143.102 177.555 133.657 171.004C133.431 170.847 133.116 170.689 132.902 170.863C132.688 171.036 133.125 171.432 133.173 171.16C130.772 168.991 128.018 167.217 125.051 165.928C125.84 166.414 126.63 166.901 127.418 167.386C127.313 167.409 127.207 167.423 127.101 167.427L127.097 167.409ZM113.297 18.746C113.687 18.587 113.634 18.307 113.558 18.1087C113.521 18.0085 113.377 17.9126 113.184 17.853C113.194 18.2248 113.211 18.4476 113.297 18.7478V18.746ZM54.6273 55.9073C54.3867 55.057 53.8684 54.7318 53.4226 54.3429C53.6488 55.0806 53.9056 55.8088 54.6273 55.9073ZM49.4066 61.1023C49.273 59.9458 48.928 59.0565 48.2536 58.217C48.5361 59.2475 48.7693 60.303 49.4066 61.1023ZM56.2282 74.5082C56.0129 74.234 55.9046 73.9461 55.7427 74.3063C55.9824 74.478 55.903 74.6775 56.0302 74.7043C56.1575 74.7311 56.3471 74.6598 56.2282 74.5082ZM70.318 73.1229C70.094 72.8686 70.1081 72.7299 69.9377 72.63C69.8625 72.5853 69.7404 72.496 69.7582 72.7224C69.7779 72.9636 69.7477 73.2394 69.9168 73.2851C70.0529 73.322 70.4281 73.2494 70.3183 73.1248L70.318 73.1229ZM58.3715 79.143C58.6678 78.9381 58.5862 78.2736 58.44 77.968L57.5835 76.1789C57.3492 76.3702 57.2931 76.6343 57.2624 76.8914C57.2343 77.1256 57.6654 77.2689 57.7322 77.5547C57.8547 78.0845 57.706 78.9567 58.3697 79.1432L58.3715 79.143ZM73.2126 75.7507C73.497 75.3223 72.9357 75.0269 72.7702 75.2282C72.7106 75.3334 72.9386 75.6771 73.2126 75.7507ZM71.1236 77.3034C71.051 77.3953 71.1227 77.7779 71.2337 77.7805C71.3278 77.7834 71.3977 77.5682 71.5938 77.5467C71.7694 77.5261 71.5345 77.3481 71.4563 77.2944C71.3781 77.2407 71.2353 77.1653 71.1236 77.3034ZM111.509 74.704C111.544 74.4238 111.664 74.3166 111.589 74.2175C111.514 74.1183 111.398 74.1014 111.298 74.1592C111.188 74.2221 111.21 74.3618 111.263 74.5425C111.23 74.8542 111.404 75.0136 111.509 74.704ZM110.98 78.9679C110.975 78.5485 110.78 78.3562 110.686 77.9651C110.573 78.2534 110.451 78.7921 110.98 78.9679ZM112.68 79.6118C112.918 79.5662 112.729 79.3542 112.88 79.213C113.017 79.0847 112.899 79.0231 112.636 78.8637C112.523 79.0733 112.605 79.2915 112.68 79.6118ZM112.816 81.6923C113.27 81.4259 113.089 81.1267 112.908 80.8743C112.874 81.1337 112.755 81.4395 112.816 81.6923ZM119.07 96.695C119.267 96.738 119.866 96.527 119.807 96.316L116.518 84.5163C116.336 87.0107 116.982 89.2188 117.228 91.5438C117.068 90.0327 118.066 94.0029 117.94 93.8465C118.981 95.155 117.977 96.467 119.07 96.695ZM113.189 86.1103C113.374 85.9909 113.237 85.8135 113.245 85.6287C113.253 85.4271 113.168 85.2768 112.832 85.4175C112.84 85.7014 113.068 85.7996 113.189 86.1122V86.1103ZM113.085 88.1748C113.187 87.6705 113.177 87.4168 112.957 87.2443C112.882 87.6365 112.92 87.9297 113.085 88.1748ZM120.017 88.78C119.95 88.228 119.932 87.7578 119.659 87.2811C119.41 87.7781 119.168 88.7447 119.701 88.86C119.788 88.8788 119.826 88.9301 120.017 88.7818V88.78ZM120.561 90.8362C120.512 90.1656 120.282 89.614 119.975 89.1397C119.853 89.9615 119.805 90.4739 120.171 90.8731C120.245 90.9535 120.575 91.0536 120.559 90.8364L120.561 90.8362ZM115.403 91.139C115.179 90.8847 115.193 90.7461 115.023 90.6461C114.948 90.6014 114.826 90.5121 114.844 90.7385C114.863 90.9797 114.833 91.2555 115.002 91.3012C115.138 91.3381 115.513 91.2655 115.404 91.1409L115.403 91.139ZM114.822 93.5798C114.666 92.7694 114.755 92.0529 114.442 91.362C114.582 92.3658 114.146 93.6142 114.822 93.5798ZM120.79 92.1397C120.967 91.7982 120.697 91.6492 120.631 91.5265C120.514 91.3089 120.207 91.2697 120.197 91.526C120.188 91.7596 120.226 91.9535 120.318 92.1423C120.358 92.2252 120.417 92.2552 120.79 92.1415V92.1397ZM116.626 99.321C116.382 96.707 115.853 94.4635 115.301 92.1683C115.149 94.7321 115.726 97.136 116.626 99.321ZM121.48 93.0147C120.994 92.7359 121.268 92.397 120.818 92.2129C120.382 92.569 120.477 93.1961 120.785 93.6609C121.08 93.276 121.201 93.1049 121.48 93.0128V93.0147ZM114.421 94.9118C114.327 94.294 114.418 93.9655 114.174 93.648L114.049 94.671C114.037 94.77 114.305 94.9812 114.419 94.9102L114.421 94.9118ZM121.26 95.092C121.42 95.126 121.57 94.9249 121.544 94.8682C121.518 94.8116 121.349 94.7264 121.342 94.5379C121.327 94.1443 120.887 94.1484 120.942 94.5613C121.214 94.6819 121.142 95.066 121.26 95.092ZM114.36 96.635C114.462 96.131 114.452 95.877 114.232 95.705C114.157 96.097 114.195 96.39 114.36 96.635ZM113.889 98.653C114.351 98.086 114.018 97.566 113.863 97.063C113.895 97.589 113.704 98.105 113.889 98.653ZM116.028 102.452C114.368 102.191 116.987 100.644 115.544 101.075L114.266 101.456C114.196 102.47 114.162 103.431 114.611 104.344C115.109 103.577 115.471 103.032 116.028 102.454V102.452ZM143.144 98.658C143.346 98.409 143.478 98.159 143.32 97.908C143.173 97.674 142.939 97.602 142.642 97.672C142.383 97.732 142.324 97.989 142.242 98.294C142.15 98.63 142.298 98.877 142.501 98.969C142.808 99.11 142.969 98.872 143.144 98.658ZM132.429 110.992C131.053 110.533 129.365 111.627 127.92 111.974C127.867 112.118 127.903 112.368 127.992 112.492C128.109 112.539 133.765 111.546 132.429 110.992ZM80.7032 130.383C84.1396 132.06 85.0864 133.487 88.844 134.148C89.975 134.347 91.007 135.07 92.196 135.123C95.087 135.256 98.359 134.965 100.925 133.519L104.038 131.765C105.455 130.967 106.575 129.782 107.824 128.791C106.869 126.872 104.751 125.253 103.392 123.279C100.398 118.924 99.084 118.481 94.048 116.721C93.613 118.067 93.61 119.485 93.39 120.914C93.23 121.949 92.837 122.933 92.568 123.929C92.25 125.103 91.424 125.904 90.644 126.769C89.782 127.726 88.83 128.576 87.453 128.764C83.8685 129.251 84.1305 129.318 80.5124 128.111C80.394 128.518 80.3284 128.751 80.0515 128.772C79.6316 128.803 78.6516 128.286 78.711 127.844C79.359 127.777 79.7947 128.306 80.5028 128.123C78.6174 127.13 77.0868 125.876 76.2703 123.813C76.0348 124.462 75.4375 125.39 75.8095 126.066C76.5832 127.474 79.0719 129.586 80.7011 130.381L80.7032 130.383ZM106.496 117.891C106.31 117.303 105.944 117.092 105.454 117.093C105.771 117.455 106.075 117.707 106.496 117.891ZM155.088 111.375C155.21 111.68 155.55 111.496 155.685 111.389C155.819 111.281 155.94 111.084 155.869 110.898C155.804 110.73 155.603 110.651 155.364 110.689C155.555 111.036 155.242 111.211 155.086 111.376L155.088 111.375ZM156.359 111.341C156.222 111.541 156.428 111.64 156.547 111.75C156.66 111.852 156.745 111.802 156.735 111.709C156.714 111.513 156.725 111.409 156.689 111.35C156.641 111.271 156.456 111.201 156.359 111.341ZM67.3126 125.27C67.3307 125.163 67.2644 124.997 67.1805 125.015C67.0582 125.042 66.8774 124.992 66.764 125.118C66.6245 125.272 66.5795 125.419 66.5728 125.557C66.5677 125.677 66.7018 125.742 66.8085 125.712C66.9549 125.669 67.2925 125.391 67.3124 125.268L67.3126 125.27ZM41.7477 129.133C41.4764 129.095 41.3196 128.648 40.879 128.767C40.6941 128.817 41.0032 129.193 41.1277 129.271C41.3194 129.391 41.5294 129.521 41.7496 129.133H41.7477ZM141.881 133.987C142.31 133.799 142.683 133.368 143.213 133.248C144.885 132.871 146.173 131.843 147.61 131.038C148.178 130.72 148.3 130.365 148.83 129.98L153.49 126.598C153.053 125.46 152.18 124.493 151.312 123.579C150.631 122.864 150.206 122.018 149.624 121.231C149.306 120.799 148.587 120.824 148.299 120.389C147.961 119.875 147.259 119.579 147.015 119.146C146.702 118.588 146.583 118.384 146.018 118.083C145.331 117.72 144.812 116.98 143.914 116.807L140.747 116.192C139.512 115.953 138.192 116.337 136.909 116.408L137.051 121.44C137.085 122.67 136.738 123.854 136.384 125.053C135.273 128.812 132.483 129.206 129.024 129.582C127.91 129.702 126.95 129.136 125.956 128.889C122.947 128.145 123.153 127.41 120.841 125.708C120.059 127.188 119.995 128.79 120.452 130.361C120.542 130.67 120.474 131.348 120.761 131.543C125.312 134.654 121.956 132.858 127.194 134.755C130.233 135.855 133.349 135.88 136.5 135.205C138.34 134.811 140.165 134.738 141.881 133.987ZM68.0858 127.987L69.5445 127.398C69.6006 126.915 69.1624 126.804 68.7065 126.949C68.4524 127.03 68.2322 127.273 68.1804 127.6C68.168 127.678 67.8013 127.613 67.7308 127.648C67.632 127.697 67.7238 127.827 67.7929 127.854C67.8424 127.874 67.9913 128.025 68.0839 127.987H68.0858ZM112.198 121.98C112.043 121.694 111.744 122.016 111.704 122.152C111.506 122.806 111.723 122.903 112.263 123.741C112.4 123.12 112.503 122.544 112.198 121.98ZM75.4557 127.619C75.2765 127.408 75.1075 127.377 74.9509 127.399C74.9393 127.79 74.7744 127.952 74.5976 128.211C75.0171 128.337 75.3219 128.067 75.4557 127.619ZM66.5847 131.75C66.6243 131.518 65.9095 131.371 65.7513 131.658C65.7237 131.896 66.4313 132.045 66.5847 131.75ZM73.9168 133.087C74.367 132.212 70.2496 132.3 69.6932 132.014C69.4586 131.984 68.9225 132.25 68.681 132.618L73.9168 133.087ZM112.89 129.91C113.06 130.223 113.449 130.04 113.557 129.882C114.144 129.008 113.357 129.407 113.89 127.41C113.957 127.159 113.387 126.722 113.115 126.77C113.132 127.603 112.696 128.062 112.111 128.534C112.239 128.867 112.333 128.856 112.429 128.831C112.578 128.791 112.831 128.671 112.915 128.731C113.067 129.069 112.7 129.552 112.892 129.909L112.89 129.91ZM30.3438 139.156C29.9322 138.8 29.5672 139.01 29.3221 139.162C29.7351 139.178 30.0641 139.52 30.3438 139.156ZM160.088 123.186C159.74 122.597 158.372 122.911 158.195 123.348C158.072 123.964 160.429 124.822 160.949 124.11C161.133 123.861 161.339 123.319 161.011 123.054C160.682 122.789 160.339 123.082 160.086 123.186H160.088ZM34.8342 139.781C34.3358 139.26 33.9536 139.862 33.5399 139.941C34.0053 139.87 34.4813 140.246 34.8342 139.781ZM72.9491 136.942L73.8297 136.861C73.5904 136.474 73.2475 136.257 72.9527 135.905C72.7819 135.7 73.1113 135.242 73.1727 134.975C72.3377 134.608 71.5054 134.977 70.8479 135.583L72.2779 135.909C72.2627 136.725 71.6311 136.919 70.9319 137.273C71.5129 137.59 72.1387 137.292 72.7432 137.529C73.316 137.754 73.752 138.242 74.4549 138.311C74.7056 138.335 74.6869 137.97 74.5975 137.829C74.3527 137.443 72.9805 138.033 72.9472 136.943L72.9491 136.942ZM75.9345 134.819C75.9612 134.997 76.0914 135.265 76.2225 135.294C76.45 135.341 76.4404 135.149 76.4606 134.986C76.4752 134.866 76.7122 134.681 76.4804 134.702C76.3339 134.715 75.915 134.696 75.9345 134.819ZM119.494 130.895C119.808 130.794 119.673 129.96 119.537 129.638C119.155 129.609 119.092 129.954 119.001 130.152C118.875 130.425 118.924 131.067 119.494 130.895ZM154.207 125.962C154.616 125.767 154.083 125.202 153.763 125.144C153.615 125.441 153.98 126.072 154.207 125.962ZM114.009 130.583C114.189 131.301 113.465 131.274 113.255 131.548C112.815 132.115 113.352 132.886 113.349 133.494C113.348 133.878 113.326 134.104 113.73 134.125C114.335 134.158 115.233 130.359 114.009 130.585V130.583ZM50.639 139.377C50.047 139.295 49.6763 139.345 49.2905 139.423C49.4349 139.743 49.4383 139.988 49.546 140.096C49.7395 140.289 50.7995 140.1 50.8044 139.963C50.8074 139.841 50.8473 139.406 50.6392 139.379L50.639 139.377ZM51.43 140.014C51.2942 140.213 51.4984 140.312 51.6176 140.423C51.7301 140.524 51.8153 140.472 51.8058 140.384C51.7838 140.184 51.7953 140.083 51.7593 140.022C51.7184 139.952 51.5266 139.876 51.4302 140.016L51.43 140.014ZM56.1824 140.809C55.6398 140.513 55.0639 140.484 54.416 140.376C54.0422 140.314 53.7925 139.699 53.393 139.758C53.0431 139.808 53.0104 140.941 53.3358 141.079C53.7745 141.267 54.4131 141.156 54.8836 141.46C55.253 140.962 55.6446 140.828 56.1824 140.809ZM161.146 126.338C160.744 125.91 160.192 125.803 159.794 126.246C160.287 126.396 160.693 126.522 161.146 126.338ZM50.8278 140.262C50.5783 140.247 50.3997 140.274 50.1106 140.36C50.1631 140.593 50.3697 140.405 50.511 140.556C50.6308 140.685 50.7328 140.617 50.8278 140.262ZM47.9462 141.106C47.1588 141.022 46.5436 140.964 46.3014 141.562L47.9462 141.106ZM89.175 136.374C88.729 135.88 88.055 136.439 88.078 136.548C88.547 136.522 88.847 136.532 89.175 136.374ZM123.358 133.694C122.588 133.395 121.886 133.188 121.008 133.085C121.49 133.99 122.516 134.305 123.358 133.694ZM157.079 131.638C156.53 131.54 156.046 131.645 155.604 131.4C156.027 130.869 156.528 131.114 157.023 130.663C155.817 130.531 155.362 129.65 155.031 129.974C154.979 130.024 155.194 130.198 155.117 130.31C154.956 130.544 154.713 130.688 154.724 130.904C154.735 131.12 154.973 131.337 154.937 131.583C154.88 131.982 154.252 131.842 154.051 132.128C153.922 132.31 154.165 132.597 154.308 132.667C154.45 132.737 154.718 132.384 154.851 132.404C157.217 132.738 157.718 131.753 157.077 131.64L157.079 131.638ZM126.913 136.816L125.564 136.682C125.457 136.671 124.054 135.238 123.24 135.749C122.146 136.437 124.985 136.862 125.637 137.252L127.344 138.276C127.533 138.388 127.706 138.083 127.688 137.958C127.696 138.022 126.93 136.82 126.913 136.818V136.816ZM203.687 126.544C203.011 126.321 202.474 125.963 201.678 125.904C202.178 126.494 202.905 126.68 203.687 126.544ZM134.085 136.414C134.142 136.142 133.839 135.873 133.672 135.959C133.47 136.062 132.999 135.891 132.924 136.169C132.857 136.42 133.252 136.658 133.446 136.663C133.605 136.667 134.045 136.61 134.085 136.412V136.414ZM148.639 135.955C148.482 136.189 148.737 136.323 148.898 136.265C148.965 136.241 149.123 136.316 149.164 136.129C149.157 136.16 148.82 135.686 148.639 135.955ZM72.677 147.523C73.3176 147.18 73.4782 146.882 73.5467 146.482C72.9987 146.771 72.7976 147.163 72.677 147.523ZM143.666 137.809C143.406 137.636 142.903 137.71 142.58 137.926C142.692 138.228 142.993 138.186 143.258 138.225C143.446 138.254 143.65 138.079 143.666 137.809ZM152.133 137.523C152.245 137.042 151.925 136.828 151.778 136.866C151.629 137.166 151.849 137.487 152.133 137.523ZM191.226 133.147C191.587 132.612 191.344 132.444 191.132 132.387C190.81 132.299 190.573 132.165 190.298 132.423C190.62 132.674 190.791 132.99 191.226 133.147ZM190.067 133.122C190.109 132.991 190.057 132.868 189.834 132.867C189.611 132.866 189.57 132.635 189.456 132.818C189.361 132.971 189.232 133.113 189.418 133.104C189.744 133.089 189.958 133.468 190.069 133.122H190.067ZM192.831 132.919C192.29 132.724 191.802 132.419 191.726 132.763C191.615 133.264 192.05 133.175 192.231 133.159C192.496 133.134 192.856 133.23 192.831 132.921V132.919ZM193.308 133.214C193.155 133.471 193.427 133.59 193.582 133.522C193.653 133.49 193.803 133.549 193.849 133.386C193.891 133.246 193.787 133.107 193.711 133.126C193.595 133.154 193.369 133.11 193.308 133.214ZM169.085 137.682C169.418 137.821 169.753 137.857 169.872 137.416C169.59 137.351 169.408 137.581 169.085 137.682ZM173.308 137.16C172.453 137.31 169.799 137.053 170.37 137.54C170.495 137.647 173.241 137.313 173.308 137.16ZM195.481 135.428C195.15 135.29 194.971 135.398 194.672 135.47C194.787 135.63 194.911 135.752 195.019 135.759C195.161 135.769 195.492 135.82 195.479 135.428H195.481ZM67.9961 151.97C67.5096 151.965 67.3828 152.263 67.3206 152.509C67.2758 152.685 67.2591 153.197 67.4812 153.16C67.9966 153.069 68.231 152.426 67.9961 151.97ZM154.958 140.97C154.998 141.208 155.133 141.236 155.202 141.261C155.29 141.293 155.448 141.222 155.457 141.129C155.471 140.979 155.398 140.863 155.325 140.872C155.251 140.882 154.94 140.86 154.958 140.97ZM156.083 142.597C156.14 142.256 156.108 141.915 155.856 141.522C155.611 141.711 155.579 141.964 155.665 142.195C155.717 142.335 155.837 142.482 156.085 142.597H156.083ZM154.896 142.135C154.771 142.524 154.918 142.657 155.162 142.584C155.283 142.548 155.266 142.299 155.149 142.222C155.09 142.183 154.943 141.988 154.896 142.135ZM219.892 136.029C219.377 135.57 219.152 135.361 218.723 135.058C218.611 135.432 218.785 135.819 219.082 136.017C219.285 136.152 219.706 136.227 219.89 136.029H219.892ZM156.011 144.142C156.381 143.995 156.17 143.364 155.939 143.405C155.605 143.463 155.784 144.231 156.011 144.142ZM154.634 144.182C154.688 144.426 154.766 144.581 154.869 144.669C154.915 144.71 154.953 144.533 155.039 144.471C155.195 144.357 155.023 144.303 154.915 144.198C154.87 144.153 154.607 144.063 154.634 144.182ZM106.938 156.43C107.298 156.327 107.497 155.885 107.369 155.782C107.169 155.624 106.987 155.904 106.895 155.995C106.782 156.107 106.654 156.509 106.938 156.43ZM104.415 159.769C104.99 159.995 105.308 159.68 105.664 159.434C107.285 158.312 108.829 157.233 110.775 156.535C110.741 156.098 110.342 155.852 110.099 155.712C109.761 155.519 109.337 155.666 109.039 155.903L106.8 157.687C106.204 158.161 105.761 158.774 104.911 158.801C104.809 159.171 104.752 159.592 104.415 159.769ZM91.691 160.693C92.038 160.647 91.953 160.305 91.786 160.291C91.2 160.239 91.232 160.764 91.193 160.654C91.217 160.724 91.43 160.729 91.69 160.694L91.691 160.693ZM109.046 158.819C109.032 158.707 108.911 158.658 108.809 158.653C108.52 158.636 108.27 159.204 108.33 159.331C108.353 159.381 109.099 159.274 109.044 158.819H109.046ZM107.751 159.818C107.657 159.453 106.444 159.735 106.669 160.293C106.782 160.572 107.873 160.288 107.751 159.818ZM103.519 160.578C103.788 160.31 103.485 160.254 103.231 160.406C103.099 160.519 102.985 160.614 102.96 160.736C102.93 160.871 103.069 160.958 103.203 160.881C103.266 160.844 103.331 160.749 103.519 160.578ZM121.714 159.199C120.637 158.891 120.166 158.234 119.194 158.218C119.671 159.27 120.843 159.62 121.714 159.199ZM61.0204 166.25C60.8956 165.994 60.4494 166.156 60.3832 166.429C60.3529 166.559 60.1683 166.684 60.2539 166.956C60.5131 166.784 60.969 166.594 61.0204 166.25ZM99.292 163.479C99.978 163.208 100.23 162.781 100.249 162.106C99.623 162.256 98.923 162.741 99.292 163.479ZM95.124 163.535C95.448 163.195 95.163 162.849 94.859 163.179C94.606 163.452 94.725 163.718 95.124 163.535ZM127.349 162.939C127.532 162.435 127.475 162.116 127.186 161.831C126.721 162.118 126.916 162.662 127.349 162.939ZM124.518 163.366C124.405 162.766 123.963 162.598 123.514 162.824C123.848 162.989 124.001 163.378 124.518 163.366ZM97.745 166.851C97.305 166.598 96.928 166.582 96.533 166.676C96.466 167.03 96.492 167.325 96.663 167.642C97.133 167.593 97.594 167.37 97.745 166.852V166.851ZM96.062 168.372C96.31 166.825 93.429 170.111 93.711 169.969C94.643 169.621 95.308 169.024 96.062 168.372ZM129.619 164.295C129.635 164.464 129.79 164.734 129.915 164.769C130.049 164.806 130.114 164.597 130.149 164.459C130.183 164.322 130.376 164.155 130.167 164.176C130.011 164.192 129.608 164.163 129.619 164.297V164.295ZM130.897 164.997C130.98 164.694 130.688 164.439 130.576 164.311C130.352 164.58 130.267 164.793 130.331 164.955C130.389 165.105 130.836 165.222 130.897 164.997ZM131.389 165.031C131.26 165.417 131.412 165.561 131.653 165.477C131.755 165.442 131.812 165.23 131.63 165.111C131.573 165.073 131.436 164.886 131.389 165.031ZM78.0169 174.666C79.1002 174.322 79.7114 173.619 80.5165 173.126C81.2088 172.703 82.13 172.631 82.496 171.669C81.6617 172.009 80.8025 172.388 80.0901 172.931C79.5179 173.368 79.1201 173.879 78.3382 174.056C78.0739 174.116 77.5871 174.503 78.0185 174.664L78.0169 174.666ZM92.851 170.785C92.345 170.437 92.323 170.669 92.185 170.692C91.875 170.745 91.829 171.145 92.122 171.092C92.415 171.04 92.602 170.796 92.851 170.785ZM132.992 166.205C133.154 166.034 132.944 165.818 132.792 165.715C132.693 165.649 132.494 165.558 132.364 165.774C132.225 166.004 132.394 166.166 132.507 166.183C132.62 166.2 132.838 166.367 132.992 166.205ZM78.1328 176.486C78.0393 176.211 77.4838 176.137 77.3362 176.229C77.1713 176.332 77.3197 176.758 77.2232 177.072C77.5258 177.033 78.0204 176.78 78.1346 176.486H78.1328ZM72.9981 180.234C74.1205 179.524 75.3103 178.958 76.1095 177.821C76.1922 177.705 75.7757 177.53 75.6778 177.644C75.0287 178.402 74.5145 178.211 73.5529 178.961C73.5486 179.175 73.7595 179.313 73.5325 179.547C73.3375 179.459 73.3077 179.272 73.1735 179.235C73.0839 179.209 72.8773 179.25 72.7723 179.382C71.8262 180.574 70.512 180.507 70.8377 181.085C71.2048 181.738 72.8332 180.338 72.9962 180.234H72.9981ZM67.3776 183.019C67.1511 182.847 66.9835 182.828 66.8785 182.697C67.1349 182.502 67.2726 182.333 67.1745 182.197C67.0354 182.005 66.9165 181.781 66.7738 181.78C66.0723 181.78 66.2016 183.02 65.8923 183.197C65.2791 183.549 64.5454 183.795 64.5154 184.671C65.4074 183.934 66.5564 184 67.3774 183.017L67.3776 183.019ZM62.045 186.511C62.391 186.721 62.5373 186.474 62.7334 186.379C62.9645 186.265 63.0369 186.113 62.8353 185.727C62.6291 186.049 62.3357 186.145 62.045 186.511ZM62.383 187.695C62.7086 186.682 60.7534 188.299 60.815 188.412C61.4335 188.423 61.8047 188.042 62.383 187.695ZM43.7467 200.134C44.801 199.785 45.3982 199.221 46.2259 198.844C46.0027 198.436 45.6891 198.36 45.4397 198.317C45.1903 198.274 45.1121 198.614 44.988 198.831C44.6613 199.398 43.9101 199.464 43.7467 200.134ZM163.279 188.695C163.4 187.945 162.879 187.729 162.499 187.384C161.751 186.7 161.211 185.873 160.284 185.417C160.3 186.212 161.028 186.42 161.429 186.852C162.026 187.495 162.294 188.37 163.28 188.697L163.279 188.695ZM39.4732 205.138C38.652 205.201 38.2163 205.678 37.7493 206.175C38.4701 206.062 38.9071 205.477 39.4732 205.138ZM165.793 190.855C165.739 189.78 164.83 189.505 164.117 189.722C164.502 190.445 165.077 190.887 165.793 190.855ZM166.333 191.426C166.379 191.661 166.482 191.838 166.567 191.912C166.613 191.953 166.652 191.777 166.738 191.716C166.894 191.602 166.724 191.547 166.615 191.443C166.57 191.398 166.31 191.306 166.334 191.428L166.333 191.426ZM176.197 205.384C176.185 205.007 175.904 204.548 175.441 204.655C175.662 204.938 175.677 205.25 176.197 205.384Z" fill="white"/>
<path d="M45.2032 49.0963C44.691 48.9934 44.1277 48.2014 43.7981 47.8557L42.1778 46.1666C42.3337 46.3284 40.2013 42.1141 40.3877 40.6746C40.5121 39.7156 40.0491 38.7551 40.3586 37.8211C40.8044 37.8594 41.1488 38.2182 41.5731 38.4543C41.7377 38.0863 41.4398 37.8265 41.5284 37.3914C43.8991 39.3009 43.1239 38.5381 44.4185 40.7734C44.6045 41.0963 45.1343 41.0151 45.3363 41.3172C46.4101 42.9285 47.7285 44.2252 49.176 45.5334C45.6557 46.1808 48.2202 47.0586 45.2047 49.0942L45.2032 49.0963ZM47.1582 44.5309C46.6979 44.1026 46.6122 43.6975 46.1314 43.5324C46.3482 44.037 46.6029 44.3848 46.7308 44.869C46.9531 44.891 47.2121 44.7752 47.16 44.5307L47.1582 44.5309Z" fill="white"/>
<mask id="mask1_1071_3304" style="mask-type:luminance" maskUnits="userSpaceOnUse" x="1" y="6" width="222" height="205">
<path d="M127.096 167.409C126.152 167.435 125.213 166.693 125.085 165.746C122.537 164.236 120.028 162.652 117.476 161.154C117.182 160.981 110.876 158.068 111.046 159.391C104.743 163.011 98.8185 167.354 93.7385 172.478C93.3425 172.88 92.8485 173.168 92.3595 173.452C89.4205 175.165 86.3682 176.766 83.5214 178.627C82.7082 179.159 75.6209 183.36 75.6886 183.887C73.0513 185.552 69.2314 186.628 67.1281 188.973C64.0364 190.14 61.0431 191.501 58.526 193.664C58.0799 194.045 55.9955 195.751 56.1089 195.641C55.5831 196.147 55.2083 196.691 54.5643 197.109C51.3162 199.218 48.5686 200.302 45.5011 202.532C45.0361 202.869 44.5588 203.067 44.0222 203.314C43.1353 203.726 42.5329 204.585 41.6648 205.07C39.8322 206.093 38.0989 207.056 36.3354 208.281C35.6722 204.376 37.2738 198.461 39.9155 195.503C41.4618 193.77 43.155 192.626 44.4776 190.598C45.772 188.614 46.7736 186.452 48.0619 184.464C50.1909 181.18 52.396 177.932 54.4517 174.603L58.425 168.167C58.8863 167.422 59.173 166.515 59.4316 165.725C59.5163 165.464 59.2372 165.146 59.4324 164.796L61.121 161.763C62.0857 160.031 61.2233 159.348 62.6549 159.453C63.8605 156.208 65.4923 154.383 67.3381 151.477C67.5658 151.118 67.9081 150.92 67.9421 150.397C67.9559 150.198 68.3047 150.226 68.3955 150.32C68.528 150.46 68.3173 150.675 68.3896 151.018C69.3178 150.301 68.2479 149.857 68.8113 148.943L71.0132 145.379C67.2342 144.145 63.419 144.118 59.6448 143.257C59.4824 143.22 59.4268 143.371 59.4781 143.507C59.0213 144.04 58.5316 143.222 58.1893 143.185C52.5325 142.579 46.9188 142.133 41.2574 141.563C42.078 140.417 43.7602 140.443 45.1611 140.585C43.6565 140.058 41.9817 140.032 40.4616 140.508C40.8012 140.641 41.1409 140.774 41.4806 140.906C40.4707 141.09 39.4149 141.02 38.4399 140.703C38.7512 140.876 39.0603 141.049 39.3715 141.222C32.9011 140.897 26.5448 138.497 20.1301 138.517L9.40467 138.553C8.71097 138.556 8.11227 138.13 7.40047 138.168C7.05577 138.186 7.41897 137.888 7.37117 137.136C7.31747 136.281 6.77227 137.264 5.24037 137.328C5.58447 137.612 5.99487 137.564 6.40647 137.804C6.63867 137.889 6.54457 137.974 6.31937 138.031C4.80807 138.518 3.32107 138.551 1.86887 138.579C1.83247 137.318 2.38637 136.227 3.56447 136.096L4.79537 137.179C0.60747 133.493 18.8186 127.729 21.2139 126.954C25.5184 125.563 29.8245 124.169 34.129 122.778C35.0963 122.466 36.067 122.152 37.0729 121.995C38.0202 120.784 39.664 120.16 41.1763 120.44C41.6801 120.711 42.3136 120.941 42.7979 120.637C43.2822 120.332 43.069 119.331 42.5182 119.482C44.0439 119.02 45.5712 118.555 47.0969 118.093C52.2728 115.877 57.447 113.664 62.6229 111.448C64.4028 110.687 69.1696 109.637 70.3269 108.148C71.4842 106.659 68.886 103.899 68.2195 102.114C67.5529 100.328 66.963 98.672 66.1776 96.954L64.0009 92.1903L62.106 88.671C61.7509 88.0098 61.182 87.5824 60.7707 87.024C60.0802 86.0891 60.2258 84.8424 59.9778 83.7737C59.8269 83.1256 58.0121 81.484 58.5071 80.3442C58.8345 79.8409 57.9851 80.4863 57.4098 79.0022C54.9743 72.7064 50.4808 66.9057 49.2577 63.3881L47.665 58.8045C46.995 56.8751 47.6384 54.7151 47.0966 52.9811L46.4583 50.9333C46.2385 50.2304 46.928 48.925 47.609 48.3856C48.9932 47.289 50.7982 47.7451 52.1041 48.6815C53.131 49.4176 53.7651 50.3523 54.6159 51.2647L61.1554 58.2724C63.2678 60.5357 65.4759 62.5374 67.6116 64.7489L69.4727 66.6771C69.9185 67.1391 70.5026 67.4952 71.0635 67.845L76.6634 71.3512L78.0184 72.5532C79.2822 73.6732 80.6573 74.6514 81.8194 75.8406C82.653 76.6934 82.6226 76.238 84.2217 77.2661C85.9864 78.4005 87.3795 79.8807 89.0175 81.1737C90.3835 82.2507 91.6825 83.2723 92.9635 84.4501C93.6125 85.0472 94.2295 85.5885 95.0925 85.9669L95.8355 82.9017L98.7985 65.7147C99.2225 63.2528 100.068 61.0162 99.8845 58.4768C100.274 58.2448 100.505 58.1102 100.751 57.8254C101.594 54.3273 102.112 50.8936 102.752 47.3541C103.294 44.3633 104.089 41.5726 104.771 38.6128L106.943 29.1806C107.852 25.2258 108.662 21.4264 109.323 17.4155C109.544 16.0691 110.79 8.29151 111.294 7.89851C111.396 7.81791 111.507 7.96481 111.535 8.18061C111.528 8.55271 111.703 8.89021 111.821 8.40821C112.017 7.62191 112.395 6.93021 113.21 6.70361C113.564 8.29291 113.84 11.081 113.995 12.889L114.402 17.6326C114.715 21.2747 115.436 24.7405 114.862 28.6108C114.611 30.3042 115.26 31.9981 115.548 33.6841C115.891 35.6799 116.315 37.5621 116.534 39.5625C116.796 41.9493 117.147 44.2009 117.781 46.5361C117.931 47.0831 117.609 47.7451 118.255 48.1794C118.179 48.6541 118.314 48.4774 118.531 48.1383C118.909 50.4915 118.987 52.7182 119.508 55.0397C119.538 55.1708 119.767 55.2595 119.828 55.3924C119.882 55.511 119.692 55.663 119.606 55.8427C120.135 56.4516 120.178 57.3891 120.407 58.2202C120.474 58.4666 121.009 58.4259 121.035 58.5988C121.069 58.8363 121.102 59.3215 120.721 59.2767C120.34 59.2319 120.769 58.5412 120.29 58.3646C120.538 61.3006 121.81 64.0264 122.559 66.956C123.019 68.7493 123.188 70.4581 124.13 72.1275C124.053 71.9912 124.105 73.2762 124.583 73.5186C124.848 73.6532 124.788 73.421 124.752 73.1969C123.97 68.5052 121.829 65.0532 121.39 60.3099C121.337 60.0862 121.434 59.8206 121.566 60.0323C122.894 63.4145 122.411 64.3128 124.117 67.7945C124.608 68.7945 124.512 69.8849 124.844 70.9502C126.121 75.0476 127.304 79.1027 128.8 83.097C129.026 83.7017 129.357 83.9853 129.627 84.8431L130.589 87.9049C132.959 87.5796 133.982 85.0727 135.006 84.793C135.282 84.7182 137.678 82.1303 137.561 82.2241L154.616 68.5131C155.93 67.4573 157.293 66.5359 158.749 65.7751C159.772 65.2405 161.032 65.1217 161.4 63.7358C161.753 63.6529 162.12 63.602 162.401 63.3916L167.989 59.2217C169.006 58.4629 169.859 57.4515 171.013 56.9263C171.681 56.6211 172.112 56.2958 172.671 55.8583C173.905 54.8935 175.472 54.3303 176.69 53.2982L178.336 51.9017C178.721 51.5747 178.99 51.0958 179.42 50.7481C180.467 49.9011 181.434 49.2143 182.762 48.8205C183.429 48.6223 183.866 48.2831 184.554 48.2846C184.459 48.5012 183.997 49.1249 184.088 49.445C184.623 51.3149 183.759 51.8572 182.799 53.2048C181.653 54.8145 180.839 56.5221 179.817 58.2771C177.001 63.1181 174.189 67.9623 171.374 72.803C168.654 77.4836 165.933 82.1642 163.401 86.95C161.12 91.259 159.492 95.99 157.051 100.146C156.816 100.258 156.838 99.249 156.663 99.592L156.472 99.961C155.87 101.13 157.412 100.135 156.006 102.464C154.761 104.527 155.139 106.187 155.088 108.516C156.952 109.55 158.963 109.826 160.825 110.664L163.146 111.708C164.838 112.469 166.857 112.338 168.581 113.117C170.862 114.149 173.033 115.029 175.499 115.55C176.683 115.801 177.932 116.044 179.005 116.555C179.458 116.77 179.638 117.043 180.23 117.023C181.472 116.984 182.573 117.656 183.747 118.013L190.576 120.094C192.327 120.628 192.789 122.072 194.336 122.597C196.708 123.402 198.992 124.189 201.3 125.143C202.768 125.749 204.154 126.375 205.682 126.818C206.393 127.025 206.986 127.374 207.464 127.969C207.603 127.782 207.686 127.682 207.902 127.792L213.514 130.648C216.262 132.046 217.638 132.708 219.69 134.913C220.434 135.712 222.179 136.575 222.394 136.872C222.9 137.572 216.781 137.571 216.14 137.565L207.541 137.477C205.04 137.452 202.641 137.279 200.149 137.451C197.169 137.658 194.031 136.893 191.829 136.88C188.274 136.858 184.833 137.394 181.29 137.602C180.465 137.65 179.697 137.97 178.88 138.06C176.361 138.339 173.968 138.198 171.445 138.378L156.536 139.44C156.558 141.732 156.8 143.843 157.203 146.092C157.892 149.918 158.584 153.594 159.48 157.373C160.285 160.762 161.396 166.12 164.102 168.577C164.04 169.27 164.4 169.921 164.747 170.521C165.608 172.01 166.468 173.5 167.329 174.989C167.417 174.786 167.505 174.582 167.595 174.379C168.144 174.732 168.434 175.443 168.289 176.081C167.139 175.6 169.806 181.977 169.891 182.506C170.043 183.473 170.343 184.053 170.782 184.853C171.965 187.011 173.135 189.178 174.315 191.338C174.09 190.697 173.996 190.01 174.038 189.332C175.008 190.615 176.031 192.171 175.569 193.712C175.502 193.936 175.458 194.266 175.683 194.323C175.773 194.143 175.862 193.963 175.953 193.78C176.328 195.326 176.499 197.184 177.24 198.602C177.706 199.495 179.132 200.386 179.1 201.468C179.108 201.193 179.504 201.08 179.737 201.226C179.97 201.373 180.068 201.656 180.15 201.92C180.492 202.997 180.831 204.074 181.172 205.152C181.441 206.002 181.707 206.875 182.131 207.666C182.597 208.531 184.323 210.111 182.383 210.521C180.716 210.874 178.691 208.761 177.782 207.629C177.995 207.598 178.211 207.567 178.424 207.535C178.519 207.03 177.974 206.631 177.47 206.531C176.965 206.431 176.417 206.483 175.97 206.231C174.928 205.639 175.255 204.013 174.603 203.008C173.731 201.667 171.305 201.695 170.934 200.14C171.128 200.156 171.321 200.173 171.515 200.189C169.732 198.986 168.528 197.153 167.007 195.667C165.321 194.018 163.602 192.396 161.732 190.953C152.663 183.951 143.101 177.555 133.657 171.004C133.43 170.847 133.115 170.689 132.901 170.863C132.687 171.036 133.125 171.432 133.172 171.16C130.772 168.991 128.017 167.217 125.051 165.928C125.839 166.414 126.63 166.901 127.418 167.386C127.312 167.409 127.207 167.423 127.1 167.427L127.096 167.409ZM113.296 18.746C113.687 18.587 113.634 18.307 113.558 18.1087C113.52 18.0085 113.377 17.9126 113.183 17.853C113.194 18.2248 113.211 18.4476 113.296 18.7478V18.746ZM54.6273 55.9073C54.3867 55.057 53.8684 54.7318 53.4226 54.3429C53.6488 55.0806 53.9056 55.8088 54.6273 55.9073ZM49.4066 61.1023C49.273 59.9458 48.928 59.0565 48.2536 58.217C48.5361 59.2475 48.7693 60.303 49.4066 61.1023ZM56.2282 74.5082C56.0129 74.234 55.9046 73.9461 55.7427 74.3063C55.9823 74.478 55.9029 74.6775 56.0302 74.7043C56.1574 74.7311 56.3471 74.6598 56.2282 74.5082ZM70.318 73.1229C70.094 72.8686 70.1081 72.7299 69.9376 72.63C69.8625 72.5853 69.7403 72.496 69.7582 72.7224C69.7779 72.9636 69.7477 73.2394 69.9168 73.2851C70.0529 73.322 70.4281 73.2494 70.3183 73.1248L70.318 73.1229ZM58.3715 79.143C58.6678 78.9381 58.5862 78.2736 58.44 77.968L57.5835 76.1789C57.3492 76.3702 57.2931 76.6343 57.2624 76.8914C57.2343 77.1256 57.6654 77.2689 57.7322 77.5547C57.8547 78.0845 57.706 78.9567 58.3697 79.1432L58.3715 79.143ZM73.2126 75.7507C73.497 75.3223 72.9357 75.0269 72.7702 75.2282C72.7106 75.3334 72.9386 75.6771 73.2126 75.7507ZM71.1236 77.3034C71.051 77.3953 71.1227 77.7779 71.2337 77.7805C71.3278 77.7834 71.3977 77.5682 71.5938 77.5467C71.7693 77.5261 71.5345 77.3481 71.4563 77.2944C71.3781 77.2407 71.2353 77.1653 71.1236 77.3034ZM111.508 74.704C111.544 74.4238 111.663 74.3166 111.588 74.2175C111.514 74.1183 111.397 74.1014 111.298 74.1592C111.188 74.2221 111.209 74.3618 111.263 74.5425C111.229 74.8542 111.404 75.0136 111.508 74.704ZM110.98 78.9679C110.975 78.5485 110.779 78.3562 110.686 77.9651C110.573 78.2534 110.451 78.7921 110.98 78.9679ZM112.679 79.6118C112.917 79.5662 112.729 79.3542 112.88 79.213C113.017 79.0847 112.898 79.0231 112.636 78.8637C112.522 79.0733 112.605 79.2915 112.679 79.6118ZM112.816 81.6923C113.269 81.4259 113.088 81.1267 112.907 80.8743C112.873 81.1337 112.755 81.4395 112.816 81.6923ZM119.07 96.695C119.266 96.738 119.866 96.527 119.807 96.316L116.518 84.5163C116.335 87.0107 116.981 89.2188 117.228 91.5438C117.067 90.0327 118.065 94.0029 117.94 93.8465C118.98 95.155 117.977 96.467 119.07 96.695ZM113.188 86.1103C113.374 85.9909 113.236 85.8135 113.245 85.6287C113.252 85.4271 113.167 85.2768 112.831 85.4175C112.839 85.7014 113.068 85.7996 113.189 86.1122L113.188 86.1103ZM113.084 88.1748C113.186 87.6705 113.176 87.4168 112.957 87.2443C112.882 87.6365 112.919 87.9297 113.084 88.1748ZM120.016 88.78C119.949 88.228 119.932 87.7578 119.659 87.2811C119.409 87.7781 119.168 88.7447 119.7 88.86C119.787 88.8788 119.825 88.9301 120.017 88.7818L120.016 88.78ZM120.56 90.8362C120.511 90.1656 120.281 89.614 119.974 89.1397C119.853 89.9615 119.804 90.4739 120.171 90.8731C120.245 90.9535 120.575 91.0536 120.558 90.8364L120.56 90.8362ZM115.403 91.139C115.179 90.8847 115.193 90.7461 115.022 90.6461C114.947 90.6014 114.825 90.5121 114.843 90.7385C114.863 90.9797 114.833 91.2555 115.002 91.3012C115.138 91.3381 115.513 91.2655 115.403 91.1409V91.139ZM114.822 93.5798C114.665 92.7694 114.755 92.0529 114.441 91.362C114.581 92.3658 114.145 93.6142 114.822 93.5798ZM120.789 92.1397C120.967 91.7982 120.696 91.6492 120.63 91.5265C120.514 91.3089 120.207 91.2697 120.197 91.526C120.187 91.7596 120.225 91.9535 120.317 92.1423C120.358 92.2252 120.416 92.2552 120.79 92.1415L120.789 92.1397ZM116.625 99.321C116.381 96.707 115.853 94.4635 115.301 92.1683C115.148 94.7321 115.725 97.136 116.625 99.321ZM121.48 93.0147C120.994 92.7359 121.267 92.397 120.818 92.2129C120.381 92.569 120.477 93.1961 120.784 93.6609C121.08 93.276 121.201 93.1049 121.479 93.0128L121.48 93.0147ZM114.421 94.9118C114.326 94.294 114.417 93.9655 114.174 93.648L114.048 94.671C114.037 94.77 114.304 94.9812 114.419 94.9102L114.421 94.9118ZM121.259 95.092C121.419 95.126 121.57 94.9249 121.543 94.8682C121.517 94.8116 121.349 94.7264 121.342 94.5379C121.327 94.1443 120.886 94.1484 120.941 94.5613C121.214 94.6819 121.141 95.066 121.259 95.092ZM114.359 96.635C114.461 96.131 114.451 95.877 114.232 95.705C114.157 96.097 114.194 96.39 114.359 96.635ZM113.889 98.653C114.35 98.086 114.017 97.566 113.862 97.063C113.894 97.589 113.704 98.105 113.889 98.653ZM116.028 102.452C114.368 102.191 116.986 100.644 115.543 101.075L114.266 101.456C114.195 102.47 114.161 103.431 114.611 104.344C115.109 103.577 115.47 103.032 116.028 102.454V102.452ZM143.143 98.658C143.346 98.409 143.477 98.159 143.319 97.908C143.173 97.674 142.938 97.602 142.642 97.672C142.383 97.732 142.324 97.989 142.241 98.294C142.149 98.63 142.297 98.877 142.501 98.969C142.808 99.11 142.968 98.872 143.143 98.658ZM132.429 110.992C131.053 110.533 129.364 111.627 127.92 111.974C127.867 112.118 127.903 112.368 127.992 112.492C128.108 112.539 133.764 111.546 132.429 110.992ZM80.7031 130.383C84.1395 132.06 85.0864 133.487 88.8445 134.148C89.9745 134.347 91.0075 135.07 92.1965 135.123C95.0875 135.256 98.3585 134.965 100.924 133.519L104.038 131.765C105.455 130.967 106.574 129.782 107.824 128.791C106.868 126.872 104.75 125.253 103.392 123.279C100.397 118.924 99.0835 118.481 94.0485 116.721C93.6135 118.067 93.6095 119.485 93.3905 120.914C93.2305 121.949 92.8375 122.933 92.5675 123.929C92.2495 125.103 91.4235 125.904 90.6445 126.769C89.7825 127.726 88.8295 128.576 87.4525 128.764C83.8685 129.251 84.1304 129.318 80.5124 128.111C80.394 128.518 80.3284 128.751 80.0515 128.772C79.6316 128.803 78.6516 128.286 78.711 127.844C79.359 127.777 79.7947 128.306 80.5028 128.123C78.6174 127.13 77.0868 125.876 76.2702 123.813C76.0348 124.462 75.4374 125.39 75.8094 126.066C76.5832 127.474 79.0719 129.586 80.7011 130.381L80.7031 130.383ZM106.496 117.891C106.31 117.303 105.943 117.092 105.454 117.093C105.77 117.455 106.075 117.707 106.496 117.891ZM155.088 111.375C155.209 111.68 155.55 111.496 155.684 111.389C155.818 111.281 155.939 111.084 155.869 110.898C155.804 110.73 155.602 110.651 155.363 110.689C155.554 111.036 155.241 111.211 155.086 111.376L155.088 111.375ZM156.359 111.341C156.221 111.541 156.427 111.64 156.547 111.75C156.659 111.852 156.744 111.802 156.734 111.709C156.713 111.513 156.724 111.409 156.688 111.35C156.641 111.271 156.455 111.201 156.359 111.341ZM67.3126 125.27C67.3307 125.163 67.2644 124.997 67.1805 125.015C67.0582 125.042 66.8774 124.992 66.764 125.118C66.6245 125.272 66.5795 125.419 66.5728 125.557C66.5677 125.677 66.7018 125.742 66.8085 125.712C66.9549 125.669 67.2925 125.391 67.3124 125.268L67.3126 125.27ZM41.7477 129.133C41.4764 129.095 41.3196 128.648 40.879 128.767C40.6941 128.817 41.0032 129.193 41.1276 129.271C41.3194 129.391 41.5293 129.521 41.7496 129.133H41.7477ZM141.88 133.987C142.31 133.799 142.682 133.368 143.213 133.248C144.884 132.871 146.172 131.843 147.609 131.038C148.178 130.72 148.299 130.365 148.829 129.98L153.489 126.598C153.052 125.46 152.18 124.493 151.312 123.579C150.631 122.864 150.205 122.018 149.624 121.231C149.306 120.799 148.587 120.824 148.298 120.389C147.96 119.875 147.258 119.579 147.015 119.146C146.701 118.588 146.583 118.384 146.017 118.083C145.331 117.72 144.812 116.98 143.913 116.807L140.747 116.192C139.512 115.953 138.192 116.337 136.908 116.408L137.051 121.44C137.085 122.67 136.738 123.854 136.384 125.053C135.272 128.812 132.483 129.206 129.023 129.582C127.91 129.702 126.949 129.136 125.955 128.889C122.947 128.145 123.152 127.41 120.84 125.708C120.059 127.188 119.994 128.79 120.451 130.361C120.542 130.67 120.473 131.348 120.761 131.543C125.312 134.654 121.956 132.858 127.193 134.755C130.233 135.855 133.348 135.88 136.499 135.205C138.339 134.811 140.165 134.738 141.88 133.987ZM68.0857 127.987L69.5445 127.398C69.6006 126.915 69.1624 126.804 68.7064 126.949C68.4524 127.03 68.2322 127.273 68.1804 127.6C68.168 127.678 67.8013 127.613 67.7308 127.648C67.632 127.697 67.7238 127.827 67.7929 127.854C67.8424 127.874 67.9913 128.025 68.0839 127.987H68.0857ZM112.197 121.98C112.042 121.694 111.744 122.016 111.703 122.152C111.506 122.806 111.723 122.903 112.262 123.741C112.4 123.12 112.502 122.544 112.197 121.98ZM75.4556 127.619C75.2765 127.408 75.1075 127.377 74.9509 127.399C74.9393 127.79 74.7744 127.952 74.5976 128.211C75.0171 128.337 75.3219 128.067 75.4556 127.619ZM66.5847 131.75C66.6243 131.518 65.9095 131.371 65.7513 131.658C65.7237 131.896 66.4313 132.045 66.5847 131.75ZM73.9168 133.087C74.367 132.212 70.2496 132.3 69.6932 132.014C69.4586 131.984 68.9225 132.25 68.681 132.618L73.9168 133.087ZM112.89 129.91C113.06 130.223 113.449 130.04 113.556 129.882C114.143 129.008 113.356 129.407 113.889 127.41C113.956 127.159 113.386 126.722 113.115 126.77C113.132 127.603 112.695 128.062 112.111 128.534C112.238 128.867 112.332 128.856 112.429 128.831C112.577 128.791 112.83 128.671 112.915 128.731C113.067 129.069 112.699 129.552 112.892 129.909L112.89 129.91ZM30.3437 139.156C29.9322 138.8 29.5672 139.01 29.3221 139.162C29.735 139.178 30.0641 139.52 30.3437 139.156ZM160.087 123.186C159.74 122.597 158.371 122.911 158.195 123.348C158.071 123.964 160.429 124.822 160.949 124.11C161.133 123.861 161.339 123.319 161.01 123.054C160.681 122.789 160.338 123.082 160.085 123.186H160.087ZM34.8342 139.781C34.3358 139.26 33.9536 139.862 33.5399 139.941C34.0053 139.87 34.4813 140.246 34.8342 139.781ZM72.9491 136.942L73.8297 136.861C73.5904 136.474 73.2474 136.257 72.9527 135.905C72.7819 135.7 73.1113 135.242 73.1727 134.975C72.3377 134.608 71.5054 134.977 70.8479 135.583L72.2779 135.909C72.2627 136.725 71.6311 136.919 70.9319 137.273C71.5129 137.59 72.1386 137.292 72.7432 137.529C73.316 137.754 73.752 138.242 74.4549 138.311C74.7056 138.335 74.6868 137.97 74.5975 137.829C74.3527 137.443 72.9805 138.033 72.9472 136.943L72.9491 136.942ZM75.9345 134.819C75.9612 134.997 76.0914 135.265 76.2225 135.294C76.45 135.341 76.4404 135.149 76.4606 134.986C76.4752 134.866 76.7122 134.681 76.4804 134.702C76.3339 134.715 75.915 134.696 75.9345 134.819ZM119.494 130.895C119.807 130.794 119.672 129.96 119.537 129.638C119.154 129.609 119.092 129.954 119.001 130.152C118.874 130.425 118.923 131.067 119.494 130.895ZM154.207 125.962C154.615 125.767 154.083 125.202 153.762 125.144C153.615 125.441 153.979 126.072 154.207 125.962ZM114.008 130.583C114.189 131.301 113.465 131.274 113.254 131.548C112.815 132.115 113.351 132.886 113.349 133.494C113.347 133.878 113.326 134.104 113.73 134.125C114.334 134.158 115.232 130.359 114.008 130.585V130.583ZM50.639 139.377C50.047 139.295 49.6763 139.345 49.2905 139.423C49.4349 139.743 49.4383 139.988 49.546 140.096C49.7395 140.289 50.7995 140.1 50.8044 139.963C50.8074 139.841 50.8472 139.406 50.6392 139.379L50.639 139.377ZM51.4299 140.014C51.2942 140.213 51.4983 140.312 51.6176 140.423C51.7301 140.524 51.8153 140.472 51.8057 140.384C51.7838 140.184 51.7953 140.083 51.7593 140.022C51.7184 139.952 51.5266 139.876 51.4302 140.016L51.4299 140.014ZM56.1824 140.809C55.6398 140.513 55.0639 140.484 54.416 140.376C54.0422 140.314 53.7925 139.699 53.393 139.758C53.043 139.808 53.0104 140.941 53.3358 141.079C53.7745 141.267 54.4131 141.156 54.8835 141.46C55.2529 140.962 55.6446 140.828 56.1824 140.809ZM161.145 126.338C160.743 125.91 160.191 125.803 159.794 126.246C160.286 126.396 160.692 126.522 161.145 126.338ZM50.8278 140.262C50.5783 140.247 50.3997 140.274 50.1106 140.36C50.1631 140.593 50.3697 140.405 50.511 140.556C50.6307 140.685 50.7327 140.617 50.8278 140.262ZM47.9462 141.106C47.1587 141.022 46.5435 140.964 46.3014 141.562L47.9462 141.106ZM89.1755 136.374C88.7295 135.88 88.0545 136.439 88.0775 136.548C88.5475 136.522 88.8465 136.532 89.1755 136.374ZM123.358 133.694C122.588 133.395 121.886 133.188 121.008 133.085C121.49 133.99 122.515 134.305 123.358 133.694ZM157.079 131.638C156.529 131.54 156.046 131.645 155.604 131.4C156.027 130.869 156.527 131.114 157.023 130.663C155.816 130.531 155.362 129.65 155.03 129.974C154.978 130.024 155.194 130.198 155.116 130.31C154.955 130.544 154.713 130.688 154.724 130.904C154.735 131.12 154.973 131.337 154.937 131.583C154.879 131.982 154.252 131.842 154.05 132.128C153.922 132.31 154.165 132.597 154.307 132.667C154.449 132.737 154.717 132.384 154.851 132.404C157.216 132.738 157.718 131.753 157.077 131.64L157.079 131.638ZM126.912 136.816L125.563 136.682C125.457 136.671 124.053 135.238 123.239 135.749C122.146 136.437 124.984 136.862 125.636 137.252L127.344 138.276C127.533 138.388 127.705 138.083 127.687 137.958C127.696 138.022 126.93 136.82 126.913 136.818L126.912 136.816ZM203.686 126.544C203.011 126.321 202.473 125.963 201.678 125.904C202.177 126.494 202.905 126.68 203.686 126.544ZM134.085 136.414C134.142 136.142 133.839 135.873 133.672 135.959C133.469 136.062 132.999 135.891 132.924 136.169C132.857 136.42 133.251 136.658 133.445 136.663C133.605 136.667 134.044 136.61 134.084 136.412L134.085 136.414ZM148.639 135.955C148.481 136.189 148.737 136.323 148.898 136.265C148.964 136.241 149.122 136.316 149.164 136.129C149.156 136.16 148.82 135.686 148.639 135.955ZM72.677 147.523C73.3176 147.18 73.4781 146.882 73.5467 146.482C72.9987 146.771 72.7976 147.163 72.677 147.523ZM143.666 137.809C143.405 137.636 142.903 137.71 142.58 137.926C142.692 138.228 142.992 138.186 143.258 138.225C143.445 138.254 143.65 138.079 143.666 137.809ZM152.132 137.523C152.245 137.042 151.925 136.828 151.778 136.866C151.629 137.166 151.848 137.487 152.132 137.523ZM191.226 133.147C191.586 132.612 191.344 132.444 191.132 132.387C190.809 132.299 190.572 132.165 190.298 132.423C190.619 132.674 190.791 132.99 191.226 133.147ZM190.067 133.122C190.108 132.991 190.057 132.868 189.833 132.867C189.61 132.866 189.569 132.635 189.456 132.818C189.361 132.971 189.231 133.113 189.417 133.104C189.744 133.089 189.958 133.468 190.069 133.122H190.067ZM192.83 132.919C192.289 132.724 191.802 132.419 191.726 132.763C191.614 133.264 192.049 133.175 192.231 133.159C192.496 133.134 192.855 133.23 192.83 132.921V132.919ZM193.307 133.214C193.155 133.471 193.427 133.59 193.581 133.522C193.652 133.49 193.802 133.549 193.849 133.386C193.891 133.246 193.787 133.107 193.71 133.126C193.594 133.154 193.369 133.11 193.307 133.214ZM169.084 137.682C169.417 137.821 169.752 137.857 169.872 137.416C169.59 137.351 169.407 137.581 169.084 137.682ZM173.307 137.16C172.452 137.31 169.799 137.053 170.37 137.54C170.494 137.647 173.241 137.313 173.307 137.16ZM195.481 135.428C195.15 135.29 194.97 135.398 194.672 135.47C194.786 135.63 194.911 135.752 195.019 135.759C195.161 135.769 195.492 135.82 195.479 135.428H195.481ZM67.9961 151.97C67.5096 151.965 67.3828 152.263 67.3206 152.509C67.2758 152.685 67.259 153.197 67.4811 153.16C67.9966 153.069 68.231 152.426 67.9961 151.97ZM154.958 140.97C154.998 141.208 155.133 141.236 155.201 141.261C155.29 141.293 155.448 141.222 155.456 141.129C155.471 140.979 155.398 140.863 155.324 140.872C155.25 140.882 154.94 140.86 154.958 140.97ZM156.082 142.597C156.14 142.256 156.107 141.915 155.856 141.522C155.61 141.711 155.579 141.964 155.665 142.195C155.716 142.335 155.837 142.482 156.084 142.597H156.082ZM154.895 142.135C154.771 142.524 154.917 142.657 155.161 142.584C155.282 142.548 155.265 142.299 155.149 142.222C155.089 142.183 154.942 141.988 154.895 142.135ZM219.892 136.029C219.377 135.57 219.151 135.361 218.722 135.058C218.611 135.432 218.784 135.819 219.082 136.017C219.285 136.152 219.705 136.227 219.89 136.029H219.892ZM156.011 144.142C156.38 143.995 156.17 143.364 155.938 143.405C155.604 143.463 155.784 144.231 156.011 144.142ZM154.633 144.182C154.687 144.426 154.765 144.581 154.868 144.669C154.915 144.71 154.952 144.533 155.038 144.471C155.194 144.357 155.022 144.303 154.915 144.198C154.87 144.153 154.607 144.063 154.633 144.182ZM106.938 156.43C107.298 156.327 107.496 155.885 107.368 155.782C107.168 155.624 106.986 155.904 106.895 155.995C106.782 156.107 106.653 156.509 106.938 156.43ZM104.414 159.769C104.989 159.995 105.307 159.68 105.664 159.434C107.285 158.312 108.829 157.233 110.774 156.535C110.741 156.098 110.341 155.852 110.098 155.712C109.76 155.519 109.336 155.666 109.039 155.903L106.799 157.687C106.204 158.161 105.761 158.774 104.911 158.801C104.808 159.171 104.752 159.592 104.414 159.769ZM91.6915 160.693C92.0385 160.647 91.9525 160.305 91.7865 160.291C91.1995 160.239 91.2315 160.764 91.1935 160.654C91.2175 160.724 91.4295 160.729 91.6895 160.694L91.6915 160.693ZM109.046 158.819C109.031 158.707 108.911 158.658 108.809 158.653C108.519 158.636 108.27 159.204 108.329 159.331C108.352 159.381 109.098 159.274 109.044 158.819H109.046ZM107.75 159.818C107.657 159.453 106.443 159.735 106.669 160.293C106.782 160.572 107.873 160.288 107.75 159.818ZM103.518 160.578C103.788 160.31 103.484 160.254 103.23 160.406C103.098 160.519 102.985 160.614 102.959 160.736C102.93 160.871 103.068 160.958 103.203 160.881C103.266 160.844 103.33 160.75 103.519 160.579L103.518 160.578ZM121.713 159.199C120.637 158.891 120.166 158.234 119.194 158.218C119.67 159.27 120.843 159.62 121.713 159.199ZM61.0204 166.25C60.8956 165.994 60.4494 166.156 60.3832 166.429C60.3529 166.559 60.1682 166.684 60.2539 166.956C60.5131 166.784 60.969 166.594 61.0204 166.25ZM99.2925 163.479C99.9775 163.208 100.23 162.781 100.248 162.106C99.6225 162.256 98.9235 162.741 99.2925 163.479ZM95.1235 163.535C95.4475 163.195 95.1635 162.849 94.8585 163.179C94.6065 163.452 94.7255 163.718 95.1235 163.535ZM127.349 162.939C127.532 162.435 127.474 162.116 127.186 161.831C126.72 162.118 126.916 162.662 127.349 162.939ZM124.517 163.366C124.404 162.766 123.962 162.598 123.513 162.824C123.848 162.989 124.001 163.378 124.517 163.366ZM97.7445 166.851C97.3055 166.598 96.9275 166.582 96.5325 166.676C96.4655 167.03 96.4925 167.325 96.6625 167.642C97.1325 167.593 97.5935 167.37 97.7445 166.852V166.851ZM96.0625 168.372C96.3105 166.825 93.4285 170.111 93.7105 169.969C94.6435 169.621 95.3075 169.024 96.0625 168.372ZM129.619 164.295C129.635 164.464 129.79 164.734 129.914 164.769C130.048 164.806 130.113 164.597 130.148 164.459C130.183 164.322 130.375 164.155 130.166 164.176C130.011 164.192 129.607 164.163 129.619 164.297V164.295ZM130.896 164.997C130.979 164.694 130.688 164.439 130.575 164.311C130.351 164.58 130.266 164.793 130.33 164.955C130.389 165.105 130.835 165.222 130.896 164.997ZM131.388 165.031C131.26 165.417 131.411 165.561 131.652 165.477C131.754 165.442 131.812 165.23 131.629 165.111C131.572 165.073 131.435 164.886 131.388 165.031ZM78.0169 174.666C79.1002 174.322 79.7114 173.619 80.5165 173.126C81.2088 172.703 82.13 172.631 82.496 171.669C81.6617 172.009 80.8025 172.388 80.0901 172.931C79.5178 173.368 79.1201 173.879 78.3382 174.056C78.0739 174.116 77.5871 174.503 78.0185 174.664L78.0169 174.666ZM92.8515 170.785C92.3455 170.437 92.3225 170.669 92.1845 170.692C91.8745 170.745 91.8285 171.145 92.1215 171.092C92.4155 171.04 92.6015 170.796 92.8515 170.785ZM132.991 166.205C133.153 166.034 132.943 165.818 132.791 165.715C132.693 165.649 132.494 165.558 132.364 165.774C132.224 166.004 132.393 166.166 132.506 166.183C132.619 166.2 132.838 166.367 132.991 166.205ZM78.1327 176.486C78.0393 176.211 77.4838 176.137 77.3362 176.229C77.1713 176.332 77.3197 176.758 77.2232 177.072C77.5258 177.033 78.0204 176.78 78.1346 176.486H78.1327ZM72.9981 180.234C74.1205 179.524 75.3102 178.958 76.1095 177.821C76.1922 177.705 75.7757 177.53 75.6778 177.644C75.0287 178.402 74.5145 178.211 73.5529 178.961C73.5486 179.175 73.7595 179.313 73.5325 179.547C73.3374 179.459 73.3077 179.272 73.1735 179.235C73.0839 179.209 72.8773 179.25 72.7723 179.382C71.8262 180.574 70.512 180.507 70.8377 181.085C71.2048 181.738 72.8332 180.338 72.9962 180.234H72.9981ZM67.3776 183.019C67.1511 182.847 66.9835 182.828 66.8785 182.697C67.1349 182.502 67.2726 182.333 67.1745 182.197C67.0354 182.005 66.9164 181.781 66.7738 181.78C66.0723 181.78 66.2016 183.02 65.8922 183.197C65.2791 183.549 64.5454 183.795 64.5154 184.671C65.4074 183.934 66.5564 184 67.3774 183.017L67.3776 183.019ZM62.045 186.511C62.3909 186.721 62.5373 186.474 62.7334 186.379C62.9645 186.265 63.0369 186.113 62.8353 185.727C62.6291 186.049 62.3357 186.145 62.045 186.511ZM62.3829 187.695C62.7086 186.682 60.7534 188.299 60.815 188.412C61.4335 188.423 61.8047 188.042 62.3829 187.695ZM43.7467 200.134C44.801 199.785 45.3982 199.221 46.2259 198.844C46.0027 198.436 45.689 198.36 45.4397 198.317C45.1903 198.274 45.1121 198.614 44.9879 198.831C44.6613 199.398 43.9101 199.464 43.7467 200.134ZM163.279 188.695C163.4 187.945 162.879 187.729 162.499 187.384C161.751 186.7 161.211 185.873 160.284 185.417C160.3 186.212 161.028 186.42 161.429 186.852C162.025 187.495 162.293 188.37 163.279 188.697V188.695ZM39.4731 205.138C38.652 205.201 38.2163 205.678 37.7493 206.175C38.4701 206.062 38.907 205.477 39.4731 205.138ZM165.792 190.855C165.739 189.78 164.829 189.505 164.116 189.722C164.502 190.445 165.076 190.887 165.792 190.855ZM166.333 191.426C166.378 191.661 166.482 191.838 166.566 191.912C166.613 191.953 166.652 191.777 166.738 191.716C166.894 191.602 166.724 191.547 166.615 191.443C166.569 191.398 166.31 191.306 166.333 191.428V191.426ZM176.197 205.384C176.184 205.007 175.904 204.548 175.441 204.655C175.661 204.938 175.677 205.25 176.197 205.384Z" fill="white"/>
</mask>
<g mask="url(#mask1_1071_3304)">
<path d="M127.096 167.409C126.152 167.435 125.213 166.693 125.085 165.746C122.537 164.236 120.028 162.652 117.476 161.154C117.182 160.981 110.876 158.068 111.046 159.391C104.743 163.011 98.8185 167.354 93.7385 172.478C93.3425 172.88 92.8485 173.168 92.3595 173.452C89.4205 175.165 86.3682 176.766 83.5214 178.627C82.7082 179.159 75.6209 183.36 75.6886 183.887C73.0513 185.552 69.2314 186.628 67.1281 188.973C64.0364 190.14 61.0431 191.501 58.526 193.664C58.0799 194.045 55.9955 195.751 56.1089 195.641C55.5831 196.147 55.2083 196.691 54.5643 197.109C51.3162 199.218 48.5686 200.302 45.5011 202.532C45.0361 202.869 44.5588 203.067 44.0222 203.314C43.1353 203.726 42.5329 204.585 41.6648 205.07C39.8322 206.093 38.0989 207.056 36.3354 208.281C35.6722 204.376 37.2738 198.461 39.9155 195.503C41.4618 193.77 43.155 192.626 44.4776 190.598C45.772 188.614 46.7736 186.452 48.0619 184.464C50.1909 181.18 52.396 177.932 54.4517 174.603L58.425 168.167C58.8863 167.422 59.173 166.515 59.4316 165.725C59.5163 165.464 59.2372 165.146 59.4324 164.796L61.121 161.763C62.0857 160.031 61.2233 159.348 62.6549 159.453C63.8605 156.208 65.4923 154.383 67.3381 151.477C67.5658 151.118 67.9081 150.92 67.9421 150.397C67.9559 150.198 68.3047 150.226 68.3955 150.32C68.528 150.46 68.3173 150.675 68.3896 151.018C69.3178 150.301 68.2479 149.857 68.8113 148.943L71.0132 145.379C67.2342 144.145 63.419 144.118 59.6448 143.257C59.4824 143.22 59.4268 143.371 59.4781 143.507C59.0213 144.04 58.5316 143.222 58.1893 143.185C52.5325 142.579 46.9188 142.133 41.2574 141.563C42.078 140.417 43.7602 140.443 45.1611 140.585C43.6565 140.058 41.9817 140.032 40.4616 140.508C40.8012 140.641 41.1409 140.774 41.4806 140.906C40.4707 141.09 39.4149 141.02 38.4399 140.703C38.7512 140.876 39.0603 141.049 39.3715 141.222C32.9011 140.897 26.5448 138.497 20.1301 138.517L9.40467 138.553C8.71097 138.556 8.11227 138.13 7.40047 138.168C7.05577 138.186 7.41897 137.888 7.37117 137.136C7.31747 136.281 6.77227 137.264 5.24037 137.328C5.58447 137.612 5.99487 137.564 6.40647 137.804C6.63867 137.889 6.54457 137.974 6.31937 138.031C4.80807 138.518 3.32107 138.551 1.86887 138.579C1.83247 137.318 2.38637 136.227 3.56447 136.096L4.79537 137.179C0.60747 133.493 18.8186 127.729 21.2139 126.954C25.5184 125.563 29.8245 124.169 34.129 122.778C35.0963 122.466 36.067 122.152 37.0729 121.995C38.0202 120.784 39.664 120.16 41.1763 120.44C41.6801 120.711 42.3136 120.941 42.7979 120.637C43.2822 120.332 43.069 119.331 42.5182 119.482C44.0439 119.02 45.5712 118.555 47.0969 118.093C52.2728 115.877 57.447 113.664 62.6229 111.448C64.4028 110.687 69.1696 109.637 70.3269 108.148C71.4842 106.659 68.886 103.899 68.2195 102.114C67.5529 100.328 66.963 98.672 66.1776 96.954L64.0009 92.1903L62.106 88.671C61.7509 88.0098 61.182 87.5824 60.7707 87.024C60.0802 86.0891 60.2258 84.8424 59.9778 83.7737C59.8269 83.1256 58.0121 81.484 58.5071 80.3442C58.8345 79.8409 57.9851 80.4863 57.4098 79.0022C54.9743 72.7064 50.4808 66.9057 49.2577 63.3881L47.665 58.8045C46.995 56.8751 47.6384 54.7151 47.0966 52.9811L46.4583 50.9333C46.2385 50.2304 46.928 48.925 47.609 48.3856C48.9932 47.289 50.7982 47.7451 52.1041 48.6815C53.131 49.4176 53.7651 50.3523 54.6159 51.2647L61.1554 58.2724C63.2678 60.5357 65.4759 62.5374 67.6116 64.7489L69.4727 66.6771C69.9185 67.1391 70.5026 67.4952 71.0635 67.845L76.6634 71.3512L78.0184 72.5532C79.2822 73.6732 80.6573 74.6514 81.8194 75.8406C82.653 76.6934 82.6226 76.238 84.2217 77.2661C85.9864 78.4005 87.3795 79.8807 89.0175 81.1737C90.3835 82.2507 91.6825 83.2723 92.9635 84.4501C93.6125 85.0472 94.2295 85.5885 95.0925 85.9669L95.8355 82.9017L98.7985 65.7147C99.2225 63.2528 100.068 61.0162 99.8845 58.4768C100.274 58.2448 100.505 58.1102 100.751 57.8254C101.594 54.3273 102.112 50.8936 102.752 47.3541C103.294 44.3633 104.089 41.5726 104.771 38.6128L106.943 29.1806C107.852 25.2258 108.662 21.4264 109.323 17.4155C109.544 16.0691 110.79 8.29151 111.294 7.89851C111.396 7.81791 111.507 7.96481 111.535 8.18061C111.528 8.55271 111.703 8.89021 111.821 8.40821C112.017 7.62191 112.395 6.93021 113.21 6.70361C113.564 8.29291 113.84 11.081 113.995 12.889L114.402 17.6326C114.715 21.2747 115.436 24.7405 114.862 28.6108C114.611 30.3042 115.26 31.9981 115.548 33.6841C115.891 35.6799 116.315 37.5621 116.534 39.5625C116.796 41.9493 117.147 44.2009 117.781 46.5361C117.931 47.0831 117.609 47.7451 118.255 48.1794C118.179 48.6541 118.314 48.4774 118.531 48.1383C118.909 50.4915 118.987 52.7182 119.508 55.0397C119.538 55.1708 119.767 55.2595 119.828 55.3924C119.882 55.511 119.692 55.663 119.606 55.8427C120.135 56.4516 120.178 57.3891 120.407 58.2202C120.474 58.4666 121.009 58.4259 121.035 58.5988C121.069 58.8363 121.102 59.3215 120.721 59.2767C120.34 59.2319 120.769 58.5412 120.29 58.3646C120.538 61.3006 121.81 64.0264 122.559 66.956C123.019 68.7493 123.188 70.4581 124.13 72.1275C124.053 71.9912 124.105 73.2762 124.583 73.5186C124.848 73.6532 124.788 73.421 124.752 73.1969C123.97 68.5052 121.829 65.0532 121.39 60.3099C121.337 60.0862 121.434 59.8206 121.566 60.0323C122.894 63.4145 122.411 64.3128 124.117 67.7945C124.608 68.7945 124.512 69.8849 124.844 70.9502C126.121 75.0476 127.304 79.1027 128.8 83.097C129.026 83.7017 129.357 83.9853 129.627 84.8431L130.589 87.9049C132.959 87.5796 133.982 85.0727 135.006 84.793C135.282 84.7182 137.678 82.1303 137.561 82.2241L154.616 68.5131C155.93 67.4573 157.293 66.5359 158.749 65.7751C159.772 65.2405 161.032 65.1217 161.4 63.7358C161.753 63.6529 162.12 63.602 162.401 63.3916L167.989 59.2217C169.006 58.4629 169.859 57.4515 171.013 56.9263C171.681 56.6211 172.112 56.2958 172.671 55.8583C173.905 54.8935 175.472 54.3303 176.69 53.2982L178.336 51.9017C178.721 51.5747 178.99 51.0958 179.42 50.7481C180.467 49.9011 181.434 49.2143 182.762 48.8205C183.429 48.6223 183.866 48.2831 184.554 48.2846C184.459 48.5012 183.997 49.1249 184.088 49.445C184.623 51.3149 183.759 51.8572 182.799 53.2048C181.653 54.8145 180.839 56.5221 179.817 58.2771C177.001 63.1181 174.189 67.9623 171.374 72.803C168.654 77.4836 165.933 82.1642 163.401 86.95C161.12 91.259 159.492 95.99 157.051 100.146C156.816 100.258 156.838 99.249 156.663 99.592L156.472 99.961C155.87 101.13 157.412 100.135 156.006 102.464C154.761 104.527 155.139 106.187 155.088 108.516C156.952 109.55 158.963 109.826 160.825 110.664L163.146 111.708C164.838 112.469 166.857 112.338 168.581 113.117C170.862 114.149 173.033 115.029 175.499 115.55C176.683 115.801 177.932 116.044 179.005 116.555C179.458 116.77 179.638 117.043 180.23 117.023C181.472 116.984 182.573 117.656 183.747 118.013L190.576 120.094C192.327 120.628 192.789 122.072 194.336 122.597C196.708 123.402 198.992 124.189 201.3 125.143C202.768 125.749 204.154 126.375 205.682 126.818C206.393 127.025 206.986 127.374 207.464 127.969C207.603 127.782 207.686 127.682 207.902 127.792L213.514 130.648C216.262 132.046 217.638 132.708 219.69 134.913C220.434 135.712 222.179 136.575 222.394 136.872C222.9 137.572 216.781 137.571 216.14 137.565L207.541 137.477C205.04 137.452 202.641 137.279 200.149 137.451C197.169 137.658 194.031 136.893 191.829 136.88C188.274 136.858 184.833 137.394 181.29 137.602C180.465 137.65 179.697 137.97 178.88 138.06C176.361 138.339 173.968 138.198 171.445 138.378L156.536 139.44C156.558 141.732 156.8 143.843 157.203 146.092C157.892 149.918 158.584 153.594 159.48 157.373C160.285 160.762 161.396 166.12 164.102 168.577C164.04 169.27 164.4 169.921 164.747 170.521C165.608 172.01 166.468 173.5 167.329 174.989C167.417 174.786 167.505 174.582 167.595 174.379C168.144 174.732 168.434 175.443 168.289 176.081C167.139 175.6 169.806 181.977 169.891 182.506C170.043 183.473 170.343 184.053 170.782 184.853C171.965 187.011 173.135 189.178 174.315 191.338C174.09 190.697 173.996 190.01 174.038 189.332C175.008 190.615 176.031 192.171 175.569 193.712C175.502 193.936 175.458 194.266 175.683 194.323C175.773 194.143 175.862 193.963 175.953 193.78C176.328 195.326 176.499 197.184 177.24 198.602C177.706 199.495 179.132 200.386 179.1 201.468C179.108 201.193 179.504 201.08 179.737 201.226C179.97 201.373 180.068 201.656 180.15 201.92C180.492 202.997 180.831 204.074 181.172 205.152C181.441 206.002 181.707 206.875 182.131 207.666C182.597 208.531 184.323 210.111 182.383 210.521C180.716 210.874 178.691 208.761 177.782 207.629C177.995 207.598 178.211 207.567 178.424 207.535C178.519 207.03 177.974 206.631 177.47 206.531C176.965 206.431 176.417 206.483 175.97 206.231C174.928 205.639 175.255 204.013 174.603 203.008C173.731 201.667 171.305 201.695 170.934 200.14C171.128 200.156 171.321 200.173 171.515 200.189C169.732 198.986 168.528 197.153 167.007 195.667C165.321 194.018 163.602 192.396 161.732 190.953C152.663 183.951 143.101 177.555 133.657 171.004C133.43 170.847 133.115 170.689 132.901 170.863C132.687 171.036 133.125 171.432 133.172 171.16C130.772 168.991 128.017 167.217 125.051 165.928C125.839 166.414 126.63 166.901 127.418 167.386C127.312 167.409 127.207 167.423 127.1 167.427L127.096 167.409ZM113.296 18.746C113.687 18.587 113.634 18.307 113.558 18.1087C113.52 18.0085 113.377 17.9126 113.183 17.853C113.194 18.2248 113.211 18.4476 113.296 18.7478V18.746ZM54.6273 55.9073C54.3867 55.057 53.8684 54.7318 53.4226 54.3429C53.6488 55.0806 53.9056 55.8088 54.6273 55.9073ZM49.4066 61.1023C49.273 59.9458 48.928 59.0565 48.2536 58.217C48.5361 59.2475 48.7693 60.303 49.4066 61.1023ZM56.2282 74.5082C56.0129 74.234 55.9046 73.9461 55.7427 74.3063C55.9823 74.478 55.9029 74.6775 56.0302 74.7043C56.1574 74.7311 56.3471 74.6598 56.2282 74.5082ZM70.318 73.1229C70.094 72.8686 70.1081 72.7299 69.9376 72.63C69.8625 72.5853 69.7403 72.496 69.7582 72.7224C69.7779 72.9636 69.7477 73.2394 69.9168 73.2851C70.0529 73.322 70.4281 73.2494 70.3183 73.1248L70.318 73.1229ZM58.3715 79.143C58.6678 78.9381 58.5862 78.2736 58.44 77.968L57.5835 76.1789C57.3492 76.3702 57.2931 76.6343 57.2624 76.8914C57.2343 77.1256 57.6654 77.2689 57.7322 77.5547C57.8547 78.0845 57.706 78.9567 58.3697 79.1432L58.3715 79.143ZM73.2126 75.7507C73.497 75.3223 72.9357 75.0269 72.7702 75.2282C72.7106 75.3334 72.9386 75.6771 73.2126 75.7507ZM71.1236 77.3034C71.051 77.3953 71.1227 77.7779 71.2337 77.7805C71.3278 77.7834 71.3977 77.5682 71.5938 77.5467C71.7693 77.5261 71.5345 77.3481 71.4563 77.2944C71.3781 77.2407 71.2353 77.1653 71.1236 77.3034ZM111.508 74.704C111.544 74.4238 111.663 74.3166 111.588 74.2175C111.514 74.1183 111.397 74.1014 111.298 74.1592C111.188 74.2221 111.209 74.3618 111.263 74.5425C111.229 74.8542 111.404 75.0136 111.508 74.704ZM110.98 78.9679C110.975 78.5485 110.779 78.3562 110.686 77.9651C110.573 78.2534 110.451 78.7921 110.98 78.9679ZM112.679 79.6118C112.917 79.5662 112.729 79.3542 112.88 79.213C113.017 79.0847 112.898 79.0231 112.636 78.8637C112.522 79.0733 112.605 79.2915 112.679 79.6118ZM112.816 81.6923C113.269 81.4259 113.088 81.1267 112.907 80.8743C112.873 81.1337 112.755 81.4395 112.816 81.6923ZM119.07 96.695C119.266 96.738 119.866 96.527 119.807 96.316L116.518 84.5163C116.335 87.0107 116.981 89.2188 117.228 91.5438C117.067 90.0327 118.065 94.0029 117.94 93.8465C118.98 95.155 117.977 96.467 119.07 96.695ZM113.188 86.1103C113.374 85.9909 113.236 85.8135 113.245 85.6287C113.252 85.4271 113.167 85.2768 112.831 85.4175C112.839 85.7014 113.068 85.7996 113.189 86.1122L113.188 86.1103ZM113.084 88.1748C113.186 87.6705 113.176 87.4168 112.957 87.2443C112.882 87.6365 112.919 87.9297 113.084 88.1748ZM120.016 88.78C119.949 88.228 119.932 87.7578 119.659 87.2811C119.409 87.7781 119.168 88.7447 119.7 88.86C119.787 88.8788 119.825 88.9301 120.017 88.7818L120.016 88.78ZM120.56 90.8362C120.511 90.1656 120.281 89.614 119.974 89.1397C119.853 89.9615 119.804 90.4739 120.171 90.8731C120.245 90.9535 120.575 91.0536 120.558 90.8364L120.56 90.8362ZM115.403 91.139C115.179 90.8847 115.193 90.7461 115.022 90.6461C114.947 90.6014 114.825 90.5121 114.843 90.7385C114.863 90.9797 114.833 91.2555 115.002 91.3012C115.138 91.3381 115.513 91.2655 115.403 91.1409V91.139ZM114.822 93.5798C114.665 92.7694 114.755 92.0529 114.441 91.362C114.581 92.3658 114.145 93.6142 114.822 93.5798ZM120.789 92.1397C120.967 91.7982 120.696 91.6492 120.63 91.5265C120.514 91.3089 120.207 91.2697 120.197 91.526C120.187 91.7596 120.225 91.9535 120.317 92.1423C120.358 92.2252 120.416 92.2552 120.79 92.1415L120.789 92.1397ZM116.625 99.321C116.381 96.707 115.853 94.4635 115.301 92.1683C115.148 94.7321 115.725 97.136 116.625 99.321ZM121.48 93.0147C120.994 92.7359 121.267 92.397 120.818 92.2129C120.381 92.569 120.477 93.1961 120.784 93.6609C121.08 93.276 121.201 93.1049 121.479 93.0128L121.48 93.0147ZM114.421 94.9118C114.326 94.294 114.417 93.9655 114.174 93.648L114.048 94.671C114.037 94.77 114.304 94.9812 114.419 94.9102L114.421 94.9118ZM121.259 95.092C121.419 95.126 121.57 94.9249 121.543 94.8682C121.517 94.8116 121.349 94.7264 121.342 94.5379C121.327 94.1443 120.886 94.1484 120.941 94.5613C121.214 94.6819 121.141 95.066 121.259 95.092ZM114.359 96.635C114.461 96.131 114.451 95.877 114.232 95.705C114.157 96.097 114.194 96.39 114.359 96.635ZM113.889 98.653C114.35 98.086 114.017 97.566 113.862 97.063C113.894 97.589 113.704 98.105 113.889 98.653ZM116.028 102.452C114.368 102.191 116.986 100.644 115.543 101.075L114.266 101.456C114.195 102.47 114.161 103.431 114.611 104.344C115.109 103.577 115.47 103.032 116.028 102.454V102.452ZM143.143 98.658C143.346 98.409 143.477 98.159 143.319 97.908C143.173 97.674 142.938 97.602 142.642 97.672C142.383 97.732 142.324 97.989 142.241 98.294C142.149 98.63 142.297 98.877 142.501 98.969C142.808 99.11 142.968 98.872 143.143 98.658ZM132.429 110.992C131.053 110.533 129.364 111.627 127.92 111.974C127.867 112.118 127.903 112.368 127.992 112.492C128.108 112.539 133.764 111.546 132.429 110.992ZM80.7031 130.383C84.1395 132.06 85.0864 133.487 88.8445 134.148C89.9745 134.347 91.0075 135.07 92.1965 135.123C95.0875 135.256 98.3585 134.965 100.924 133.519L104.038 131.765C105.455 130.967 106.574 129.782 107.824 128.791C106.868 126.872 104.75 125.253 103.392 123.279C100.397 118.924 99.0835 118.481 94.0485 116.721C93.6135 118.067 93.6095 119.485 93.3905 120.914C93.2305 121.949 92.8375 122.933 92.5675 123.929C92.2495 125.103 91.4235 125.904 90.6445 126.769C89.7825 127.726 88.8295 128.576 87.4525 128.764C83.8685 129.251 84.1304 129.318 80.5124 128.111C80.394 128.518 80.3284 128.751 80.0515 128.772C79.6316 128.803 78.6516 128.286 78.711 127.844C79.359 127.777 79.7947 128.306 80.5028 128.123C78.6174 127.13 77.0868 125.876 76.2702 123.813C76.0348 124.462 75.4374 125.39 75.8094 126.066C76.5832 127.474 79.0719 129.586 80.7011 130.381L80.7031 130.383ZM106.496 117.891C106.31 117.303 105.943 117.092 105.454 117.093C105.77 117.455 106.075 117.707 106.496 117.891ZM155.088 111.375C155.209 111.68 155.55 111.496 155.684 111.389C155.818 111.281 155.939 111.084 155.869 110.898C155.804 110.73 155.602 110.651 155.363 110.689C155.554 111.036 155.241 111.211 155.086 111.376L155.088 111.375ZM156.359 111.341C156.221 111.541 156.427 111.64 156.547 111.75C156.659 111.852 156.744 111.802 156.734 111.709C156.713 111.513 156.724 111.409 156.688 111.35C156.641 111.271 156.455 111.201 156.359 111.341ZM67.3126 125.27C67.3307 125.163 67.2644 124.997 67.1805 125.015C67.0582 125.042 66.8774 124.992 66.764 125.118C66.6245 125.272 66.5795 125.419 66.5728 125.557C66.5677 125.677 66.7018 125.742 66.8085 125.712C66.9549 125.669 67.2925 125.391 67.3124 125.268L67.3126 125.27ZM41.7477 129.133C41.4764 129.095 41.3196 128.648 40.879 128.767C40.6941 128.817 41.0032 129.193 41.1276 129.271C41.3194 129.391 41.5293 129.521 41.7496 129.133H41.7477ZM141.88 133.987C142.31 133.799 142.682 133.368 143.213 133.248C144.884 132.871 146.172 131.843 147.609 131.038C148.178 130.72 148.299 130.365 148.829 129.98L153.489 126.598C153.052 125.46 152.18 124.493 151.312 123.579C150.631 122.864 150.205 122.018 149.624 121.231C149.306 120.799 148.587 120.824 148.298 120.389C147.96 119.875 147.258 119.579 147.015 119.146C146.701 118.588 146.583 118.384 146.017 118.083C145.331 117.72 144.812 116.98 143.913 116.807L140.747 116.192C139.512 115.953 138.192 116.337 136.908 116.408L137.051 121.44C137.085 122.67 136.738 123.854 136.384 125.053C135.272 128.812 132.483 129.206 129.023 129.582C127.91 129.702 126.949 129.136 125.955 128.889C122.947 128.145 123.152 127.41 120.84 125.708C120.059 127.188 119.994 128.79 120.451 130.361C120.542 130.67 120.473 131.348 120.761 131.543C125.312 134.654 121.956 132.858 127.193 134.755C130.233 135.855 133.348 135.88 136.499 135.205C138.339 134.811 140.165 134.738 141.88 133.987ZM68.0857 127.987L69.5445 127.398C69.6006 126.915 69.1624 126.804 68.7064 126.949C68.4524 127.03 68.2322 127.273 68.1804 127.6C68.168 127.678 67.8013 127.613 67.7308 127.648C67.632 127.697 67.7238 127.827 67.7929 127.854C67.8424 127.874 67.9913 128.025 68.0839 127.987H68.0857ZM112.197 121.98C112.042 121.694 111.744 122.016 111.703 122.152C111.506 122.806 111.723 122.903 112.262 123.741C112.4 123.12 112.502 122.544 112.197 121.98ZM75.4556 127.619C75.2765 127.408 75.1075 127.377 74.9509 127.399C74.9393 127.79 74.7744 127.952 74.5976 128.211C75.0171 128.337 75.3219 128.067 75.4556 127.619ZM66.5847 131.75C66.6243 131.518 65.9095 131.371 65.7513 131.658C65.7237 131.896 66.4313 132.045 66.5847 131.75ZM73.9168 133.087C74.367 132.212 70.2496 132.3 69.6932 132.014C69.4586 131.984 68.9225 132.25 68.681 132.618L73.9168 133.087ZM112.89 129.91C113.06 130.223 113.449 130.04 113.556 129.882C114.143 129.008 113.356 129.407 113.889 127.41C113.956 127.159 113.386 126.722 113.115 126.77C113.132 127.603 112.695 128.062 112.111 128.534C112.238 128.867 112.332 128.856 112.429 128.831C112.577 128.791 112.83 128.671 112.915 128.731C113.067 129.069 112.699 129.552 112.892 129.909L112.89 129.91ZM30.3437 139.156C29.9322 138.8 29.5672 139.01 29.3221 139.162C29.735 139.178 30.0641 139.52 30.3437 139.156ZM160.087 123.186C159.74 122.597 158.371 122.911 158.195 123.348C158.071 123.964 160.429 124.822 160.949 124.11C161.133 123.861 161.339 123.319 161.01 123.054C160.681 122.789 160.338 123.082 160.085 123.186H160.087ZM34.8342 139.781C34.3358 139.26 33.9536 139.862 33.5399 139.941C34.0053 139.87 34.4813 140.246 34.8342 139.781ZM72.9491 136.942L73.8297 136.861C73.5904 136.474 73.2474 136.257 72.9527 135.905C72.7819 135.7 73.1113 135.242 73.1727 134.975C72.3377 134.608 71.5054 134.977 70.8479 135.583L72.2779 135.909C72.2627 136.725 71.6311 136.919 70.9319 137.273C71.5129 137.59 72.1386 137.292 72.7432 137.529C73.316 137.754 73.752 138.242 74.4549 138.311C74.7056 138.335 74.6868 137.97 74.5975 137.829C74.3527 137.443 72.9805 138.033 72.9472 136.943L72.9491 136.942ZM75.9345 134.819C75.9612 134.997 76.0914 135.265 76.2225 135.294C76.45 135.341 76.4404 135.149 76.4606 134.986C76.4752 134.866 76.7122 134.681 76.4804 134.702C76.3339 134.715 75.915 134.696 75.9345 134.819ZM119.494 130.895C119.807 130.794 119.672 129.96 119.537 129.638C119.154 129.609 119.092 129.954 119.001 130.152C118.874 130.425 118.923 131.067 119.494 130.895ZM154.207 125.962C154.615 125.767 154.083 125.202 153.762 125.144C153.615 125.441 153.979 126.072 154.207 125.962ZM114.008 130.583C114.189 131.301 113.465 131.274 113.254 131.548C112.815 132.115 113.351 132.886 113.349 133.494C113.347 133.878 113.326 134.104 113.73 134.125C114.334 134.158 115.232 130.359 114.008 130.585V130.583ZM50.639 139.377C50.047 139.295 49.6763 139.345 49.2905 139.423C49.4349 139.743 49.4383 139.988 49.546 140.096C49.7395 140.289 50.7995 140.1 50.8044 139.963C50.8074 139.841 50.8472 139.406 50.6392 139.379L50.639 139.377ZM51.4299 140.014C51.2942 140.213 51.4983 140.312 51.6176 140.423C51.7301 140.524 51.8153 140.472 51.8057 140.384C51.7838 140.184 51.7953 140.083 51.7593 140.022C51.7184 139.952 51.5266 139.876 51.4302 140.016L51.4299 140.014ZM56.1824 140.809C55.6398 140.513 55.0639 140.484 54.416 140.376C54.0422 140.314 53.7925 139.699 53.393 139.758C53.043 139.808 53.0104 140.941 53.3358 141.079C53.7745 141.267 54.4131 141.156 54.8835 141.46C55.2529 140.962 55.6446 140.828 56.1824 140.809ZM161.145 126.338C160.743 125.91 160.191 125.803 159.794 126.246C160.286 126.396 160.692 126.522 161.145 126.338ZM50.8278 140.262C50.5783 140.247 50.3997 140.274 50.1106 140.36C50.1631 140.593 50.3697 140.405 50.511 140.556C50.6307 140.685 50.7327 140.617 50.8278 140.262ZM47.9462 141.106C47.1587 141.022 46.5435 140.964 46.3014 141.562L47.9462 141.106ZM89.1755 136.374C88.7295 135.88 88.0545 136.439 88.0775 136.548C88.5475 136.522 88.8465 136.532 89.1755 136.374ZM123.358 133.694C122.588 133.395 121.886 133.188 121.008 133.085C121.49 133.99 122.515 134.305 123.358 133.694ZM157.079 131.638C156.529 131.54 156.046 131.645 155.604 131.4C156.027 130.869 156.527 131.114 157.023 130.663C155.816 130.531 155.362 129.65 155.03 129.974C154.978 130.024 155.194 130.198 155.116 130.31C154.955 130.544 154.713 130.688 154.724 130.904C154.735 131.12 154.973 131.337 154.937 131.583C154.879 131.982 154.252 131.842 154.05 132.128C153.922 132.31 154.165 132.597 154.307 132.667C154.449 132.737 154.717 132.384 154.851 132.404C157.216 132.738 157.718 131.753 157.077 131.64L157.079 131.638ZM126.912 136.816L125.563 136.682C125.457 136.671 124.053 135.238 123.239 135.749C122.146 136.437 124.984 136.862 125.636 137.252L127.344 138.276C127.533 138.388 127.705 138.083 127.687 137.958C127.696 138.022 126.93 136.82 126.913 136.818L126.912 136.816ZM203.686 126.544C203.011 126.321 202.473 125.963 201.678 125.904C202.177 126.494 202.905 126.68 203.686 126.544ZM134.085 136.414C134.142 136.142 133.839 135.873 133.672 135.959C133.469 136.062 132.999 135.891 132.924 136.169C132.857 136.42 133.251 136.658 133.445 136.663C133.605 136.667 134.044 136.61 134.084 136.412L134.085 136.414ZM148.639 135.955C148.481 136.189 148.737 136.323 148.898 136.265C148.964 136.241 149.122 136.316 149.164 136.129C149.156 136.16 148.82 135.686 148.639 135.955ZM72.677 147.523C73.3176 147.18 73.4781 146.882 73.5467 146.482C72.9987 146.771 72.7976 147.163 72.677 147.523ZM143.666 137.809C143.405 137.636 142.903 137.71 142.58 137.926C142.692 138.228 142.992 138.186 143.258 138.225C143.445 138.254 143.65 138.079 143.666 137.809ZM152.132 137.523C152.245 137.042 151.925 136.828 151.778 136.866C151.629 137.166 151.848 137.487 152.132 137.523ZM191.226 133.147C191.586 132.612 191.344 132.444 191.132 132.387C190.809 132.299 190.572 132.165 190.298 132.423C190.619 132.674 190.791 132.99 191.226 133.147ZM190.067 133.122C190.108 132.991 190.057 132.868 189.833 132.867C189.61 132.866 189.569 132.635 189.456 132.818C189.361 132.971 189.231 133.113 189.417 133.104C189.744 133.089 189.958 133.468 190.069 133.122H190.067ZM192.83 132.919C192.289 132.724 191.802 132.419 191.726 132.763C191.614 133.264 192.049 133.175 192.231 133.159C192.496 133.134 192.855 133.23 192.83 132.921V132.919ZM193.307 133.214C193.155 133.471 193.427 133.59 193.581 133.522C193.652 133.49 193.802 133.549 193.849 133.386C193.891 133.246 193.787 133.107 193.71 133.126C193.594 133.154 193.369 133.11 193.307 133.214ZM169.084 137.682C169.417 137.821 169.752 137.857 169.872 137.416C169.59 137.351 169.407 137.581 169.084 137.682ZM173.307 137.16C172.452 137.31 169.799 137.053 170.37 137.54C170.494 137.647 173.241 137.313 173.307 137.16ZM195.481 135.428C195.15 135.29 194.97 135.398 194.672 135.47C194.786 135.63 194.911 135.752 195.019 135.759C195.161 135.769 195.492 135.82 195.479 135.428H195.481ZM67.9961 151.97C67.5096 151.965 67.3828 152.263 67.3206 152.509C67.2758 152.685 67.259 153.197 67.4811 153.16C67.9966 153.069 68.231 152.426 67.9961 151.97ZM154.958 140.97C154.998 141.208 155.133 141.236 155.201 141.261C155.29 141.293 155.448 141.222 155.456 141.129C155.471 140.979 155.398 140.863 155.324 140.872C155.25 140.882 154.94 140.86 154.958 140.97ZM156.082 142.597C156.14 142.256 156.107 141.915 155.856 141.522C155.61 141.711 155.579 141.964 155.665 142.195C155.716 142.335 155.837 142.482 156.084 142.597H156.082ZM154.895 142.135C154.771 142.524 154.917 142.657 155.161 142.584C155.282 142.548 155.265 142.299 155.149 142.222C155.089 142.183 154.942 141.988 154.895 142.135ZM219.892 136.029C219.377 135.57 219.151 135.361 218.722 135.058C218.611 135.432 218.784 135.819 219.082 136.017C219.285 136.152 219.705 136.227 219.89 136.029H219.892ZM156.011 144.142C156.38 143.995 156.17 143.364 155.938 143.405C155.604 143.463 155.784 144.231 156.011 144.142ZM154.633 144.182C154.687 144.426 154.765 144.581 154.868 144.669C154.915 144.71 154.952 144.533 155.038 144.471C155.194 144.357 155.022 144.303 154.915 144.198C154.87 144.153 154.607 144.063 154.633 144.182ZM106.938 156.43C107.298 156.327 107.496 155.885 107.368 155.782C107.168 155.624 106.986 155.904 106.895 155.995C106.782 156.107 106.653 156.509 106.938 156.43ZM104.414 159.769C104.989 159.995 105.307 159.68 105.664 159.434C107.285 158.312 108.829 157.233 110.774 156.535C110.741 156.098 110.341 155.852 110.098 155.712C109.76 155.519 109.336 155.666 109.039 155.903L106.799 157.687C106.204 158.161 105.761 158.774 104.911 158.801C104.808 159.171 104.752 159.592 104.414 159.769ZM91.6915 160.693C92.0385 160.647 91.9525 160.305 91.7865 160.291C91.1995 160.239 91.2315 160.764 91.1935 160.654C91.2175 160.724 91.4295 160.729 91.6895 160.694L91.6915 160.693ZM109.046 158.819C109.031 158.707 108.911 158.658 108.809 158.653C108.519 158.636 108.27 159.204 108.329 159.331C108.352 159.381 109.098 159.274 109.044 158.819H109.046ZM107.75 159.818C107.657 159.453 106.443 159.735 106.669 160.293C106.782 160.572 107.873 160.288 107.75 159.818ZM103.518 160.578C103.788 160.31 103.484 160.254 103.23 160.406C103.098 160.519 102.985 160.614 102.959 160.736C102.93 160.871 103.068 160.958 103.203 160.881C103.266 160.844 103.33 160.75 103.519 160.579L103.518 160.578ZM121.713 159.199C120.637 158.891 120.166 158.234 119.194 158.218C119.67 159.27 120.843 159.62 121.713 159.199ZM61.0204 166.25C60.8956 165.994 60.4494 166.156 60.3832 166.429C60.3529 166.559 60.1682 166.684 60.2539 166.956C60.5131 166.784 60.969 166.594 61.0204 166.25ZM99.2925 163.479C99.9775 163.208 100.23 162.781 100.248 162.106C99.6225 162.256 98.9235 162.741 99.2925 163.479ZM95.1235 163.535C95.4475 163.195 95.1635 162.849 94.8585 163.179C94.6065 163.452 94.7255 163.718 95.1235 163.535ZM127.349 162.939C127.532 162.435 127.474 162.116 127.186 161.831C126.72 162.118 126.916 162.662 127.349 162.939ZM124.517 163.366C124.404 162.766 123.962 162.598 123.513 162.824C123.848 162.989 124.001 163.378 124.517 163.366ZM97.7445 166.851C97.3055 166.598 96.9275 166.582 96.5325 166.676C96.4655 167.03 96.4925 167.325 96.6625 167.642C97.1325 167.593 97.5935 167.37 97.7445 166.852V166.851ZM96.0625 168.372C96.3105 166.825 93.4285 170.111 93.7105 169.969C94.6435 169.621 95.3075 169.024 96.0625 168.372ZM129.619 164.295C129.635 164.464 129.79 164.734 129.914 164.769C130.048 164.806 130.113 164.597 130.148 164.459C130.183 164.322 130.375 164.155 130.166 164.176C130.011 164.192 129.607 164.163 129.619 164.297V164.295ZM130.896 164.997C130.979 164.694 130.688 164.439 130.575 164.311C130.351 164.58 130.266 164.793 130.33 164.955C130.389 165.105 130.835 165.222 130.896 164.997ZM131.388 165.031C131.26 165.417 131.411 165.561 131.652 165.477C131.754 165.442 131.812 165.23 131.629 165.111C131.572 165.073 131.435 164.886 131.388 165.031ZM78.0169 174.666C79.1002 174.322 79.7114 173.619 80.5165 173.126C81.2088 172.703 82.13 172.631 82.496 171.669C81.6617 172.009 80.8025 172.388 80.0901 172.931C79.5178 173.368 79.1201 173.879 78.3382 174.056C78.0739 174.116 77.5871 174.503 78.0185 174.664L78.0169 174.666ZM92.8515 170.785C92.3455 170.437 92.3225 170.669 92.1845 170.692C91.8745 170.745 91.8285 171.145 92.1215 171.092C92.4155 171.04 92.6015 170.796 92.8515 170.785ZM132.991 166.205C133.153 166.034 132.943 165.818 132.791 165.715C132.693 165.649 132.494 165.558 132.364 165.774C132.224 166.004 132.393 166.166 132.506 166.183C132.619 166.2 132.838 166.367 132.991 166.205ZM78.1327 176.486C78.0393 176.211 77.4838 176.137 77.3362 176.229C77.1713 176.332 77.3197 176.758 77.2232 177.072C77.5258 177.033 78.0204 176.78 78.1346 176.486H78.1327ZM72.9981 180.234C74.1205 179.524 75.3102 178.958 76.1095 177.821C76.1922 177.705 75.7757 177.53 75.6778 177.644C75.0287 178.402 74.5145 178.211 73.5529 178.961C73.5486 179.175 73.7595 179.313 73.5325 179.547C73.3374 179.459 73.3077 179.272 73.1735 179.235C73.0839 179.209 72.8773 179.25 72.7723 179.382C71.8262 180.574 70.512 180.507 70.8377 181.085C71.2048 181.738 72.8332 180.338 72.9962 180.234H72.9981ZM67.3776 183.019C67.1511 182.847 66.9835 182.828 66.8785 182.697C67.1349 182.502 67.2726 182.333 67.1745 182.197C67.0354 182.005 66.9164 181.781 66.7738 181.78C66.0723 181.78 66.2016 183.02 65.8922 183.197C65.2791 183.549 64.5454 183.795 64.5154 184.671C65.4074 183.934 66.5564 184 67.3774 183.017L67.3776 183.019ZM62.045 186.511C62.3909 186.721 62.5373 186.474 62.7334 186.379C62.9645 186.265 63.0369 186.113 62.8353 185.727C62.6291 186.049 62.3357 186.145 62.045 186.511ZM62.3829 187.695C62.7086 186.682 60.7534 188.299 60.815 188.412C61.4335 188.423 61.8047 188.042 62.3829 187.695ZM43.7467 200.134C44.801 199.785 45.3982 199.221 46.2259 198.844C46.0027 198.436 45.689 198.36 45.4397 198.317C45.1903 198.274 45.1121 198.614 44.9879 198.831C44.6613 199.398 43.9101 199.464 43.7467 200.134ZM163.279 188.695C163.4 187.945 162.879 187.729 162.499 187.384C161.751 186.7 161.211 185.873 160.284 185.417C160.3 186.212 161.028 186.42 161.429 186.852C162.025 187.495 162.293 188.37 163.279 188.697V188.695ZM39.4731 205.138C38.652 205.201 38.2163 205.678 37.7493 206.175C38.4701 206.062 38.907 205.477 39.4731 205.138ZM165.792 190.855C165.739 189.78 164.829 189.505 164.116 189.722C164.502 190.445 165.076 190.887 165.792 190.855ZM166.333 191.426C166.378 191.661 166.482 191.838 166.566 191.912C166.613 191.953 166.652 191.777 166.738 191.716C166.894 191.602 166.724 191.547 166.615 191.443C166.569 191.398 166.31 191.306 166.333 191.428V191.426ZM176.197 205.384C176.184 205.007 175.904 204.548 175.441 204.655C175.661 204.938 175.677 205.25 176.197 205.384Z" fill="black" stroke="#F5F5F5" stroke-width="2"/>
</g>
</g>
</svg>
