<svg width="453" height="721" viewBox="0 0 453 721" fill="none" xmlns="http://www.w3.org/2000/svg">
<g clip-path="url(#clip0_1076_4586)">
<path d="M498.685 242.018L854.344 373.856L343.355 333.284L725.637 634.604L277.124 421.957L513.712 830.103L184.187 480.096L247.152 934L68.8738 530.288L-38.0279 932.243L-57.3829 470.309L-333.743 869.587L-176.208 416.352L-512.92 626.908L-268.328 342.57C-252.24 327.177 -259.59 298.651 -281.313 302.249L-638.523 364.654L-145.746 173.255L-663.105 73.5397L-205.853 111.351L-583.48 -206.951L-156.771 11.8034L-410.265 -439.006L-75.8395 -62.8992L-166.898 -591.339L25.9988 -102.551" fill="#010101"/>
<path d="M-512.92 626.992L-210.182 336.547C-194.093 321.154 -207.242 293.8 -228.965 297.313L-638.523 364.738L-186.172 178.023L-663.187 73.7071L-175.473 66.9312L-583.48 -206.867L-126.392 -32.7003L-410.265 -438.922L-45.4599 -107.403L-166.898 -591.255L56.3785 -147.055L113.79 -643.204L165.322 -146.385L393.825 -587.742L266.67 -105.395L635.395 -432.481L346.785 -29.7723L805.915 -198.334L394.723 70.3609L882.273 83.0764L528.983 197.431L854.262 373.856L373.653 288.697L725.555 634.604L307.422 377.37L513.63 830.103L214.485 435.509L247.07 934.001L107.257 455.335L-38.1099 932.244L0.355116 434.17L-303.363 825L-91.8465 374.86L-512.92 626.908L-512.92 626.992Z" fill="#826887"/>
</g>
<defs>
<clipPath id="clip0_1076_4586">
<rect width="1698" height="1617" fill="white" transform="translate(920 -677) rotate(90)"/>
</clipPath>
</defs>
</svg>
