<svg width="139" height="55" viewBox="0 0 139 55" fill="none" xmlns="http://www.w3.org/2000/svg">
<g clip-path="url(#clip0_1_2)">
<path d="M94.9565 53.685C94.0362 54.1541 93.9935 53.12 92.9745 54.4086C92.9154 54.4813 93.1356 54.587 93.3229 54.663C93.0107 54.7555 92.5045 54.7819 92.0937 54.7423L92.6196 53.9989C92.0575 53.9427 91.7551 54.3524 91.41 54.7621L90.9696 54.3953C90.871 54.3127 90.5291 54.5044 90.4174 54.5903C89.3294 55.4328 88.8167 54.7324 87.8142 54.663C87.4921 54.6927 87.1306 54.6332 86.8183 54.5473L86.0821 54.6729L86.3877 54.1112C86.4567 53.9856 85.9276 53.87 85.7928 53.9162C84.0344 54.5143 81.7796 52.0891 80.2939 51.23L80.8067 50.9029C79.8371 49.9976 77.9965 49.5581 78.427 47.84C77.8223 46.9677 76.9052 45.6924 77.2701 44.2815C76.9184 43.4125 76.7705 40.951 76.8362 39.9829L76.9611 38.1755L76.5733 38.8562L76.9282 36.9894L77.1156 37.5345C77.017 36.5202 76.971 35.6776 76.9545 34.6699C76.9414 33.9033 76.5141 32.922 76.7475 32.1654C76.8987 31.6731 76.9184 31.3195 76.8789 30.8008L76.8066 29.803C76.7376 28.8712 76.7606 27.9989 76.7968 26.9119L78.335 26.7401C79.3802 26.6211 80.2677 26.7632 81.2767 26.9746C81.842 26.9548 82.6079 26.7037 83.2685 26.8425L82.2693 27.0903C82.8281 27.1861 83.3836 27.0639 84.1428 26.9119C84.3762 27.3711 84.2316 28.217 84.0344 28.739L84.2086 29.7633C84.3663 30.6885 84.3203 31.7226 84.1856 32.6048C84.1691 32.7205 84.5274 34.5113 83.7681 35.3704C85.3031 36.6656 84.5077 39.4443 85.4904 38.5687L86.2398 39.3022C86.2793 40.0754 86.9728 40.1018 87.5053 40.31C88.8233 40.8287 89.9474 40.9477 91.1602 40.1679C92.0542 39.593 92.7182 38.9322 93.3065 38.0566C94.1381 36.8176 94.447 36.2889 94.5062 34.7062L94.6607 30.7182C94.756 28.2732 95.0781 29.6741 95.203 27.685L100.978 27.6784L101.057 41.7737C101.07 43.8487 100.833 45.6263 100.183 47.612C99.9196 48.4182 99.42 49.1319 98.7692 49.8291C98.0198 50.632 98.5359 51.2135 97.1258 52.1188C97.0634 52.1585 97.0009 51.8809 96.9417 51.7322L95.8735 52.4922L96.3402 52.9812L94.9532 53.6916L94.9565 53.685Z" fill="black"/>
<path d="M9.65999 51.1111C9.30173 51.1474 8.70024 51.2631 8.38799 51.2498C5.78482 51.1375 3.58264 49.7465 1.90307 47.8169C0.713242 46.449 0.249799 44.8069 0 42.95C1.25886 42.2561 3.79957 41.9257 4.45694 41.6151C4.58184 41.5556 4.43393 41.1393 4.38134 41.0071C3.99021 40.0556 4.01979 39.1866 4.04609 38.1987C4.06581 37.4123 3.79629 36.4673 3.76013 35.6975C3.89818 35.3142 4.11182 34.7525 4.23015 34.3263C5.03871 31.3625 7.37893 29.4065 10.2089 28.4384C10.7118 28.2665 11.1851 27.8965 11.7964 27.88C13.9657 27.8139 16.0792 28.326 17.8705 29.6245C19.9905 31.1642 20.7498 33.682 21.348 36.0477L18.6889 36.801L16.8023 37.3363C16.2928 37.9707 16.9173 38.5555 17.1211 39.0709C17.8771 40.9675 17.9855 43.1416 17.361 45.0348C16.9239 46.3598 16.1942 47.4336 15.3889 48.4711C14.8433 49.1749 14.2451 49.5119 13.4398 49.8489C12.2171 50.361 11.0175 50.9756 9.65999 51.1144V51.1111Z" fill="black"/>
<path d="M32.1912 52.6574C31.8066 52.7004 31.2315 52.5418 30.9389 52.3799C30.2388 51.9933 29.6308 52.4922 28.9865 52.5318C28.3062 52.5748 27.468 52.5054 26.7778 52.4757C29.003 51.4778 28.8452 52.8556 29.9595 51.7719C28.7137 51.7488 27.468 51.6232 26.3341 51.8049L24.4672 52.1056L24.9931 52.2873L24.3948 52.3832C24.2634 52.403 24.3653 51.9338 24.4014 51.8281L23.2938 51.6199L32.3917 40.2406L31.708 40.1316C31.6062 40.115 31.6719 40.3364 31.6785 40.6239L29.782 40.6867C29.335 40.7032 28.8551 40.7428 28.3522 40.7131C26.5609 40.614 24.8484 40.6437 23.0111 40.6635L22.9815 38.0236L22.9256 36.8242C22.8895 36.018 22.9026 35.225 22.9256 34.3791L22.9848 32.4925L22.9717 30.7281C22.9717 30.4968 23.0867 30.0475 23.2116 29.8856C23.3562 29.6972 23.8591 29.5056 24.1253 29.5023L28.6316 29.4362C29.0161 29.4296 29.5354 29.314 29.9595 29.3437C30.7976 29.3999 31.5831 29.3767 32.4246 29.3437C34.3572 29.271 36.2373 29.4032 38.216 29.4726C38.6367 29.4858 39.1724 29.7369 39.5438 29.9252C40.0632 29.4362 40.7041 29.1091 41.4108 29.1818C42.3015 29.2776 43.1265 29.2611 44.0304 29.3173L46.3081 29.456L49.1052 29.3966L50.3016 29.3899L48.7108 31.1676C48.3723 31.5475 48.0206 31.8845 47.7018 32.2876L46.7519 33.4936L44.8652 35.8627C44.4774 36.3484 44.1553 37.1348 43.7444 37.5643L42.9917 38.3507L42.055 38.8165C40.4937 40.3067 41.3976 39.93 39.9448 41.2417C41.207 40.8221 43.4453 41.3805 44.152 40.7825C44.7239 40.6966 45.6902 40.8684 46.3706 40.8981L49.2433 41.0303L49.1743 43.8751C49.1578 44.5227 49.1348 48.0184 49.1808 48.4579C49.2564 49.1352 49.3715 49.6969 49.3156 50.3743C49.2794 50.8038 49.3682 51.1441 49.6213 51.5241L49.3649 52.4261C48.2014 52.4195 47.1693 52.4426 45.9729 52.5054C45.3254 52.5385 44.507 52.2906 43.8693 52.3633C42.6039 52.5054 41.3582 52.9118 40.0927 52.7763C37.4206 52.4889 34.8798 52.3567 32.1879 52.6508L32.1912 52.6574ZM35.8396 51.7554L33.999 51.7389C33.2529 51.7323 32.5002 51.8049 31.7146 51.8842C31.9513 52.5021 32.4279 52.3138 32.8749 52.1882C34.7385 51.6728 34.0516 52.5682 35.8396 51.7554Z" fill="black"/>
<path d="M35.8396 51.7554C34.0516 52.5682 34.7385 51.6728 32.8749 52.1882C32.4279 52.3105 31.9546 52.4988 31.7146 51.8842C32.4969 51.8049 33.2529 51.7322 33.999 51.7389L35.8396 51.7554Z" fill="#F3F3F3"/>
<path d="M136.331 44.4797C135.861 44.6185 135.68 44.6648 135.145 44.6185L131.243 44.2683C131.434 42.3585 130.937 41.8563 131.02 39.6095C131.036 39.1899 131.138 38.8198 130.983 38.4498C130.227 36.6193 131.463 36.0543 130.816 33.3615L131.25 32.4066C130.905 31.9473 130.885 31.5112 131.092 31.0949L131.411 31.3988L131.292 31.911C131.263 32.0332 131.509 32.2414 131.703 32.3702L131.792 30.8735C131.808 30.5662 131.306 30.1102 131.066 30.0243L131.762 29.5882C131.769 27.1531 131.697 24.6717 131.835 22.3489C131.874 21.6517 132.814 21.5559 133.218 21.5724C135.125 21.6418 136.86 21.6121 138.763 21.5064L138.711 23.6705C138.704 23.9151 138.54 24.4668 138.556 24.7345L138.688 26.826C138.727 27.4405 138.73 27.9791 138.734 28.5937L138.74 30.6191C138.74 31.2072 138.527 31.8614 138.31 32.3141C138.53 32.4528 138.908 32.8328 138.885 33.0476C138.727 34.4849 138.655 35.7999 138.675 37.1711L138.711 39.5302C138.73 40.9378 138.954 40.0159 138.997 41.5953C137.781 42.3222 138.974 43.2176 138.326 44.2253C137.79 44.5029 136.857 44.3344 136.328 44.493L136.331 44.4797Z" fill="black"/>
<path d="M127.256 44.6317L129.504 47.7971C129.991 48.4843 130.359 49.0857 131.079 49.839L123.167 49.6441L122.04 49.5747C121.81 49.5615 121.34 49.6837 121.037 49.6936L116.298 49.8357L113.961 49.7894L110.687 49.9613L104.521 49.7894C104.429 48.633 104.554 47.4435 104.577 46.2507C104.59 45.5305 104.488 44.9225 104.584 44.1692L104.83 46.2805L104.902 45.0877C104.968 44.004 104.876 42.8475 104.699 41.8497C104.774 41.6448 104.925 41.212 104.925 40.9906L104.906 27.7941C105.645 27.4471 106.391 27.3777 107.203 27.3811L114.451 27.4042C114.954 27.4042 115.66 27.272 115.963 27.7313L117.938 30.738C118.26 30.51 118.559 30.2523 118.756 29.9715L120.518 27.4339L122.119 27.4009L125.324 27.3645L130.402 27.4471L129.396 28.706C129.021 29.4957 128.673 30.1334 128.147 30.814L125.922 33.6919L124.052 36.2526L122.806 37.9608L124.367 40.1051C124.949 40.908 125.629 41.6448 126.024 42.57C126.342 43.3233 126.786 43.9709 127.256 44.6284V44.6317ZM106.536 49.4392L104.965 49.3665L104.853 47.8004C104.426 48.2662 104.574 49.0625 104.919 49.459C105.192 49.7762 106.109 49.6408 106.539 49.4392H106.536Z" fill="black"/>
<path d="M106.536 49.4392C106.105 49.6408 105.188 49.7795 104.916 49.459C104.57 49.0592 104.423 48.2662 104.85 47.8004L104.962 49.3665L106.533 49.4392H106.536Z" fill="#F3F3F3"/>
<path d="M67.8599 52.2246C65.6807 52.3336 68.8459 52.5649 65.592 52.3534L62.8047 52.1717C61.5985 52.0924 58.4201 52.6838 56.9805 52.4724C57.1612 50.9558 56.3724 50.0339 56.5729 49.1352C56.895 47.7046 56.9246 46.3994 56.6814 44.9985L57.1481 44.1229C56.6945 43.6537 56.7471 43.3035 56.9049 42.5171L57.2467 43.0854C57.1382 43.4654 57.1711 43.8388 57.5129 44.0469C57.6773 43.2011 57.812 42.1537 57.1777 41.5523C57.1185 41.5193 56.9279 41.3871 56.9805 41.3772L57.6017 41.2715L57.6313 35.0763L55.8268 35.2481C55.4028 35.2878 54.5712 35.562 54.2294 35.3439C52.5202 34.247 53.3617 35.3869 51.2679 34.8285L51.1693 33.0839C51.1496 32.7006 51.0576 32.3174 50.8998 32.0431L51.1759 28.8117C51.2154 28.3392 51.2186 27.8469 51.2121 27.3943L51.1858 25.3358L52.2113 25.2202C52.655 25.1706 53.0198 25.1541 53.4734 25.164L55.6394 25.2136C56.2146 25.2268 56.9837 24.7113 57.5951 24.8567C59.0117 25.197 60.3199 25.2367 61.7628 24.979L62.7061 25.4283C63.186 25.0418 63.7053 25.0318 64.3528 25.1805L63.8434 25.5836C63.5114 25.4977 63.0052 25.2763 62.8212 25.8678C63.4621 25.9273 64.1589 25.9801 64.7341 25.8116C65.1482 25.6894 65.4079 25.8446 65.7859 25.8513L73.7893 25.9702C74.4434 25.9801 74.5913 26.8392 74.5847 27.196L74.565 28.4417C74.5453 29.5386 74.519 30.6224 74.5847 31.6962C74.657 32.8791 74.6176 33.9298 74.5157 35.1457C73.9241 35.2481 73.3489 34.9937 72.8493 35.0102L69.9437 35.1093L69.924 37.485C69.9207 38.0533 69.6906 38.7471 69.5197 39.1701C69.9634 39.4807 70.1146 39.8672 70.0653 40.3992L69.8846 42.2561C69.8714 42.3982 69.878 46.4523 69.901 46.9215C69.9897 48.7685 70.1705 47.5096 70.1672 49.1617C68.9807 50.2817 70.1081 50.5031 69.5723 52.1353L67.8599 52.2213V52.2246ZM59.8827 25.838C60.5763 25.914 61.2139 25.8777 61.9403 25.7918C61.7365 24.9955 61.3618 25.5275 61.0233 25.5539C60.5894 25.5869 60.2048 25.5869 59.8827 25.838ZM57.5852 47.0239C57.5819 46.0756 57.5491 45.5172 57.4735 44.906C56.6912 45.0778 57.2434 45.5205 57.25 45.8278C57.2598 46.3267 57.3124 46.7365 57.5852 47.0239Z" fill="black"/>
<path d="M59.8827 25.838C60.2048 25.5869 60.5894 25.5836 61.0233 25.5539C61.3585 25.5274 61.7365 24.9988 61.9403 25.7918C61.2139 25.8777 60.5795 25.914 59.8827 25.838Z" fill="#F3F3F3"/>
<path d="M57.5852 47.0239C57.3124 46.7364 57.2598 46.3267 57.25 45.8278C57.2434 45.5205 56.6912 45.0778 57.4735 44.906C57.5491 45.5172 57.5787 46.0756 57.5852 47.0239Z" fill="#F3F3F3"/>
<path d="M34.4788 22.0053C32.6316 23.8721 32.8288 22.9899 31.6653 24.1496C29.7327 24.3115 28.4902 23.9448 26.459 24.1695L23.583 24.4834L22.1894 24.6122L22.2354 23.2807C21.0456 20.2772 22.643 20.5548 21.6931 17.2606L22.1499 16.4114C21.8771 15.8597 21.772 15.2914 21.9199 14.809L22.2814 15.2286C22.334 15.2881 22.2485 15.4731 22.2157 15.6416C22.1828 15.8101 22.3997 16.1603 22.5772 16.2198C22.7218 15.331 22.6857 14.4819 22.2716 13.8772C22.048 13.7913 21.9297 13.7417 21.9987 13.7186L22.5739 13.5171L22.4096 5.94737L22.8599 5.14778C24.6742 4.88345 25.4729 5.12135 27.7343 4.93301C28.6776 4.85702 29.5091 4.83389 30.482 4.9231C30.9093 4.96275 31.3958 5.23699 31.7902 5.36915C32.6283 5.65 33.335 5.91433 34.0055 6.51237L34.4986 6.6941L35.7969 8.16772C36.2669 8.70299 37.2398 10.5731 36.8355 11.3364C37.4238 11.419 37.7361 11.8419 37.7295 12.4366L37.7098 14.7297C37.7065 15.1724 37.7591 15.8894 37.6506 16.276L36.8914 18.9986L36.5265 20.0988C36.4181 20.4226 36.1288 20.9281 35.833 21.0174C35.1822 21.2123 34.9258 21.5559 34.4854 22.002L34.4788 22.0053Z" fill="black"/>
<path d="M47.3402 19.9303L46.2818 19.9435C44.3821 19.9634 42.64 20.2772 40.543 20.1319L45.0361 14.9973C45.2695 14.7297 45.4799 13.9995 45.6836 13.7054L46.4199 12.6481C45.6146 12.5655 45.0756 12.5423 44.3492 12.6117L41.4403 12.8893L40.1683 13.0347C40.4609 12.0038 40.0007 9.07305 40.004 8.97723L40.0402 6.15223L41.3845 5.98372L44.4807 5.60375C45.3352 5.49801 46.1109 5.42202 46.9951 5.43524C47.8792 5.44845 48.885 5.15439 49.5654 5.50793C50.1274 5.79869 50.7289 5.71939 51.2647 5.37907C51.4816 5.43524 51.9483 5.53766 52.208 5.52114L57.1908 5.19734C57.2631 5.51454 57.1185 5.84825 56.8917 6.09606L54.2918 8.93428C52.4874 10.9035 52.8391 9.95524 51.4948 12.9058C53.6904 12.8761 55.7052 12.6844 57.8482 12.4168C57.6904 13.375 57.7759 14.6636 57.8646 15.5689C57.8745 15.6614 57.7693 15.9257 57.7693 16.0083C57.7693 16.0909 57.9304 16.2033 58.0355 16.2958L57.9304 19.3157L54.3543 19.7387C53.7758 19.8081 53.0889 19.9204 52.54 19.9468L49.125 20.1219L47.968 20.1814C47.8628 20.1517 47.475 19.9336 47.3501 19.9336L47.3402 19.9303Z" fill="black"/>
<path d="M65.3717 20.2938L60.7603 20.3367L60.5763 17.4721C60.5401 16.9104 60.4415 16.3388 60.4711 15.7705C60.5171 14.9081 60.5007 14.1316 60.4711 13.2858L60.4218 11.7064L60.7538 11.4487C60.8787 11.3496 60.6124 10.8176 60.6354 10.659C60.6782 10.3815 60.7768 9.85612 60.7702 9.50919L60.6519 4.55966C60.6584 4.28542 61.4144 4.1136 61.6938 4.10369L65.4112 4.00126C66.0291 3.98474 66.7259 3.98805 67.265 3.99796C67.2124 6.57185 67.5936 7.69855 67.3931 10.2691C67.3669 10.6161 67.4819 10.9399 67.5049 11.2538C67.6561 13.3948 67.4556 15.4698 67.7678 17.7595L67.6002 18.6946L67.5706 20.1021C66.7949 20.1715 66.0751 20.2905 65.375 20.2971L65.3717 20.2938Z" fill="black"/>
<path d="M112.528 19.4149L111.798 18.7607C111.262 18.873 110.871 18.8201 110.336 18.5029L110.809 18.1725C111.154 18.3774 111.479 18.5195 111.848 18.3543C111.387 18.0701 110.806 17.7562 110.349 17.7067C109.744 17.6373 109.734 17.3928 109.34 17.0723C107.423 15.516 105.958 13.3915 105.958 10.8341C104.541 10.3683 106.447 7.01129 106.924 6.24144C107.87 4.71164 108.732 4.2755 110.227 3.54199C110.733 3.29418 111.223 3.01994 111.765 2.80848L112.765 2.4153L114.487 2.14106C115.17 2.03202 117.116 2.08489 117.524 2.78866C117.695 2.65649 117.997 2.35913 118.191 2.32278C118.385 2.28644 118.783 2.46816 118.99 2.57389L120.535 3.37679C121.616 3.93848 122.487 4.61252 123.296 5.5674L124.265 6.71392C125.695 8.40893 124.499 7.4177 124.978 9.76691C125.455 12.0897 124.784 11.8749 125.176 12.9388C124.456 14.6471 123.134 15.9786 121.797 17.2044C120.538 18.3609 120.042 18.6351 118.369 19.0613C117.843 19.1968 117.182 19.851 116.597 19.7783C115.226 19.6065 114.046 19.4876 112.531 19.4116L112.528 19.4149Z" fill="black"/>
<path d="M102.819 15.7771L102.151 16.005C103.571 16.3949 103.272 15.3839 104.508 16.2396L104.6 20.3995C104.607 20.6903 104.081 20.9612 103.808 20.9678L99.9985 21.0471L95.2162 21.242C94.6442 21.2652 93.7338 21.0867 93.2506 21.166L92.3172 21.3213L89.5102 21.3379L89.3656 18.4104L89.3229 15.7506L89.313 13.3452C89.3032 11.3496 88.9975 9.38033 89.1914 7.3384C89.2275 6.95512 89.0764 6.5388 89.0665 6.215L88.9515 2.28974L92.774 2.0981L94.5949 2.22696C94.7166 2.23687 94.9959 2.25339 95.0847 2.29304C95.1603 2.32608 95.3411 4.43079 95.3411 4.53983L95.3312 7.81088L96.807 7.14345L98.0856 6.58506C98.8645 6.24474 99.2359 6.99807 99.466 7.56307L100.403 9.8429C100.482 10.0378 100.261 10.4641 100.077 10.5401L98.3419 11.267C97.4775 11.6304 96.4684 12.0401 95.7223 12.5027L95.7125 15.0634C95.7125 15.298 95.6566 15.7242 95.8209 15.8068C95.9853 15.8894 96.4323 15.8927 96.6624 15.8729L98.4208 15.7176L101.343 15.6912C101.754 15.6878 102.089 15.7275 102.819 15.7804V15.7771Z" fill="black"/>
<path d="M83.4624 21.2718C81.6415 21.8996 82.2529 20.7696 80.2939 20.829L78.0951 20.8951C77.7467 20.905 77.1616 21.0471 76.8329 21.0967C74.5946 20.9215 73.0991 20.5184 70.7326 20.6407C70.085 20.6737 69.5624 20.7299 68.9445 20.5812L69.5099 18.8003C69.6939 18.2188 69.8977 17.7232 70.1442 17.1284C70.3579 16.613 70.1442 15.6383 70.4663 15.1229C71.3012 13.788 71.7843 12.4564 72.09 10.9498L72.6784 10.4542C72.8164 10.3385 72.5962 9.82308 72.6554 9.64796L72.9939 8.64682L73.3094 9.36381C73.1549 9.56866 73.0038 9.76361 72.9577 9.89577C72.9117 10.0279 73.0629 10.2823 73.1812 10.4409C73.5691 9.56206 74.256 8.2239 73.4212 7.69855L74.1837 7.72498L76.9381 0C77.1386 0.0892106 77.3555 0.0991229 77.6415 0.0594737C77.8946 0.446053 78.2791 1.07053 78.4796 1.55623C79.6826 4.44731 80.8987 5.87468 81.6843 8.55431L82.9037 10.8705L83.2291 11.1546C83.5841 12.5225 85.2669 14.5975 85.1124 16.1835C85.7698 16.2562 86.0327 16.6427 86.2398 17.2143L86.769 18.6748C86.9498 19.1737 87.1831 19.6296 87.4296 20.0955L88.1495 21.4469L86.654 21.3081C86.1642 21.2619 85.5759 21.252 85.0763 21.2553L83.4592 21.2652L83.4624 21.2718ZM72.2971 11.6469L72.113 13.3122C73.3324 11.1183 72.3957 10.7515 72.2971 11.6469Z" fill="black"/>
<path d="M72.2971 11.6469C72.3957 10.7482 73.3324 11.115 72.113 13.3122L72.2971 11.6469Z" fill="#F3F3F3"/>
</g>
<defs>
<clipPath id="clip0_1_2">
<rect width="139" height="55" fill="white"/>
</clipPath>
</defs>
</svg>
